<svg xmlns="http://www.w3.org/2000/svg" viewBox="0 0 512 512"><path d="M293.926 28.444h-75.852c-20.916 0-37.926 17.01-37.926 37.926v47.407h18.963V75.852c0-10.453 8.51-18.963 18.963-18.963h75.852c10.453 0 18.963 8.51 18.963 18.963v37.926h18.963V66.37c0-20.916-17.01-37.926-37.926-37.926z" fill="#707487"/><g fill="#5B5D6E"><path d="M180.148 85.333h18.963v28.444h-18.963zM312.889 85.333h18.963v28.444h-18.963z"/></g><path d="M483.556 483.556H28.444C12.735 483.556 0 470.821 0 455.111v-322.37c0-15.71 12.735-28.444 28.444-28.444h455.111c15.71 0 28.444 12.735 28.444 28.444v322.37c.001 15.709-12.735 28.445-28.443 28.445z" fill="#FF5050"/><circle cx="256" cy="284.444" r="132.741" fill="#E4EAF8"/><circle cx="256" cy="284.444" r="113.778" fill="#FFF"/><path d="M312.889 265.481h-37.926v-37.926c0-5.236-4.245-9.481-9.481-9.481h-18.963c-5.236 0-9.481 4.245-9.481 9.481v37.926h-37.926c-5.236 0-9.481 4.245-9.481 9.481v18.963c0 5.236 4.245 9.481 9.481 9.481h37.926v37.926c0 5.236 4.245 9.481 9.481 9.481h18.963c5.236 0 9.481-4.245 9.481-9.481v-37.926h37.926c5.236 0 9.481-4.245 9.481-9.481v-18.963c0-5.236-4.245-9.481-9.481-9.481z" fill="#FF5050"/><path d="M483.556 455.111H28.444C12.735 455.111 0 442.376 0 426.667v28.444c0 15.71 12.735 28.444 28.444 28.444h455.111c15.71 0 28.444-12.735 28.444-28.444v-28.444c.001 15.709-12.735 28.444-28.443 28.444z" fill="#C84146"/></svg>