<?xml version="1.0" encoding="iso-8859-1"?>
<!-- Generator: Adobe Illustrator 17.1.0, SVG Export Plug-In . SVG Version: 6.00 Build 0)  -->
<!DOCTYPE svg PUBLIC "-//W3C//DTD SVG 1.1//EN" "http://www.w3.org/Graphics/SVG/1.1/DTD/svg11.dtd">
<svg xmlns="http://www.w3.org/2000/svg" xmlns:xlink="http://www.w3.org/1999/xlink" version="1.1" id="Capa_1" x="0px" y="0px" viewBox="0 0 416.809 416.809" style="enable-background:new 0 0 416.809 416.809;" xml:space="preserve" width="512px" height="512px">
<path d="M230.986,54c0,5.522-4.477,10-10,10h-3.582v3.923c0,5.522-4.478,10-10,10s-10-4.478-10-10V64h-3.529  c-5.522,0-10-4.477-10-10c0-5.522,4.477-10,10-10h3.529v-3.188c0-5.522,4.478-10,10-10s10,4.478,10,10V44h3.582  C226.508,44,230.986,48.477,230.986,54z M312.499,416.64c-0.615,0.113-1.245,0.169-1.85,0.169c-4.727,0-8.963-3.365-9.855-8.181  l-23.636-127.233c-3.787-20.454-17.754-33.969-34.754-41.375v42.19c10,3.921,16.049,13.159,16.049,23.904c0,5.522-4.344,10-9.866,10  s-10.004-4.478-10.004-10c0-3.205-2.718-5.913-5.924-5.913c-3.205,0-5.929,2.708-5.929,5.913c0,5.522-4.511,10-10.034,10  s-10.068-4.478-10.068-10c0-10.745,6.776-19.982,15.776-23.904v-47.974c-4-0.761-9.415-1.138-14.135-1.138  c-6.502,0-13.012,0.71-19.494,2.164l0.002,88.565c10.514,3.999,18,14.103,18,25.913c0,15.302-12.561,27.75-28,27.75  s-28-12.448-28-27.75c0-11.81,7.486-21.914,18-25.913l-0.001-81.209c-14.498,7.792-25.882,20.519-29.263,38.777l-21.377,115.412  l132.852-0.002c5.522,0,10,4.477,10,10c0,5.522-4.477,10-10,10l-144.874,0.002c-2.971,0-5.788-1.321-7.688-3.605  c-1.9-2.284-2.687-5.295-2.146-8.216l23.566-127.233c8.271-44.66,50.438-64.654,88.558-64.654c0.002,0-0.001,0,0.001,0  c8.581,0,17.364,1.023,25.922,3.103c0.558,0.093,1.1,0.23,1.623,0.412c28.814,7.484,54.719,27.168,61.01,61.141l23.568,127.232  C321.534,410.416,317.93,415.634,312.499,416.64z M186.777,349.739c0-4.272-3.589-7.749-8-7.749s-8,3.477-8,7.749  c0,4.273,3.589,7.75,8,7.75S186.777,354.013,186.777,349.739z M135.404,79.167V33.048C135.404,14.656,150.666,0,169.059,0h78.686  c18.393,0,33.659,14.656,33.659,33.048v53.785c0,0-0.185,20.316-0.3,23.501c-1.177,32.596-14.721,58.692-37.95,72.491  c-10.717,6.367-22.736,9.551-34.753,9.552c-12.019,0.001-24.034-3.184-34.754-9.552c-22.511-13.374-35.983-38.298-37.876-69.484  C135.52,109.204,135.404,79.167,135.404,79.167z M261.131,109H155.672c0.802,26,10.862,46.305,28.191,56.601  c15.135,8.992,33.941,9.002,49.076,0.01C250.267,155.317,260.326,135,261.131,109z M155.404,89h106V33.048  c0-7.363-6.295-13.048-13.659-13.048h-78.686c-7.364,0-13.655,5.685-13.655,13.048V89z" fill="#FFFFFF"/>
<g>
</g>
<g>
</g>
<g>
</g>
<g>
</g>
<g>
</g>
<g>
</g>
<g>
</g>
<g>
</g>
<g>
</g>
<g>
</g>
<g>
</g>
<g>
</g>
<g>
</g>
<g>
</g>
<g>
</g>
</svg>
