<?xml version="1.0" encoding="utf-8"?>
<!-- Generator: Adobe Illustrator 16.0.0, SVG Export Plug-In . SVG Version: 6.00 Build 0)  -->
<!DOCTYPE svg PUBLIC "-//W3C//DTD SVG 1.1//EN" "http://www.w3.org/Graphics/SVG/1.1/DTD/svg11.dtd">
<svg version="1.1" id="Layer_1" xmlns="http://www.w3.org/2000/svg" xmlns:xlink="http://www.w3.org/1999/xlink" x="0px" y="0px"
	 width="284.8px" height="292.8px" viewBox="267.9 9.7 284.8 292.8" enable-background="new 267.9 9.7 284.8 292.8"
	 xml:space="preserve">
<g>
	<path fill="#FFFFFF" d="M389.517,35.387c-1.585,0-3.164-0.665-4.277-1.966l-7.31-8.542c-2.019-2.359-1.744-5.909,0.614-7.928
		c2.359-2.022,5.91-1.744,7.928,0.614l7.313,8.543c2.016,2.358,1.741,5.909-0.618,7.931
		C392.113,34.947,390.812,35.387,389.517,35.387z"/>
	<path fill="#FFFFFF" d="M516.988,184.323c-1.585,0-3.164-0.667-4.274-1.966l-15.935-18.619c-2.016-2.362-1.744-5.913,0.615-7.929
		c2.361-2.021,5.912-1.747,7.928,0.615l15.934,18.621c2.016,2.361,1.744,5.908-0.614,7.924
		C519.581,183.881,518.279,184.323,516.988,184.323z M485.123,147.089c-1.588,0-3.163-0.668-4.277-1.969l-15.934-18.62
		c-2.016-2.359-1.744-5.909,0.614-7.928c2.362-2.021,5.909-1.747,7.928,0.615l15.935,18.617c2.016,2.359,1.744,5.909-0.615,7.928
		C487.713,146.643,486.412,147.089,485.123,147.089z M453.256,109.855c-1.588,0-3.164-0.665-4.277-1.968l-15.935-18.614
		c-2.019-2.358-1.744-5.909,0.615-7.928c2.361-2.019,5.909-1.744,7.928,0.615l15.934,18.617c2.016,2.359,1.744,5.909-0.614,7.928
		C455.846,109.409,454.544,109.855,453.256,109.855z M421.382,72.621c-1.585,0-3.163-0.665-4.274-1.966l-15.934-18.617
		c-2.019-2.359-1.744-5.909,0.615-7.928c2.359-2.019,5.909-1.744,7.928,0.615l15.934,18.617c2.016,2.359,1.744,5.909-0.617,7.928
		C423.975,72.181,422.677,72.621,421.382,72.621z"/>
	<path fill="#FFFFFF" d="M540.231,211.48c-1.584,0-3.163-0.668-4.273-1.967l-7.313-8.542c-2.016-2.362-1.744-5.909,0.614-7.928
		c2.362-2.016,5.912-1.741,7.928,0.614l7.313,8.543c2.016,2.361,1.744,5.912-0.614,7.928
		C542.824,211.037,541.526,211.48,540.231,211.48z"/>
</g>
<path fill="#FFFFFF" d="M544.438,78.902L520.582,62.84c-2.574-1.731-6.065-1.051-7.803,1.522c-1.735,2.577-1.055,6.072,1.52,7.807
	l4.228,2.842c-85.984-3.376-125.022,61.72-125.418,62.403c-1.563,2.677-0.658,6.112,2.016,7.678
	c0.892,0.524,1.872,0.771,2.836,0.771c1.931,0,3.81-0.996,4.858-2.777c0.093-0.163,9.75-16.371,29.831-31.315
	c24.311-18.096,52.693-26.648,84.445-25.553l-3.946,1.407c-2.927,1.042-4.452,4.259-3.41,7.186c0.823,2.299,2.985,3.735,5.298,3.735
	c0.624,0,1.264-0.106,1.888-0.328l26.254-9.36c2-0.714,3.426-2.49,3.691-4.596C547.14,82.159,546.194,80.084,544.438,78.902z"/>
<path fill="#FFFFFF" d="M377.252,143.414c-3.498-0.78-9.207-2.39-11.89-3.716c-0.552-1.301-1.158-4.468-1.566-6.633
	c-1.245-6.562-2.658-14-7.922-17.304c-4.967-3.129-10.979-3.129-15.366-3.129c-7.173,0-19.619,2.602-24.504,9.775
	c-3.878,5.688-11.672,17.9-12.003,18.415c-1.669,2.618-0.901,6.096,1.716,7.766c2.618,1.675,6.09,0.902,7.762-1.716
	c0.078-0.125,8.031-12.586,11.813-18.134c1.117-1.641,4.876-3.248,9.032-4.14l-10,35.721c-0.128,0.455-0.187,0.914-0.196,1.379
	c-1.959,4.283-9.597,20.904-17.628,37.355c-1.36,2.789-0.203,6.156,2.587,7.516c0.795,0.391,1.635,0.572,2.461,0.572
	c2.081,0,4.084-1.155,5.058-3.158c7.519-15.403,14.689-30.941,17.25-36.525h2.768c3.56,5.884,7.803,12.988,9.238,15.725
	c0.49,2.387-1.894,11.213-5.067,18.717c-1.21,2.857,0.128,6.158,2.986,7.366c0.714,0.3,1.46,0.442,2.19,0.442
	c2.19,0,4.271-1.281,5.176-3.428c3.248-7.666,8.187-21.507,4.798-28.077c-1.604-3.117-6.524-11.325-10.087-17.214l7.008-25.215
	c1.12,5.869,2.193,10.904,6.14,13.26c4.68,2.783,13.978,4.951,15.793,5.354c0.409,0.094,0.824,0.138,1.232,0.138
	c2.574,0,4.898-1.782,5.482-4.396C382.191,147.096,380.282,144.094,377.252,143.414z"/>
<path fill="#FFFFFF" d="M310.747,154.431l0.259-0.615c1.844-5.5-1.12-11.481-6.614-13.338c-2.665-0.896-5.516-0.702-8.037,0.546
	c-2.34,1.164-4.109,3.126-5.07,5.538l-9.541-3.856l-9.079,22.429l39.144,15.818l9.073-22.432L310.747,154.431z M298.853,146.06
	c1.176-0.583,2.505-0.674,3.741-0.252c2.562,0.864,3.944,3.653,3.158,6.024l-0.206,0.496l-9.057-3.66
	C296.928,147.529,297.752,146.605,298.853,146.06z"/>
<path fill="#FFFFFF" d="M363.088,98.976c0,6.571-4.964,11.896-11.089,11.896s-11.085-5.329-11.085-11.896
	c0-6.561,4.964-11.887,11.085-11.887C358.13,87.092,363.088,92.415,363.088,98.976z"/>
<ellipse fill="#FFFFFF" cx="379.911" cy="198.975" rx="10.015" ry="10.746"/>
<path fill="#FFFFFF" d="M325.719,230.833c0,5.504-4.48,9.966-10.012,9.966c-5.529,0-10.012-4.465-10.012-9.966
	c0-5.513,4.486-9.968,10.012-9.968C321.242,220.865,325.719,225.323,325.719,230.833z"/>
<path fill="#FFFFFF" d="M340.724,237.854c-2.39-1.988-5.931-1.66-7.916,0.73c-5.987,7.207-6.783,7.01-14.377,5.147
	c-1.41-0.343-2.955-0.724-4.68-1.095c-11.484-2.456-20.813,3.497-28.498,18.192c-1.438,2.751-0.377,6.146,2.377,7.587
	c0.833,0.435,1.722,0.641,2.602,0.641c2.025,0,3.984-1.099,4.986-3.014c3.245-6.2,6.187-9.467,8.714-11.129
	c-1.947,7.531-5.94,20.865-12.009,31.152c-1.576,2.671-0.69,6.125,1.987,7.697c0.896,0.527,1.878,0.779,2.852,0.779
	c1.928,0,3.8-0.985,4.852-2.767c3.239-5.491,5.906-11.626,8.05-17.429c2.171,1.352,4.546,3.205,5.563,4.3
	c-0.568,1.828-2.905,5.665-5.27,8.563c-1.959,2.406-1.604,5.947,0.799,7.91c1.045,0.852,2.303,1.27,3.557,1.27
	c1.629,0,3.239-0.702,4.353-2.059c3.563-4.354,9.288-12.562,7.616-18.655c-0.874-3.198-4.097-6.274-7.457-8.724l1.888-9.537
	c0.115-0.578,0.109-1.139,0.05-1.691c7.039,1.157,12.533-0.135,20.701-9.959C343.441,243.382,343.11,239.838,340.724,237.854z"/>
<path fill="#FFFFFF" d="M411.267,226.82c-1.192-2.863-4.483-4.225-7.351-3.029c-2.871,1.195-5.697,2.078-7.46,2.506
	c-1.03-1.398-2.424-3.479-3.379-4.893c-1.666-2.486-3.107-4.627-4.196-5.894c-4.284-4.958-20.889-2.62-24.174-1.27
	c-5.975,2.434-16.992,9.694-22.798,15.769c-2.146,2.246-2.065,5.8,0.181,7.953c1.092,1.039,2.487,1.553,3.881,1.553
	c1.482,0,2.964-0.583,4.065-1.737c3.513-3.679,9.494-7.899,14.171-10.651l-6.212,25.365c-0.677,1.959-6.776,19.272-14.851,31.02
	c-1.76,2.559-1.114,6.056,1.445,7.818c0.973,0.664,2.081,0.986,3.182,0.986c1.791,0,3.547-0.85,4.636-2.438
	c6.883-10.009,12.246-23.051,14.758-29.705l0.446,0.057c2.783,3.769,5.604,7.736,6.617,9.557c0.334,2.286-1.289,10.201-3.56,17.253
	c-0.949,2.954,0.674,6.124,3.631,7.076c0.574,0.181,1.151,0.274,1.723,0.274c2.377,0,4.583-1.516,5.351-3.902
	c2.839-8.812,5.66-20.402,2.995-25.575c-1.323-2.574-4.992-7.7-7.965-11.712l7.161-25.784c0.056,0.081,0.118,0.175,0.174,0.256
	c3.632,5.409,5.289,7.737,7.089,8.974c1.404,0.97,4.337,2.97,17.4-2.465C411.102,232.986,412.459,229.694,411.267,226.82z"/>
</svg>
