<?xml version="1.0" encoding="utf-8"?>
<!-- Generator: Adobe Illustrator 16.0.0, SVG Export Plug-In . SVG Version: 6.00 Build 0)  -->
<!DOCTYPE svg PUBLIC "-//W3C//DTD SVG 1.1//EN" "http://www.w3.org/Graphics/SVG/1.1/DTD/svg11.dtd">
<svg version="1.1" id="Layer_1" xmlns="http://www.w3.org/2000/svg" xmlns:xlink="http://www.w3.org/1999/xlink" x="0px" y="0px"
	 width="125.877px" height="145.614px" viewBox="0 0 125.877 145.614" enable-background="new 0 0 125.877 145.614"
	 xml:space="preserve">
<g>
	<path fill-rule="evenodd" clip-rule="evenodd" fill="#0080BD" d="M106.352,2.635L106.352,2.635l-8.871,0.018
		c7.438,7.437,19.984,25.339,20.861,47.354h-17.199C100.25,23.82,78.758,2.635,52.368,2.635c-26.963,0-48.82,21.856-48.82,48.821
		c0,22.439,9.685,41.227,18.515,50.055l8.872-0.012c-7.504-7.502-20.205-25.654-20.88-47.939h17.201
		c0.598,26.453,22.205,47.951,48.791,47.951c26.961,0,48.82-21.855,48.82-48.816C124.868,30.25,115.18,11.469,106.352,2.635
		 M95.186,50.007L95.186,50.007h-9.109c0-0.09,0.004-0.17,0.004-0.256c0-5.346-1.273-10.387-3.516-14.86h9.209
		C93.782,39.56,94.975,44.657,95.186,50.007z M90.631,32.472L90.631,32.472c-3.477-6.857-8.764-12.636-15.221-16.734
		c-2.02,1.867-4.262,3.49-6.693,4.814c5.148,2.803,9.473,6.928,12.514,11.92H90.631z M54.615,24.533L54.615,24.533
		c3.655-0.196,7.155-0.983,10.407-2.263c5.021,2.215,9.314,5.77,12.453,10.201h-22.86V24.533z M72.641,14.126L72.641,14.126
		c-4.883,4.246-11.144,6.945-18.026,7.334V9.162C61.114,9.458,67.221,11.233,72.641,14.126z M52.193,21.492L52.193,21.492V9.121
		c-6.94,0.07-13.469,1.813-19.233,4.822C38.105,18.498,44.819,21.317,52.193,21.492z M52.193,24.571L52.193,24.571
		c-4.038-0.082-7.899-0.881-11.458-2.273c-5.002,2.215-9.271,5.76-12.395,10.174h23.853V24.571z M30.099,15.565L30.099,15.565
		c2.062,1.942,4.367,3.624,6.872,4.988c-5.144,2.805-9.469,6.926-12.52,11.918h-9.833C18.147,25.522,23.522,19.675,30.099,15.565z
		 M23.118,34.891L23.118,34.891c-2.241,4.473-3.515,9.514-3.515,14.86c0,0.467,0.036,0.926,0.054,1.387h-9.621
		c0.079-5.764,1.292-11.248,3.442-16.247H23.118z M33.213,53.56L33.213,53.56h8.837c-0.003,0.137-0.015,0.27-0.015,0.4
		c0,5.395,1.291,10.475,3.567,14.975h-9.105C34.504,64.187,33.357,59.003,33.213,53.56z M37.616,71.356L37.616,71.356
		c3.396,6.838,8.579,12.625,14.93,16.771c2.057-1.93,4.359-3.604,6.857-4.963c-5.11-2.785-9.401-6.875-12.447-11.809H37.616z
		 M74.1,94.995L74.1,94.995c-6.777-0.266-13.136-2.125-18.739-5.195c5.025-4.465,11.552-7.273,18.739-7.564V94.995z M74.1,79.159
		L74.1,79.159c-3.854,0.137-7.531,0.926-10.939,2.26c-4.959-2.197-9.193-5.703-12.313-10.063H74.1V79.159z M49.27,68.935
		L49.27,68.935h52.131c2.563-4.428,4.033-9.557,4.033-15.037v-1.469H82.989v-2.422h0.018v-0.189c0-5.432-1.445-10.527-3.963-14.926
		H26.772c-2.523,4.399-3.967,9.495-3.967,14.926c0,0.445,0.038,0.881,0.058,1.32h22.488v0.184h-0.006
		c-0.072,0.846-0.11,1.713-0.11,2.576C45.235,59.378,46.709,64.507,49.27,68.935z M99.827,71.356L99.827,71.356H76.518v7.807
		c3.848,0.143,7.523,0.938,10.932,2.283C92.432,79.247,96.694,75.735,99.827,71.356z M76.518,95.022L76.518,95.022
		c6.91-0.117,13.402-1.896,19.135-4.918c-5.084-4.656-11.768-7.582-19.135-7.869V95.022z M98.407,88.517L98.407,88.517
		c-2.158-2.092-4.594-3.898-7.258-5.352c5.107-2.783,9.4-6.871,12.445-11.809h10.367C110.456,78.417,105.043,84.353,98.407,88.517z
		 M115.077,68.935h-10.135c2.275-4.5,3.564-9.586,3.564-14.975v-1.531h9.887v0.006C118.393,58.288,117.211,63.856,115.077,68.935z"
		/>
	<path fill-rule="evenodd" clip-rule="evenodd" fill="#0080BD" d="M82.377,53.843L78.34,42.489l-1.109,0.01l-0.004-0.027h-1.879
		v-0.408c0.896-0.289,1.551-1.127,1.551-2.125c0-1.238-1.01-2.249-2.246-2.249c-1.242,0-2.244,1.01-2.244,2.249
		c0,0.99,0.643,1.822,1.531,2.117v0.416h-1.424v0.027l-1.129-0.01L67.35,53.245h0.004v-0.014h-1.605v-0.664
		c0.743-0.217,1.289-0.898,1.289-1.709c0-0.98-0.803-1.783-1.784-1.783c-0.989,0-1.79,0.803-1.79,1.783
		c0,0.826,0.561,1.508,1.319,1.715v0.658h-1.675v-0.006L59.12,42.489v-0.006h-3.247v-0.498c1.042-0.318,1.802-1.281,1.802-2.426
		c0-1.406-1.139-2.549-2.55-2.549s-2.55,1.143-2.55,2.549c0,1.178,0.805,2.162,1.889,2.453v0.471h-3.267v0.006h-0.022l-4.03,11.354
		l1.817,0.002l2.577-7.229h0.201l0.349,8.705h0.014l-2.588,11.137l2.125-0.004l2.741-11.133h1.492l2.741,11.133l2.126,0.004
		l-2.585-11.137h0.004l0.42-8.705h0.184l3.174,8.725h1.172v5.498h0.01v5.623h1.387v-5.623h1.463v5.623h1.387v-5.623v-0.211v-5.287
		h1.08l3.982-10.6l-0.328,7.461l-2.285,14.252h9.604l-1.852-14.205l-0.252-7.541l3.256,9.137L82.377,53.843z"/>
	<path fill-rule="evenodd" clip-rule="evenodd" fill="#0080BD" d="M106.352,2.635L106.352,2.635l-8.871,0.018
		c7.438,7.437,19.984,25.339,20.861,47.354h-17.199C100.25,23.82,78.758,2.635,52.368,2.635c-26.963,0-48.82,21.856-48.82,48.821
		c0,22.439,9.685,41.227,18.515,50.055l8.872-0.012c-7.504-7.502-20.205-25.654-20.88-47.939h17.201
		c0.598,26.453,22.205,47.951,48.791,47.951c26.961,0,48.82-21.855,48.82-48.816C124.868,30.25,115.18,11.469,106.352,2.635
		 M95.186,50.007L95.186,50.007h-9.109c0-0.09,0.004-0.17,0.004-0.256c0-5.346-1.273-10.387-3.516-14.86h9.209
		C93.782,39.56,94.975,44.657,95.186,50.007z M90.631,32.472L90.631,32.472c-3.477-6.857-8.764-12.636-15.221-16.734
		c-2.02,1.867-4.262,3.49-6.693,4.814c5.148,2.803,9.473,6.928,12.514,11.92H90.631z M54.615,24.533L54.615,24.533
		c3.655-0.196,7.155-0.983,10.407-2.263c5.021,2.215,9.314,5.77,12.453,10.201h-22.86V24.533z M72.641,14.126L72.641,14.126
		c-4.883,4.246-11.144,6.945-18.026,7.334V9.162C61.114,9.458,67.221,11.233,72.641,14.126z M52.193,21.492L52.193,21.492V9.121
		c-6.94,0.07-13.469,1.813-19.233,4.822C38.105,18.498,44.819,21.317,52.193,21.492z M52.193,24.571L52.193,24.571
		c-4.038-0.082-7.899-0.881-11.458-2.273c-5.002,2.215-9.271,5.76-12.395,10.174h23.853V24.571z M30.099,15.565L30.099,15.565
		c2.062,1.942,4.367,3.624,6.872,4.988c-5.144,2.805-9.469,6.926-12.52,11.918h-9.833C18.147,25.522,23.522,19.675,30.099,15.565z
		 M23.118,34.891L23.118,34.891c-2.241,4.473-3.515,9.514-3.515,14.86c0,0.467,0.036,0.926,0.054,1.387h-9.621
		c0.079-5.764,1.292-11.248,3.442-16.247H23.118z M33.213,53.56L33.213,53.56h8.837c-0.003,0.137-0.015,0.27-0.015,0.4
		c0,5.395,1.291,10.475,3.567,14.975h-9.105C34.504,64.187,33.357,59.003,33.213,53.56z M37.616,71.356L37.616,71.356
		c3.396,6.838,8.579,12.625,14.93,16.771c2.057-1.93,4.359-3.604,6.857-4.963c-5.11-2.785-9.401-6.875-12.447-11.809H37.616z
		 M74.1,94.995L74.1,94.995c-6.777-0.266-13.136-2.125-18.739-5.195c5.025-4.465,11.552-7.273,18.739-7.564V94.995z M74.1,79.159
		L74.1,79.159c-3.854,0.137-7.531,0.926-10.939,2.26c-4.959-2.197-9.193-5.703-12.313-10.063H74.1V79.159z M49.27,68.935
		L49.27,68.935h52.131c2.563-4.428,4.033-9.557,4.033-15.037v-1.469H82.989v-2.422h0.018v-0.189c0-5.432-1.445-10.527-3.963-14.926
		H26.772c-2.523,4.399-3.967,9.495-3.967,14.926c0,0.445,0.038,0.881,0.058,1.32h22.488v0.184h-0.006
		c-0.072,0.846-0.11,1.713-0.11,2.576C45.235,59.378,46.709,64.507,49.27,68.935z M99.827,71.356L99.827,71.356H76.518v7.807
		c3.848,0.143,7.523,0.938,10.932,2.283C92.432,79.247,96.694,75.735,99.827,71.356z M76.518,95.022L76.518,95.022
		c6.91-0.117,13.402-1.896,19.135-4.918c-5.084-4.656-11.768-7.582-19.135-7.869V95.022z M98.407,88.517L98.407,88.517
		c-2.158-2.092-4.594-3.898-7.258-5.352c5.107-2.783,9.4-6.871,12.445-11.809h10.367C110.456,78.417,105.043,84.353,98.407,88.517z
		 M115.077,68.935h-10.135c2.275-4.5,3.564-9.586,3.564-14.975v-1.531h9.887v0.006C118.393,58.288,117.211,63.856,115.077,68.935z"
		/>
	<path fill-rule="evenodd" clip-rule="evenodd" fill="#0080BD" d="M82.377,53.843L78.34,42.489l-1.109,0.01l-0.004-0.027h-1.879
		v-0.408c0.896-0.289,1.551-1.127,1.551-2.125c0-1.238-1.01-2.249-2.246-2.249c-1.242,0-2.244,1.01-2.244,2.249
		c0,0.99,0.643,1.822,1.531,2.117v0.416h-1.424v0.027l-1.129-0.01L67.35,53.245h0.004v-0.014h-1.605v-0.664
		c0.743-0.217,1.289-0.898,1.289-1.709c0-0.98-0.803-1.783-1.784-1.783c-0.989,0-1.79,0.803-1.79,1.783
		c0,0.826,0.561,1.508,1.319,1.715v0.658h-1.675v-0.006L59.12,42.489v-0.006h-3.247v-0.498c1.042-0.318,1.802-1.281,1.802-2.426
		c0-1.406-1.139-2.549-2.55-2.549s-2.55,1.143-2.55,2.549c0,1.178,0.805,2.162,1.889,2.453v0.471h-3.267v0.006h-0.022l-4.03,11.354
		l1.817,0.002l2.577-7.229h0.201l0.349,8.705h0.014l-2.588,11.137l2.125-0.004l2.741-11.133h1.492l2.741,11.133l2.126,0.004
		l-2.585-11.137h0.004l0.42-8.705h0.184l3.174,8.725h1.172v5.498h0.01v5.623h1.387v-5.623h1.463v5.623h1.387v-5.623v-0.211v-5.287
		h1.08l3.982-10.6l-0.328,7.461l-2.285,14.252h9.604l-1.852-14.205l-0.252-7.541l3.256,9.137L82.377,53.843z"/>
	<path fill-rule="evenodd" clip-rule="evenodd" fill="#0080BD" d="M106.352,2.635L106.352,2.635l-8.871,0.018
		c7.438,7.437,19.984,25.339,20.861,47.354h-17.199C100.25,23.82,78.758,2.635,52.368,2.635c-26.963,0-48.82,21.856-48.82,48.821
		c0,22.439,9.685,41.227,18.515,50.055l8.872-0.012c-7.504-7.502-20.205-25.654-20.88-47.939h17.201
		c0.598,26.453,22.205,47.951,48.791,47.951c26.961,0,48.82-21.855,48.82-48.816C124.868,30.25,115.18,11.469,106.352,2.635
		 M95.186,50.007L95.186,50.007h-9.109c0-0.09,0.004-0.17,0.004-0.256c0-5.346-1.273-10.387-3.516-14.86h9.209
		C93.782,39.56,94.975,44.657,95.186,50.007z M90.631,32.472L90.631,32.472c-3.477-6.857-8.764-12.636-15.221-16.734
		c-2.02,1.867-4.262,3.49-6.693,4.814c5.148,2.803,9.473,6.928,12.514,11.92H90.631z M54.615,24.533L54.615,24.533
		c3.655-0.196,7.155-0.983,10.407-2.263c5.021,2.215,9.314,5.77,12.453,10.201h-22.86V24.533z M72.641,14.126L72.641,14.126
		c-4.883,4.246-11.144,6.945-18.026,7.334V9.162C61.114,9.458,67.221,11.233,72.641,14.126z M52.193,21.492L52.193,21.492V9.121
		c-6.94,0.07-13.469,1.813-19.233,4.822C38.105,18.498,44.819,21.317,52.193,21.492z M52.193,24.571L52.193,24.571
		c-4.038-0.082-7.899-0.881-11.458-2.273c-5.002,2.215-9.271,5.76-12.395,10.174h23.853V24.571z M30.099,15.565L30.099,15.565
		c2.062,1.942,4.367,3.624,6.872,4.988c-5.144,2.805-9.469,6.926-12.52,11.918h-9.833C18.147,25.522,23.522,19.675,30.099,15.565z
		 M23.118,34.891L23.118,34.891c-2.241,4.473-3.515,9.514-3.515,14.86c0,0.467,0.036,0.926,0.054,1.387h-9.621
		c0.079-5.764,1.292-11.248,3.442-16.247H23.118z M33.213,53.56L33.213,53.56h8.837c-0.003,0.137-0.015,0.27-0.015,0.4
		c0,5.395,1.291,10.475,3.567,14.975h-9.105C34.504,64.187,33.357,59.003,33.213,53.56z M37.616,71.356L37.616,71.356
		c3.396,6.838,8.579,12.625,14.93,16.771c2.057-1.93,4.359-3.604,6.857-4.963c-5.11-2.785-9.401-6.875-12.447-11.809H37.616z
		 M74.1,94.995L74.1,94.995c-6.777-0.266-13.136-2.125-18.739-5.195c5.025-4.465,11.552-7.273,18.739-7.564V94.995z M74.1,79.159
		L74.1,79.159c-3.854,0.137-7.531,0.926-10.939,2.26c-4.959-2.197-9.193-5.703-12.313-10.063H74.1V79.159z M49.27,68.935
		L49.27,68.935h52.131c2.563-4.428,4.033-9.557,4.033-15.037v-1.469H82.989v-2.422h0.018v-0.189c0-5.432-1.445-10.527-3.963-14.926
		H26.772c-2.523,4.399-3.967,9.495-3.967,14.926c0,0.445,0.038,0.881,0.058,1.32h22.488v0.184h-0.006
		c-0.072,0.846-0.11,1.713-0.11,2.576C45.235,59.378,46.709,64.507,49.27,68.935z M99.827,71.356L99.827,71.356H76.518v7.807
		c3.848,0.143,7.523,0.938,10.932,2.283C92.432,79.247,96.694,75.735,99.827,71.356z M76.518,95.022L76.518,95.022
		c6.91-0.117,13.402-1.896,19.135-4.918c-5.084-4.656-11.768-7.582-19.135-7.869V95.022z M98.407,88.517L98.407,88.517
		c-2.158-2.092-4.594-3.898-7.258-5.352c5.107-2.783,9.4-6.871,12.445-11.809h10.367C110.456,78.417,105.043,84.353,98.407,88.517z
		 M115.077,68.935h-10.135c2.275-4.5,3.564-9.586,3.564-14.975v-1.531h9.887v0.006C118.393,58.288,117.211,63.856,115.077,68.935z"
		/>
	<path fill-rule="evenodd" clip-rule="evenodd" fill="#0080BD" d="M82.377,53.843L78.34,42.489l-1.109,0.01l-0.004-0.027h-1.879
		v-0.408c0.896-0.289,1.551-1.127,1.551-2.125c0-1.238-1.01-2.249-2.246-2.249c-1.242,0-2.244,1.01-2.244,2.249
		c0,0.99,0.643,1.822,1.531,2.117v0.416h-1.424v0.027l-1.129-0.01L67.35,53.245h0.004v-0.014h-1.605v-0.664
		c0.743-0.217,1.289-0.898,1.289-1.709c0-0.98-0.803-1.783-1.784-1.783c-0.989,0-1.79,0.803-1.79,1.783
		c0,0.826,0.561,1.508,1.319,1.715v0.658h-1.675v-0.006L59.12,42.489v-0.006h-3.247v-0.498c1.042-0.318,1.802-1.281,1.802-2.426
		c0-1.406-1.139-2.549-2.55-2.549s-2.55,1.143-2.55,2.549c0,1.178,0.805,2.162,1.889,2.453v0.471h-3.267v0.006h-0.022l-4.03,11.354
		l1.817,0.002l2.577-7.229h0.201l0.349,8.705h0.014l-2.588,11.137l2.125-0.004l2.741-11.133h1.492l2.741,11.133l2.126,0.004
		l-2.585-11.137h0.004l0.42-8.705h0.184l3.174,8.725h1.172v5.498h0.01v5.623h1.387v-5.623h1.463v5.623h1.387v-5.623v-0.211v-5.287
		h1.08l3.982-10.6l-0.328,7.461l-2.285,14.252h9.604l-1.852-14.205l-0.252-7.541l3.256,9.137L82.377,53.843z"/>
	<path fill-rule="evenodd" clip-rule="evenodd" fill="#0080BD" d="M113.042,125.185L113.042,125.185
		c0.131-0.213,0.301-0.373,0.516-0.48c0.213-0.105,0.449-0.158,0.709-0.158c0.258,0,0.518,0.115,0.777,0.348s0.391,0.6,0.391,1.104
		v17.309c0,0.387-0.176,0.58-0.529,0.58h-1.084v-16.9l-6.621,10.018c-0.352,0.445-0.732,0.668-1.141,0.668s-0.77-0.223-1.084-0.668
		l-6.648-10.018v16.32c0,0.387-0.186,0.58-0.557,0.58h-1.057v-17.859c0-0.523,0.125-0.9,0.375-1.133s0.506-0.348,0.764-0.348
		c0.262,0,0.498,0.053,0.711,0.158c0.213,0.107,0.385,0.268,0.514,0.48l6.982,10.715L113.042,125.185z M93.069,143.886
		L93.069,143.886h-1.613v-18.76c0-0.387,0.186-0.58,0.557-0.58h1.057V143.886z M80.329,142.521L80.329,142.521
		c1.242,0,2.252-0.191,3.031-0.58c0.779-0.387,1.383-0.953,1.809-1.699c0.426-0.744,0.713-1.641,0.861-2.686
		s0.223-2.168,0.223-3.369c0-1.084-0.064-2.119-0.193-3.107c-0.131-0.986-0.404-1.863-0.82-2.629
		c-0.418-0.764-1.021-1.379-1.809-1.844c-0.789-0.463-1.832-0.697-3.131-0.697c-1.26,0-2.279,0.219-3.059,0.654
		s-1.383,1.025-1.809,1.771s-0.719,1.617-0.877,2.613c-0.156,0.998-0.236,2.076-0.236,3.238c0,1.064,0.07,2.105,0.209,3.121
		c0.139,1.018,0.422,1.918,0.848,2.701c0.428,0.785,1.035,1.4,1.822,1.846C77.987,142.3,79.03,142.521,80.329,142.521z
		 M80.299,124.284L80.299,124.284c1.615-0.039,2.912,0.203,3.895,0.727c0.984,0.521,1.748,1.244,2.297,2.162
		c0.545,0.92,0.912,1.984,1.098,3.195c0.186,1.209,0.279,2.482,0.279,3.818s-0.104,2.609-0.307,3.818
		c-0.205,1.211-0.58,2.271-1.127,3.182c-0.547,0.908-1.313,1.631-2.295,2.162c-0.982,0.533-2.254,0.799-3.811,0.799
		c-1.613,0-2.916-0.262-3.908-0.783c-0.992-0.523-1.762-1.234-2.311-2.135c-0.547-0.9-0.916-1.955-1.111-3.166
		c-0.195-1.209-0.293-2.502-0.293-3.877c0-1.336,0.107-2.604,0.32-3.805c0.213-1.199,0.598-2.256,1.154-3.164
		c0.557-0.91,1.326-1.633,2.309-2.164C77.471,124.521,78.743,124.265,80.299,124.284z M52.789,125.185L52.789,125.185
		c0.13-0.213,0.302-0.373,0.515-0.48c0.213-0.105,0.45-0.158,0.709-0.158c0.261,0,0.52,0.115,0.779,0.348s0.39,0.6,0.39,1.104
		v17.309c0,0.387-0.177,0.58-0.528,0.58h-1.086v-16.9l-6.619,10.018c-0.354,0.445-0.732,0.668-1.141,0.668s-0.77-0.223-1.086-0.668
		l-6.648-10.018v16.32c0,0.387-0.185,0.58-0.556,0.58h-1.058v-17.859c0-0.523,0.126-0.9,0.376-1.133
		c0.251-0.232,0.506-0.348,0.765-0.348c0.26,0,0.496,0.053,0.71,0.158c0.214,0.107,0.385,0.268,0.515,0.48l6.982,10.715
		L52.789,125.185z M25.917,142.521L25.917,142.521c1.243,0,2.253-0.191,3.032-0.58c0.779-0.387,1.381-0.953,1.809-1.699
		c0.426-0.744,0.713-1.641,0.861-2.686s0.223-2.168,0.223-3.369c0-1.084-0.064-2.119-0.194-3.107
		c-0.13-0.986-0.403-1.863-0.821-2.629c-0.417-0.764-1.02-1.379-1.808-1.844c-0.788-0.463-1.831-0.697-3.13-0.697
		c-1.261,0-2.281,0.219-3.06,0.654s-1.382,1.025-1.808,1.771c-0.428,0.746-0.719,1.617-0.877,2.613
		c-0.158,0.998-0.236,2.076-0.236,3.238c0,1.064,0.069,2.105,0.209,3.121c0.139,1.018,0.422,1.918,0.848,2.701
		c0.428,0.785,1.034,1.4,1.822,1.846S24.62,142.521,25.917,142.521z M25.889,124.284L25.889,124.284
		c1.613-0.039,2.912,0.203,3.895,0.727c0.983,0.521,1.748,1.244,2.295,2.162c0.547,0.92,0.914,1.984,1.1,3.195
		c0.185,1.209,0.277,2.482,0.277,3.818s-0.102,2.609-0.307,3.818c-0.203,1.211-0.578,2.271-1.126,3.182
		c-0.547,0.908-1.312,1.631-2.294,2.162c-0.983,0.533-2.254,0.799-3.812,0.799c-1.614,0-2.917-0.262-3.908-0.783
		c-0.993-0.523-1.763-1.234-2.31-2.135s-0.918-1.955-1.112-3.166c-0.194-1.209-0.292-2.502-0.292-3.877
		c0-1.336,0.106-2.604,0.32-3.805c0.213-1.199,0.598-2.256,1.154-3.164c0.556-0.91,1.326-1.633,2.309-2.164
		C23.061,124.521,24.332,124.265,25.889,124.284z M14.595,143.886h-1.613v-18.76c0-0.387,0.186-0.58,0.557-0.58h1.057V143.886z"/>
	<path fill-rule="evenodd" clip-rule="evenodd" fill="#0080BD" d="M64.208,131.091c1.716,0,3.105,1.391,3.105,3.105
		s-1.39,3.105-3.105,3.105c-1.715,0-3.105-1.391-3.105-3.105S62.493,131.091,64.208,131.091"/>
</g>
<g>
</g>
<g>
</g>
<g>
</g>
<g>
</g>
<g>
</g>
<g>
</g>
<g>
</g>
<g>
</g>
<g>
</g>
<g>
</g>
<g>
</g>
<g>
</g>
<g>
</g>
<g>
</g>
<g>
</g>
</svg>
