<?xml version="1.0" encoding="utf-8"?>
<!-- Generator: Adobe Illustrator 16.0.0, SVG Export Plug-In . SVG Version: 6.00 Build 0)  -->
<!DOCTYPE svg PUBLIC "-//W3C//DTD SVG 1.1//EN" "http://www.w3.org/Graphics/SVG/1.1/DTD/svg11.dtd">
<svg version="1.1" id="Layer_1" xmlns="http://www.w3.org/2000/svg" xmlns:xlink="http://www.w3.org/1999/xlink" x="0px" y="0px"
	 width="164.035px" height="121.271px" viewBox="0 0 164.035 121.271" enable-background="new 0 0 164.035 121.271"
	 xml:space="preserve">
<g>
	<path fill="#006BB4" d="M142.072,81.388c0,3.091-2.504,5.6-5.596,5.6H27.398c-3.091,0-5.597-2.509-5.597-5.6c0,0,0-54.711,0-72.948
		c0-3.091,2.506-5.599,5.597-5.599c27.27,0,109.078,0,109.078,0c3.092,0,5.596,2.507,5.596,5.599V81.388z"/>
	<g>
		<defs>
			<path id="SVGID_1_" d="M142.072,81.388c0,3.091-2.504,5.6-5.596,5.6H27.398c-3.091,0-5.597-2.509-5.597-5.6
				c0,0,0-54.711,0-72.948c0-3.091,2.506-5.599,5.597-5.599c27.27,0,109.078,0,109.078,0c3.092,0,5.596,2.507,5.596,5.599V81.388z"
				/>
		</defs>
		<clipPath id="SVGID_2_">
			<use xlink:href="#SVGID_1_"  overflow="visible"/>
		</clipPath>
		
			<rect x="-16.564" y="-6.973" clip-path="url(#SVGID_2_)" fill-rule="evenodd" clip-rule="evenodd" fill="#EC1C24" width="197.002" height="33.009"/>
		
			<rect x="-16.564" y="63.792" clip-path="url(#SVGID_2_)" fill-rule="evenodd" clip-rule="evenodd" fill="#00A551" width="197.002" height="33.01"/>
		
			<rect x="-16.564" y="25.941" clip-path="url(#SVGID_2_)" fill-rule="evenodd" clip-rule="evenodd" fill="#231F20" width="197.002" height="37.98"/>
		<path clip-path="url(#SVGID_2_)" fill-rule="evenodd" clip-rule="evenodd" fill="#FFFFFF" d="M81.937,31.5
			c3.682,0,7.018,1.483,9.444,3.882c-1.907-1.351-4.236-2.145-6.751-2.145c-6.459,0-11.694,5.236-11.694,11.694
			s5.235,11.693,11.694,11.693c2.515,0,4.844-0.794,6.752-2.145c-2.428,2.4-5.764,3.883-9.445,3.883
			c-7.418,0-13.432-6.014-13.432-13.432S74.519,31.5,81.937,31.5"/>
		<polygon clip-path="url(#SVGID_2_)" fill-rule="evenodd" clip-rule="evenodd" fill="#FFFFFF" points="92.32,38.017 94.88,42.694 
			100.116,41.685 96.458,45.565 99.036,50.232 94.215,47.953 90.572,51.847 91.251,46.558 86.421,44.297 91.662,43.308 		"/>
	</g>
	<path fill="#231F20" d="M159.917,112.587c0,0.165-0.018,0.329-0.055,0.477c-0.184,0.568-0.752,1.026-1.448,1.026
		c-0.624,0-1.101-0.349-1.101-1.063c0-1.082,1.137-1.43,2.604-1.411V112.587z M162.759,115.85c-0.092-0.495-0.128-1.32-0.128-2.182
		v-3.116c0-2.108-0.954-3.869-3.942-3.869c-1.631,0-2.859,0.44-3.482,0.789l0.513,1.796c0.587-0.366,1.559-0.678,2.476-0.678
		c1.375,0,1.631,0.678,1.631,1.155v0.128c-3.171-0.019-5.262,1.1-5.262,3.429c0,1.43,1.082,2.75,2.896,2.75
		c1.064,0,1.98-0.386,2.567-1.101h0.056l0.164,0.898H162.759z M144.683,106.885l3.281,8.195c0.109,0.22,0.129,0.366,0.129,0.458
		c0,0.128-0.055,0.275-0.147,0.403c-0.274,0.458-0.733,0.898-1.155,1.118c-0.422,0.257-0.861,0.422-1.209,0.477l0.586,2.365
		c0.697-0.092,1.724-0.385,2.695-1.229c1.008-0.898,1.87-2.328,3.153-5.885l2.091-5.903h-2.989l-1.1,4.4
		c-0.128,0.513-0.275,1.191-0.403,1.668h-0.055c-0.111-0.477-0.294-1.137-0.44-1.668l-1.339-4.4H144.683z M137.679,110.717
		c0-0.184,0.019-0.349,0.055-0.514c0.184-0.807,0.881-1.375,1.633-1.375c1.301,0,1.924,1.1,1.924,2.493
		c0,1.613-0.732,2.53-1.924,2.53c-0.807,0-1.449-0.568-1.633-1.32c-0.036-0.146-0.055-0.312-0.055-0.495V110.717z M137.185,115.85
		l0.109-1.246h0.037c0.641,1.063,1.649,1.448,2.695,1.448c2.053,0,4.105-1.613,4.105-4.84c0.02-2.75-1.559-4.529-3.703-4.529
		c-1.246,0-2.182,0.495-2.713,1.266h-0.037v-5.115h-2.787v10.34c0,1.009-0.036,2.09-0.072,2.677H137.185z M131.263,102.979
		c-0.898,0-1.485,0.605-1.467,1.412c-0.019,0.77,0.568,1.394,1.448,1.394c0.917,0,1.503-0.624,1.503-1.394
		C132.73,103.585,132.162,102.979,131.263,102.979z M132.656,115.85v-8.965h-2.786v8.965H132.656z M120.593,115.85h7.718v-2.347
		h-4.913v-10.01h-2.805V115.85z M113.663,115.85v-6.911h1.778v-2.054h-1.797v-0.458c0-0.88,0.385-1.596,1.302-1.596
		c0.366,0,0.66,0.056,0.898,0.129l0.11-2.146c-0.385-0.109-0.861-0.183-1.485-0.183c-0.807,0-1.778,0.238-2.475,0.898
		c-0.807,0.733-1.137,1.925-1.137,3.006v0.349h-1.174v2.054h1.174v6.911H113.663z M102.681,105.51c1.926,0,2.988,1.906,2.988,4.125
		c0,2.401-1.082,4.198-2.971,4.198c-1.869,0-3.006-1.705-3.006-4.125C99.693,107.307,100.792,105.51,102.681,105.51z
		 M102.754,103.291c-3.648,0-6.013,2.769-6.013,6.473c0,3.52,2.145,6.288,5.811,6.288c3.612,0,6.068-2.457,6.068-6.509
		C108.621,106.133,106.549,103.291,102.754,103.291z M87.171,104.941v1.943h-1.192v2.054h1.192v3.666
		c0,1.266,0.256,2.127,0.77,2.658c0.439,0.459,1.191,0.771,2.09,0.771c0.789,0,1.449-0.092,1.815-0.238l-0.019-2.108
		c-0.201,0.037-0.477,0.073-0.824,0.073c-0.844,0-1.101-0.495-1.101-1.576v-3.245h1.998v-2.054h-1.998v-2.566L87.171,104.941z
		 M76.153,115.85h2.786v-5.17c0-0.257,0.037-0.531,0.11-0.696c0.184-0.514,0.642-1.045,1.411-1.045c1.009,0,1.412,0.788,1.412,1.943
		v4.968h2.787v-5.316c0-2.64-1.375-3.851-3.209-3.851c-1.484,0-2.401,0.862-2.768,1.431h-0.056l-0.128-1.229h-2.42
		c0.037,0.788,0.073,1.742,0.073,2.86V115.85z M68.599,110.35c0.073-0.752,0.551-1.814,1.724-1.814c1.283,0,1.577,1.137,1.577,1.814
		H68.599z M74.392,112.257c0.037-0.202,0.092-0.624,0.092-1.101c0-2.218-1.1-4.474-3.996-4.474c-3.117,0-4.528,2.513-4.528,4.785
		c0,2.806,1.741,4.565,4.784,4.565c1.211,0,2.329-0.184,3.246-0.55l-0.367-1.889c-0.752,0.238-1.521,0.366-2.475,0.366
		c-1.302,0-2.438-0.55-2.53-1.704H74.392z M50.707,115.85h2.713v-5.225c0-0.221,0.019-0.477,0.109-0.697
		c0.166-0.458,0.588-1.008,1.303-1.008c0.879,0,1.283,0.77,1.283,1.906v5.023h2.713v-5.243c0-0.22,0.037-0.514,0.11-0.715
		c0.183-0.531,0.642-0.972,1.283-0.972c0.897,0,1.319,0.752,1.319,2.053v4.877h2.714v-5.28c0-2.676-1.302-3.887-3.024-3.887
		c-0.66,0-1.211,0.147-1.705,0.44c-0.422,0.257-0.826,0.623-1.155,1.082h-0.037c-0.385-0.936-1.302-1.522-2.456-1.522
		c-1.541,0-2.328,0.844-2.714,1.412h-0.055l-0.128-1.21h-2.348c0.037,0.788,0.074,1.742,0.074,2.86V115.85z M43.74,115.85h2.786
		v-4.547c0-0.22,0.019-0.439,0.056-0.623c0.184-0.861,0.879-1.412,1.906-1.412c0.312,0,0.551,0.037,0.752,0.074v-2.622
		c-0.201-0.037-0.33-0.037-0.588-0.037c-0.861,0-1.961,0.551-2.42,1.853H46.16l-0.092-1.65h-2.402
		c0.037,0.77,0.074,1.632,0.074,2.951V115.85z M36.186,110.35c0.073-0.752,0.55-1.814,1.723-1.814c1.284,0,1.577,1.137,1.577,1.814
		H36.186z M41.98,112.257c0.036-0.202,0.092-0.624,0.092-1.101c0-2.218-1.101-4.474-3.998-4.474c-3.117,0-4.528,2.513-4.528,4.785
		c0,2.806,1.742,4.565,4.785,4.565c1.209,0,2.329-0.184,3.245-0.55l-0.366-1.889c-0.752,0.238-1.521,0.366-2.475,0.366
		c-1.302,0-2.438-0.55-2.53-1.704H41.98z M23.665,106.885l3.263,8.965h2.787l3.336-8.965h-2.933l-1.155,4.162
		c-0.201,0.77-0.348,1.448-0.495,2.181h-0.055c-0.128-0.715-0.293-1.43-0.513-2.181l-1.21-4.162H23.665z M18.403,108.663
		c1.265,0,1.778,1.356,1.778,2.695c0,1.613-0.697,2.694-1.778,2.694c-1.192,0-1.833-1.154-1.833-2.694
		C16.569,110.038,17.064,108.663,18.403,108.663z M18.476,106.683c-2.878,0-4.785,1.853-4.785,4.749s2.017,4.62,4.638,4.62
		c2.402,0,4.73-1.504,4.73-4.785C23.06,108.571,21.226,106.683,18.476,106.683z M12.004,108.773H7.403v2.182H9.31v2.585
		c-0.22,0.109-0.733,0.184-1.375,0.184c-2.292,0-3.887-1.504-3.887-4.052c0-2.677,1.76-3.997,4.088-3.997
		c1.356,0,2.2,0.238,2.878,0.531l0.586-2.236c-0.605-0.293-1.833-0.604-3.428-0.604c-4.052,0-7.041,2.346-7.059,6.453
		c-0.018,1.814,0.605,3.428,1.742,4.491c1.137,1.101,2.769,1.669,5.023,1.669c1.631,0,3.263-0.403,4.125-0.697V108.773z"/>
</g>
<g>
</g>
<g>
</g>
<g>
</g>
<g>
</g>
<g>
</g>
<g>
</g>
<g>
</g>
<g>
</g>
<g>
</g>
<g>
</g>
<g>
</g>
<g>
</g>
<g>
</g>
<g>
</g>
<g>
</g>
</svg>
