<?xml version="1.0" encoding="utf-8"?>
<!-- Generator: Adobe Illustrator 16.0.0, SVG Export Plug-In . SVG Version: 6.00 Build 0)  -->
<!DOCTYPE svg PUBLIC "-//W3C//DTD SVG 1.1//EN" "http://www.w3.org/Graphics/SVG/1.1/DTD/svg11.dtd">
<svg version="1.1" id="Layer_1" xmlns="http://www.w3.org/2000/svg" xmlns:xlink="http://www.w3.org/1999/xlink" x="0px" y="0px"
	 width="432px" height="137px" viewBox="33.167 142.833 432 137" enable-background="new 33.167 142.833 432 137"
	 xml:space="preserve">
<g id="XMLID_2_">
	<path id="XMLID_8_" fill="#339645" d="M274.369,166.233c0.819-6.599-3.869-12.601-10.47-13.416
		c-6.594-0.81-12.596,3.876-13.412,10.472c-0.812,6.596,3.875,12.602,10.474,13.414C267.556,177.516,273.558,172.83,274.369,166.233
		z"/>
	<path id="XMLID_7_" fill="#339645" d="M231.576,159.695c0-6.953-5.632-12.588-12.584-12.588c-6.958,0-12.594,5.635-12.594,12.588
		s5.636,12.586,12.594,12.586C225.944,172.281,231.576,166.646,231.576,159.695z"/>
	<path id="XMLID_3_" fill="#339645" d="M192.049,201.989c0.705,0.314,1.45,0.466,2.187,0.466c1.572,0,3.116-0.69,4.163-1.972
		l5.335-6.502c0,35.206-0.018,25.55-0.018,75.742c0,3.567,2.892,6.46,6.46,6.46c3.566,0,6.46-2.893,6.46-6.46v-38.498h4.709v38.498
		c0,3.567,2.894,6.46,6.46,6.46c3.564,0,6.461-2.893,6.461-6.46c0-67.492,0-68.274,0-69.188c0.873,1.321,3.075,2.907,4.662,3.088
		l3.41,0.387l-2.816,19.849c-0.276,0.922-0.369,1.91-0.176,2.923l4.075,21.374l-4.069,20.66c-0.658,3.347,1.521,6.595,4.865,7.252
		c3.331,0.66,6.592-1.504,7.256-4.864l4.534-23.011l-3.584-18.772l4.487,1.469l3.218,18.535l-3.917,19.361
		c-0.676,3.342,1.486,6.603,4.829,7.276c3.319,0.676,6.597-1.465,7.276-4.827l4.379-21.639l-3.506-20.188
		c2.029-16.431,1.429-11.527,2.709-21.986l5.988,18.98c0.859,2.713,3.744,4.217,6.457,3.361c2.713-0.857,4.215-3.745,3.361-6.455
		l-12.432-39.41c-0.75-2.363-2.238-2.99-5.418-3.473c-0.018-0.002-18.422-2.279-18.422-2.279c-0.009-0.002-0.016,0.001-0.023,0.001
		c-1.441-0.235-3.51-0.11-4.493,0.106l-12.667,2.84v-0.758c0-0.967-0.309-1.832-0.736-2.629c-0.951-1.763-2.75-3.004-4.891-3.004
		h-15.192c-1.295-0.6-9.263-4.347-10.616-4.793c-0.732-1.599-2.141-2.853-4.008-3.136c-2.914-0.455-5.682,1.575-6.129,4.521
		l-3.768,24.972C188.548,198.662,189.836,201.003,192.049,201.989z M241.051,190.121l3.441-0.773l-0.526,3.674l-0.048,0.332
		l-1.073-0.121L241.051,190.121z M199.793,185.145l1.207-5.17l2.054,1.069L199.793,185.145z"/>
</g>
<g>
	<g id="icons_21_">
		<g>
			<path fill="#339645" d="M456.623,260.173c-2.998-5.309-7.434-14.948-7.434-18.789c0-7.178,0.5-16.104,0.739-21.25
				c0.242-5.147-3.252-17.801-6.442-31.573c-2.293-9.892-14.845-5.425-18.295-2.974c-2.435,1.729-7.261,6.646-16.786,9.996v-5.955
				c0-1.11-0.899-2.012-2.01-2.012h-16.81h-16.812c-1.108,0-2.01,0.9-2.01,2.012v5.955c-9.527-3.351-14.352-8.268-16.785-9.996
				c-3.453-2.451-16.004-6.918-18.295,2.974c-3.19,13.772-6.685,26.426-6.443,31.573c0.24,5.146,0.74,14.072,0.74,21.25
				c0,3.841-4.437,13.48-7.435,18.789c-1.68,2.971-0.635,6.738,2.334,8.418c2.968,1.68,6.737,0.635,8.416-2.334
				c1.509-2.668,9.035-16.397,9.035-24.873c0-2.047,0.017-4.531,0.038-7.036c0-1.474,0.908-1.308,1.326-0.82
				c8.687,10.091,10.312,21.087,10.606,30.834c0.103,3.345,2.845,5.988,6.171,5.988c0.063,0,0.125,0,0.189-0.002
				c3.41-0.104,6.09-2.951,5.986-6.361c-0.347-11.391-2.534-27.563-16.488-41.633c-0.289-0.291-0.791-1.274-0.5-2.592
				c0.25-1.125,4.281-19.459,4.545-20.497c0.263-1.038,1.127-0.495,1.602-0.167c4.123,2.842,10.139,5.429,14.957,6.478v17.379
				c0,1.11,0.9,2.012,2.012,2.012h16.81h16.81c1.11,0,2.012-0.9,2.012-2.012v-17.379c4.814-1.049,10.832-3.636,14.954-6.478
				c0.477-0.328,1.34-0.871,1.604,0.167s4.295,19.372,4.545,20.497c0.291,1.315-0.211,2.301-0.5,2.592
				c-13.954,14.069-16.143,30.241-16.487,41.633c-0.104,3.41,2.576,6.257,5.985,6.361c0.063,0.002,0.127,0.002,0.188,0.002
				c3.324,0,6.068-2.644,6.171-5.988c0.295-9.747,1.922-20.743,10.606-30.834c0.418-0.485,1.326-0.651,1.326,0.82
				c0.023,2.506,0.039,4.989,0.039,7.036c0,8.476,7.525,22.205,9.035,24.873c1.68,2.969,5.447,4.014,8.416,2.334
				C457.258,266.912,458.303,263.144,456.623,260.173z"/>
			<circle fill="#339645" cx="424.709" cy="169.929" r="11.858"/>
			<circle fill="#339645" cx="354.465" cy="169.929" r="11.858"/>
		</g>
	</g>
</g>
<g>
	<g id="icons_1_">
		<g>
			<path fill="#339645" d="M139.453,165.277c0-6.566-5.323-11.891-11.89-11.891c-6.568,0-11.891,5.324-11.891,11.891
				s5.323,11.891,11.891,11.891C134.129,177.167,139.453,171.843,139.453,165.277z"/>
			<path fill="#339645" d="M62.772,209.535c0-6.02-4.876-10.896-10.895-10.896s-10.896,4.877-10.896,10.896
				s4.877,10.896,10.896,10.896S62.772,215.553,62.772,209.535z"/>
			<path fill="#339645" d="M121.604,218.373c0.061-0.045,8.109-7.529,14.101-13.477c0.485-0.48,1.565-0.952,2.263,0.887
				c2.049,5.415,4.617,12.979,5.856,16.68c0.46,1.375,0.755,2.591,0.755,4.597c0,2.005,0.18,27.133,0.18,36.664
				c0,8.067,12.517,8.067,12.517,0c0-10.892,0-42.806,0-46.07c0-3.264-0.653-5.544-0.98-6.534
				c-3.89-11.795-7.683-21.744-10.409-29.734c-2.245-6.582-9.058-4.375-12.264-2.487c-3.208,1.89-3.456,5.336-2.576,7.872
				c0.535,1.536,0.259,0.604,1.072,2.896c0.568,1.604,0.17,2.156-0.276,2.771c-4.124,5.671-16.904,17.519-16.991,17.589
				c-0.001,0.002-0.003,0.004-0.005,0.005c-0.003,0.003-0.005,0.007-0.009,0.009c-1.544,1.455-2.048,2.629-2.048,4.393
				c0,3.167,2.238,5.066,5.405,5.066c1.272,0,2.448-0.414,3.399-1.115l0,0C121.599,218.378,121.602,218.376,121.604,218.373z"/>
			<path fill="#339645" d="M114.838,210.037c0.003-0.002,0.005-0.006,0.009-0.009C116.376,208.587,114.838,210.037,114.838,210.037z
				"/>
			<path fill="#339645" d="M43.02,269.033c0.956,0.649,2.041,0.961,3.115,0.961c1.771,0,3.511-0.849,4.586-2.423
				c0.28-0.415,5.016-7.491,8.239-19.911c0.254-0.393,0.711-0.449,1.706,0.906c1.521,2.069,6.271,10.9,9.019,16.538
				c1.894,3.882,5.431,5.106,9.512,5.106c4.081,0,31.345,0.133,42.433,0.203c7.394,0.045,7.461-11.424,0.067-11.467
				c-0.938-0.01-1.951-0.015-3.011-0.019c-0.011-0.927-0.268-1.908-0.916-2.908c-4.845-7.456-10.351-17.806-18.147-22.479
				c-5.612-3.371-10.391,2.193-13.081,6.502c-1.034,1.656-2.014,3.351-2.967,5.059c-0.408,0.729-1.04,2.242-2.231,0.359
				c-1.051-1.662-5.25-8.631-6.268-10.223c-1.017-1.591,0.496-1.645,1.211-1.771c9.277-1.67,16.981-3.985,25.46-8.514
				c0.635-0.338,1.112-0.682,1.46-1.027c1.161-1.051,1.891-2.567,1.891-4.256c0-3.166-2.567-5.734-5.735-5.734
				c-0.999,0-1.937,0.255-2.755,0.705l0,0c-9.147,4.879-28.211,9.208-30.524,8.673c-12.471-2.882-15.779,5.604-15.779,8.513
				c0,17.389-8.665,29.387-8.745,29.506C39.837,263.862,40.491,267.31,43.02,269.033z M89.973,257.246
				c1.444-2.658,2.87-5.33,4.388-7.947c0.377-0.646,0.751-1.344,1.145-2.045c0.25-0.445,0.88-1.535,2.167,0.408
				c0.988,1.489,4.706,5.916,6.961,9.256c0.437,0.647,1.079,1.94-0.546,1.94c-1.626,0-11.729-0.058-13.426-0.058
				C88.965,258.8,89.692,257.763,89.973,257.246z"/>
		</g>
	</g>
</g>
</svg>
