<svg xmlns="http://www.w3.org/2000/svg" viewBox="0 0 508.568 508.568"><path d="M336.803 236.647l-16.969-16.969c-3.125-3.125-8.188-3.125-11.312 0l-32 32c-3.125 3.125-3.125 8.188 0 11.313l16.969 16.969c3.117 3.117 7.219 4.68 11.313 4.68 4.102 0 8.203-1.563 11.32-4.68l20.672-20.68c3.023-3.016 4.695-7.031 4.695-11.305-.001-4.282-1.665-8.305-4.688-11.328z" fill="#5C546A"/><path d="M304.6 181.053c-2.742-.656-5.594.141-7.563 2.117l-56.633 56.633c-1.969 1.961-2.773 4.805-2.125 7.508.641 2.703 2.641 4.883 5.281 5.75l38.617 15.586 43.312-43.312-15.164-38.906c-.842-2.673-3.014-4.704-5.725-5.376z" fill="#868491"/><path d="M243.561 253.061l38.617 15.586 21.5-21.5-35.309-35.309-27.965 27.965c-1.969 1.961-2.773 4.805-2.125 7.508.641 2.703 2.641 4.882 5.282 5.75zM157.079 77.962l-22.586 22.586c-.391.391-1.024.391-1.414 0L77.807 45.276c-.391-.391-.391-1.024 0-1.414l22.586-22.586c.391-.391 1.024-.391 1.414 0l55.272 55.272c.39.39.39 1.023 0 1.414zM344.162 412.568h-34.75c-4.422 0-8-3.578-8-8s3.578-8 8-8h34.75c4.211 0 8.336-1.711 11.313-4.688l18.625-18.625c3.125-3.125 8.188-3.125 11.313 0s3.125 8.188 0 11.313l-18.625 18.625c-5.954 5.961-14.204 9.375-22.626 9.375z" fill="#5C546A"/><path d="M184.634 212.566c-2.133 8.7-3.221 17.722-3.221 26.948 0 49.864 32.754 92.221 77.877 106.686l-13.839 45.972c-64.865-20.423-112.038-81.134-112.038-152.658 0-14.586 2.012-29.039 5.89-42.944l45.331 15.996z" fill="#868491"/><path d="M433.693 246.912l-22.625-22.625c-3.125-3.125-8.188-3.125-11.312 0L288.443 335.6c-2.453 2.453-3.047 6.211-1.469 9.297l15.313 29.938c1.164 2.281 3.352 3.867 5.883 4.266.414.063.828.094 1.242.094 2.102 0 4.148-.828 5.656-2.344l118.625-118.625c3.125-3.126 3.125-8.189 0-11.314z" fill="#5C546A"/><path d="M449.693 326.912l-22.625-22.625c-3.125-3.125-8.188-3.125-11.313 0l-54.625 54.625c-3.125 3.125-3.125 8.188 0 11.313l22.625 22.625c1.563 1.563 3.609 2.344 5.656 2.344s4.094-.781 5.656-2.344l54.625-54.625c3.126-3.125 3.126-8.188.001-11.313z" fill="#868491"/><path d="M277.412 332.568c-22.055 0-40 17.945-40 40v88c0 4.422 3.578 8 8 8 4.422 0 8-3.578 8-8h48c0 4.422 3.578 8 8 8 4.422 0 8-3.578 8-8v-88c0-22.054-17.945-40-40-40zM308.342 183.162L190.951 66.221c-9.352-9.336-24.57-9.355-33.938.004l-33.945 33.941c-4.531 4.535-7.031 10.563-7.031 16.973 0 6.41 2.5 12.437 7.031 16.969l12.688 12.684c3.125 3.125 8.187 3.125 11.311.001l52.128 52.126c-.007.007-.018.01-.025.017-3.109 3.133-3.094 8.203.047 11.313l41.211 40.891c1.555 1.547 3.594 2.32 5.633 2.32 2.047 0 4.094-.781 5.656-2.344l56.633-56.633c1.5-1.5 2.344-3.539 2.344-5.664s-.852-4.165-2.352-5.657z" fill="#B4B6BC"/><path d="M199.217 210.248l41.211 40.891c1.555 1.547 3.594 2.32 5.633 2.32 2.047 0 4.094-.781 5.656-2.344l27.965-27.965L139.884 83.353l-16.815 16.813c-4.531 4.535-7.031 10.563-7.031 16.973 0 6.41 2.5 12.437 7.031 16.969l12.688 12.684c3.125 3.125 8.187 3.125 11.311.001l52.128 52.126c-.007.007-.018.01-.025.017-3.11 3.132-3.095 8.203.046 11.312zM333.412 452.568h-112c-17.648 0-32 14.352-32 32v16c0 4.422 3.578 8 8 8h160c4.422 0 8-3.578 8-8v-16c0-17.648-14.351-32-32-32z" fill="#868491"/><circle cx="173.413" cy="172.568" r="48" fill="#5C546A"/><circle cx="173.413" cy="172.568" r="24" fill="#868491"/><circle cx="277.1" cy="372.568" r="16" fill="#5C546A"/><path d="M115.443 24.971L81.502 58.912c-3.124 3.124-8.19 3.124-11.314 0L58.874 47.598c-3.124-3.124-3.124-8.19 0-11.314L92.816 2.343c3.124-3.124 8.19-3.124 11.314 0l11.314 11.314c3.123 3.124 3.123 8.189-.001 11.314z" fill="#868491"/><g><path d="M75.845 19.314l-16.971 16.97c-3.124 3.124-3.124 8.189 0 11.313l11.314 11.314c3.124 3.124 8.189 3.124 11.313 0L98.472 41.94 75.845 19.314z" fill="#5C546A"/></g></svg>