<svg xmlns="http://www.w3.org/2000/svg" viewBox="0 0 58 58"><path d="M55.537 49.5H2.463C1.103 49.5 0 48.397 0 47.037V7.963C0 6.603 1.103 5.5 2.463 5.5h53.074C56.897 5.5 58 6.603 58 7.963v39.074c0 1.36-1.103 2.463-2.463 2.463z" fill="#3E465B"/><path fill="#556080" d="M4 9.5h50v34H4z"/><path d="M39.754 29.5l-3.792-13.274c-.123-.43-.516-.726-.962-.726-.447 0-.839.297-.962.726l-3.364 11.81-1.814-3.047c-.199-.335-.569-.522-.967-.482-.389.042-.718.307-.841.678l-2.119 6.355-3.999-10.398c-.152-.395-.539-.646-.956-.641-.422.01-.793.283-.926.684L16.279 29.5H4v2h13c.431 0 .812-.275.948-.684l2.119-6.355 3.999 10.398c.15.387.521.641.934.641h.022c.422-.01.793-.283.926-.684l2.31-6.929 1.883 3.162c.204.343.597.531.988.479.396-.051.724-.333.833-.717l3.039-10.668 3.037 10.63c.123.431.516.727.962.727h15v-2H39.754z" fill="#2BDA72"/><path fill="#363E4B" d="M4 49.5h6v3H4zM48 49.5h6v3h-6z"/><path d="M53 47.5h-1c-.553 0-1-.447-1-1s.447-1 1-1h1c.553 0 1 .447 1 1s-.447 1-1 1z" fill="#A4E869"/><path d="M49 47.5h-1c-.553 0-1-.447-1-1s.447-1 1-1h1c.553 0 1 .447 1 1s-.447 1-1 1z" fill="#48A0DC"/><path d="M45 47.5h-1c-.553 0-1-.447-1-1s.447-1 1-1h1c.553 0 1 .447 1 1s-.447 1-1 1z" fill="#DD352E"/></svg>