<svg xmlns="http://www.w3.org/2000/svg" viewBox="0 0 58 58"><path d="M38.475 14h-18.95c-.29 0-.525-.235-.525-.525v-2.95c0-.29.235-.525.525-.525h18.95c.29 0 .525.235.525.525v2.95c0 .29-.235.525-.525.525z" fill="#7FABDA"/><path d="M36 10H22V.498c0-.275.223-.498.498-.498h13.004c.275 0 .498.223.498.498V10z" fill="#6B5B4B"/><path d="M28 4c2.209 0 4-1.791 4-4h-8c0 2.209 1.791 4 4 4zM28.95 10c.023-.165.05-.329.05-.5C29 7.567 27.433 6 25.5 6S22 7.567 22 9.5c0 .171.027.335.05.5h6.9zM36 5.511C35.581 5.195 35.065 5 34.5 5 33.119 5 32 6.119 32 7.5s1.119 2.5 2.5 2.5c.565 0 1.081-.195 1.5-.511V5.511z" fill="#937A60"/><path d="M29 58c-3.866 0-7-3.134-7-7V14h14v37c0 3.866-3.134 7-7 7z" fill="#A1C8EC"/><path d="M29 58c-3.866 0-7-3.134-7-7V29h14v22c0 3.866-3.134 7-7 7z" fill="#B02721"/></svg>