<?xml version="1.0" encoding="utf-8"?>
<!-- Generator: Adobe Illustrator 16.0.0, SVG Export Plug-In . SVG Version: 6.00 Build 0)  -->
<!DOCTYPE svg PUBLIC "-//W3C//DTD SVG 1.1//EN" "http://www.w3.org/Graphics/SVG/1.1/DTD/svg11.dtd">
<svg version="1.1" id="Layer_1" xmlns="http://www.w3.org/2000/svg" xmlns:xlink="http://www.w3.org/1999/xlink" x="0px" y="0px"
	 width="191px" height="144px" viewBox="0 0 191 144" enable-background="new 0 0 191 144" xml:space="preserve">
<g>
	<path d="M27.713,105.566h-4.251v-1.534h10.347v1.534h-4.271v12.442h-1.825V105.566z"/>
	<path d="M44.387,112.907c0,3.712-2.572,5.33-4.998,5.33c-2.717,0-4.811-1.991-4.811-5.164c0-3.359,2.198-5.329,4.977-5.329
		C42.437,107.744,44.387,109.839,44.387,112.907z M36.424,113.012c0,2.197,1.265,3.856,3.048,3.856c1.742,0,3.048-1.638,3.048-3.898
		c0-1.7-0.85-3.857-3.007-3.857C37.357,109.112,36.424,111.104,36.424,113.012z"/>
	<path d="M46.689,110.688c0-1.036-0.021-1.887-0.083-2.716h1.597l0.083,1.617h0.063c0.56-0.954,1.493-1.846,3.152-1.846
		c1.369,0,2.405,0.829,2.841,2.012h0.042c0.311-0.561,0.705-0.996,1.12-1.307c0.602-0.456,1.265-0.705,2.219-0.705
		c1.327,0,3.297,0.871,3.297,4.354v5.91h-1.783v-5.682c0-1.929-0.705-3.09-2.177-3.09c-1.037,0-1.846,0.768-2.157,1.659
		c-0.083,0.248-0.145,0.58-0.145,0.912v6.2h-1.784v-6.014c0-1.597-0.705-2.758-2.094-2.758c-1.141,0-1.97,0.912-2.26,1.824
		c-0.104,0.271-0.145,0.581-0.145,0.893v6.055h-1.784V110.688z"/>
	<path d="M73.069,112.907c0,3.712-2.572,5.33-4.998,5.33c-2.717,0-4.811-1.991-4.811-5.164c0-3.359,2.198-5.329,4.977-5.329
		C71.119,107.744,73.069,109.839,73.069,112.907z M65.106,113.012c0,2.197,1.265,3.856,3.048,3.856c1.742,0,3.048-1.638,3.048-3.898
		c0-1.7-0.85-3.857-3.007-3.857C66.039,109.112,65.106,111.104,65.106,113.012z"/>
	<path d="M75.372,111.104c0-1.182-0.021-2.198-0.083-3.131h1.597l0.063,1.97h0.083c0.456-1.348,1.555-2.198,2.779-2.198
		c0.207,0,0.353,0.021,0.518,0.063v1.721c-0.187-0.041-0.373-0.063-0.622-0.063c-1.286,0-2.198,0.975-2.447,2.344
		c-0.042,0.249-0.083,0.539-0.083,0.851v5.35h-1.804V111.104z"/>
	<path d="M82.153,111.104c0-1.182-0.021-2.198-0.083-3.131h1.597l0.063,1.97h0.083c0.456-1.348,1.555-2.198,2.779-2.198
		c0.207,0,0.352,0.021,0.518,0.063v1.721c-0.187-0.041-0.373-0.063-0.622-0.063c-1.286,0-2.198,0.975-2.447,2.344
		c-0.042,0.249-0.083,0.539-0.083,0.851v5.35h-1.804V111.104z"/>
	<path d="M98.018,112.907c0,3.712-2.571,5.33-4.997,5.33c-2.717,0-4.811-1.991-4.811-5.164c0-3.359,2.198-5.329,4.977-5.329
		C96.068,107.744,98.018,109.839,98.018,112.907z M90.055,113.012c0,2.197,1.265,3.856,3.048,3.856c1.741,0,3.048-1.638,3.048-3.898
		c0-1.7-0.85-3.857-3.007-3.857C90.988,109.112,90.055,111.104,90.055,113.012z"/>
	<path d="M101.046,107.973l1.327,5.101c0.291,1.12,0.561,2.157,0.747,3.193h0.062c0.229-1.016,0.561-2.094,0.893-3.173l1.638-5.121
		h1.534l1.556,5.018c0.373,1.203,0.663,2.261,0.892,3.276h0.063c0.166-1.016,0.436-2.073,0.767-3.255l1.432-5.039h1.804
		l-3.235,10.036h-1.658l-1.535-4.79c-0.353-1.12-0.643-2.115-0.892-3.297h-0.041c-0.249,1.202-0.561,2.239-0.913,3.317l-1.617,4.77
		h-1.659l-3.027-10.036H101.046z"/>
	<path d="M117.887,103.804c-0.477,1.742-1.368,3.961-1.949,4.915l-1.161,0.146c0.456-1.224,0.995-3.381,1.224-4.873L117.887,103.804
		z"/>
	<path d="M119.629,116.143c0.539,0.353,1.493,0.726,2.405,0.726c1.327,0,1.95-0.663,1.95-1.493c0-0.871-0.519-1.348-1.867-1.846
		c-1.804-0.643-2.654-1.638-2.654-2.841c0-1.617,1.307-2.944,3.464-2.944c1.016,0,1.907,0.29,2.467,0.622l-0.456,1.327
		c-0.394-0.249-1.119-0.581-2.053-0.581c-1.078,0-1.68,0.622-1.68,1.369c0,0.829,0.602,1.203,1.908,1.7
		c1.741,0.664,2.633,1.534,2.633,3.027c0,1.763-1.368,3.007-3.753,3.007c-1.099,0-2.115-0.27-2.82-0.684L119.629,116.143z"/>
	<path d="M132.549,104.219c0.788-0.166,2.032-0.29,3.297-0.29c1.804,0,2.966,0.311,3.836,1.016c0.727,0.539,1.162,1.369,1.162,2.468
		c0,1.348-0.893,2.53-2.364,3.069v0.041c1.327,0.332,2.882,1.432,2.882,3.505c0,1.203-0.477,2.115-1.182,2.8
		c-0.975,0.892-2.551,1.306-4.832,1.306c-1.244,0-2.197-0.083-2.799-0.165V104.219z M134.353,109.942h1.639
		c1.907,0,3.027-0.995,3.027-2.344c0-1.638-1.244-2.28-3.069-2.28c-0.829,0-1.307,0.062-1.597,0.124V109.942z M134.353,116.641
		c0.353,0.062,0.871,0.082,1.514,0.082c1.866,0,3.588-0.684,3.588-2.716c0-1.908-1.639-2.696-3.608-2.696h-1.493V116.641z"/>
	<path d="M144.744,113.322c0.041,2.468,1.617,3.483,3.441,3.483c1.307,0,2.095-0.228,2.779-0.518l0.311,1.306
		c-0.643,0.291-1.741,0.622-3.338,0.622c-3.09,0-4.936-2.032-4.936-5.06s1.783-5.412,4.707-5.412c3.276,0,4.147,2.883,4.147,4.728
		c0,0.374-0.041,0.664-0.063,0.851H144.744z M150.094,112.016c0.021-1.161-0.477-2.965-2.53-2.965c-1.845,0-2.654,1.7-2.799,2.965
		H150.094z"/>
	<path d="M159.675,118.009l-0.146-1.265h-0.062c-0.561,0.788-1.639,1.493-3.069,1.493c-2.032,0-3.069-1.432-3.069-2.883
		c0-2.426,2.157-3.753,6.034-3.732v-0.208c0-0.829-0.228-2.322-2.28-2.322c-0.934,0-1.908,0.291-2.613,0.747l-0.415-1.203
		c0.83-0.539,2.032-0.892,3.298-0.892c3.068,0,3.815,2.095,3.815,4.105v3.754c0,0.871,0.041,1.721,0.166,2.405H159.675z
		 M159.405,112.887c-1.991-0.041-4.251,0.312-4.251,2.261c0,1.182,0.788,1.741,1.721,1.741c1.307,0,2.136-0.829,2.427-1.68
		c0.062-0.187,0.104-0.394,0.104-0.58V112.887z"/>
	<path d="M166.312,105.09v2.883h2.612v1.389h-2.612v5.412c0,1.244,0.353,1.949,1.368,1.949c0.478,0,0.83-0.062,1.058-0.124
		l0.083,1.369c-0.353,0.145-0.912,0.248-1.617,0.248c-0.851,0-1.534-0.27-1.97-0.767c-0.519-0.539-0.705-1.432-0.705-2.613v-5.475
		h-1.556v-1.389h1.556v-2.406L166.312,105.09z"/>
</g>
<g>
	<path fill="#27AAE1" d="M39.751,125.374h5.118v1.029h-3.891v3.158h3.595v1.016h-3.595v4.3h-1.227V125.374z"/>
	<path fill="#27AAE1" d="M52.752,131.408c0,2.524-1.748,3.624-3.398,3.624c-1.847,0-3.271-1.354-3.271-3.511
		c0-2.284,1.495-3.624,3.384-3.624C51.427,127.897,52.752,129.322,52.752,131.408z M47.338,131.479c0,1.494,0.86,2.622,2.073,2.622
		c1.184,0,2.072-1.114,2.072-2.65c0-1.156-0.578-2.623-2.044-2.623C47.973,128.828,47.338,130.182,47.338,131.479z"/>
	<path fill="#27AAE1" d="M54.32,130.182c0-0.804-0.014-1.494-0.057-2.129h1.086l0.042,1.34h0.057
		c0.31-0.917,1.058-1.495,1.889-1.495c0.141,0,0.24,0.015,0.353,0.043v1.17c-0.127-0.028-0.254-0.042-0.423-0.042
		c-0.875,0-1.495,0.662-1.664,1.593c-0.028,0.169-0.057,0.367-0.057,0.578v3.638H54.32V130.182z"/>
	<path fill="#27AAE1" d="M69.973,130.703c-0.071-1.325-0.155-2.918-0.141-4.103h-0.042c-0.324,1.114-0.719,2.298-1.198,3.609
		l-1.678,4.61h-0.931l-1.537-4.525c-0.451-1.34-0.832-2.566-1.1-3.694h-0.028c-0.028,1.185-0.099,2.777-0.183,4.202l-0.254,4.074
		h-1.17l0.663-9.503h1.565l1.622,4.597c0.395,1.17,0.719,2.213,0.958,3.2h0.042c0.24-0.959,0.578-2.002,1.001-3.2l1.692-4.597h1.565
		l0.592,9.503h-1.199L69.973,130.703z"/>
	<path fill="#27AAE1" d="M73.953,131.69c0.028,1.678,1.1,2.369,2.34,2.369c0.888,0,1.424-0.155,1.889-0.353l0.211,0.888
		c-0.437,0.197-1.184,0.423-2.27,0.423c-2.101,0-3.356-1.381-3.356-3.439s1.212-3.681,3.201-3.681c2.228,0,2.82,1.96,2.82,3.215
		c0,0.254-0.028,0.451-0.042,0.578H73.953z M77.59,130.803c0.014-0.79-0.324-2.017-1.72-2.017c-1.255,0-1.805,1.156-1.903,2.017
		H77.59z"/>
	<path fill="#27AAE1" d="M86.221,124.866v8.248c0,0.606,0.014,1.298,0.056,1.763h-1.114l-0.056-1.185h-0.028
		c-0.381,0.762-1.213,1.34-2.327,1.34c-1.649,0-2.918-1.396-2.918-3.469c-0.014-2.27,1.396-3.666,3.06-3.666
		c1.043,0,1.749,0.494,2.059,1.044h0.028v-4.075H86.221z M84.98,130.83c0-0.154-0.014-0.366-0.057-0.521
		c-0.183-0.789-0.86-1.438-1.791-1.438c-1.283,0-2.044,1.128-2.044,2.636c0,1.382,0.677,2.524,2.016,2.524
		c0.832,0,1.593-0.55,1.819-1.48c0.042-0.169,0.057-0.339,0.057-0.536V130.83z"/>
	<path fill="#27AAE1" d="M89.664,126.136c0.014,0.423-0.296,0.761-0.79,0.761c-0.437,0-0.748-0.338-0.748-0.761
		c0-0.438,0.324-0.775,0.775-0.775C89.368,125.36,89.664,125.698,89.664,126.136z M88.282,134.877v-6.824h1.241v6.824H88.282z"/>
	<path fill="#27AAE1" d="M96.446,134.623c-0.324,0.169-1.044,0.395-1.96,0.395c-2.059,0-3.398-1.396-3.398-3.482
		c0-2.101,1.438-3.623,3.666-3.623c0.733,0,1.382,0.184,1.721,0.353l-0.282,0.959c-0.296-0.17-0.762-0.325-1.438-0.325
		c-1.564,0-2.411,1.156-2.411,2.581c0,1.579,1.015,2.552,2.369,2.552c0.705,0,1.17-0.184,1.522-0.339L96.446,134.623z"/>
	<path fill="#27AAE1" d="M101.679,134.877l-0.099-0.86h-0.042c-0.381,0.536-1.114,1.016-2.087,1.016
		c-1.382,0-2.087-0.973-2.087-1.96c0-1.649,1.467-2.552,4.104-2.538v-0.141c0-0.564-0.155-1.579-1.552-1.579
		c-0.634,0-1.297,0.197-1.776,0.508l-0.281-0.818c0.563-0.366,1.382-0.606,2.241-0.606c2.087,0,2.595,1.425,2.595,2.792v2.552
		c0,0.593,0.028,1.171,0.112,1.636H101.679z M101.496,131.395c-1.354-0.028-2.891,0.211-2.891,1.537c0,0.804,0.535,1.184,1.17,1.184
		c0.889,0,1.452-0.563,1.649-1.142c0.043-0.127,0.071-0.268,0.071-0.395V131.395z"/>
	<path fill="#27AAE1" d="M104.699,124.866h1.24v10.011h-1.24V124.866z"/>
	<path fill="#27AAE1" d="M110.891,133.383c0.55,0.338,1.354,0.62,2.199,0.62c1.255,0,1.988-0.663,1.988-1.621
		c0-0.889-0.508-1.396-1.791-1.89c-1.551-0.55-2.51-1.354-2.51-2.693c0-1.48,1.228-2.58,3.074-2.58c0.973,0,1.678,0.226,2.101,0.466
		l-0.338,1.001c-0.311-0.169-0.945-0.451-1.805-0.451c-1.298,0-1.791,0.775-1.791,1.424c0,0.889,0.578,1.325,1.89,1.833
		c1.607,0.62,2.425,1.396,2.425,2.792c0,1.466-1.086,2.734-3.327,2.734c-0.917,0-1.918-0.268-2.426-0.605L110.891,133.383z"/>
	<path fill="#27AAE1" d="M118.661,131.69c0.028,1.678,1.101,2.369,2.341,2.369c0.889,0,1.424-0.155,1.89-0.353l0.211,0.888
		c-0.437,0.197-1.185,0.423-2.27,0.423c-2.101,0-3.355-1.381-3.355-3.439s1.212-3.681,3.2-3.681c2.228,0,2.819,1.96,2.819,3.215
		c0,0.254-0.027,0.451-0.042,0.578H118.661z M122.299,130.803c0.015-0.79-0.324-2.017-1.72-2.017c-1.255,0-1.805,1.156-1.903,2.017
		H122.299z"/>
	<path fill="#27AAE1" d="M125.036,130.182c0-0.804-0.015-1.494-0.057-2.129h1.086l0.042,1.34h0.057
		c0.311-0.917,1.058-1.495,1.89-1.495c0.141,0,0.239,0.015,0.353,0.043v1.17c-0.127-0.028-0.254-0.042-0.424-0.042
		c-0.874,0-1.494,0.662-1.663,1.593c-0.028,0.169-0.057,0.367-0.057,0.578v3.638h-1.227V130.182z"/>
	<path fill="#27AAE1" d="M130.128,128.053l1.339,3.835c0.226,0.62,0.409,1.185,0.55,1.749h0.043
		c0.155-0.564,0.353-1.129,0.578-1.749l1.325-3.835h1.297l-2.679,6.824h-1.185l-2.594-6.824H130.128z"/>
	<path fill="#27AAE1" d="M137.813,126.136c0.014,0.423-0.296,0.761-0.79,0.761c-0.437,0-0.747-0.338-0.747-0.761
		c0-0.438,0.324-0.775,0.775-0.775C137.518,125.36,137.813,125.698,137.813,126.136z M136.432,134.877v-6.824h1.24v6.824H136.432z"
		/>
	<path fill="#27AAE1" d="M144.597,134.623c-0.324,0.169-1.044,0.395-1.96,0.395c-2.059,0-3.397-1.396-3.397-3.482
		c0-2.101,1.438-3.623,3.665-3.623c0.733,0,1.382,0.184,1.721,0.353l-0.282,0.959c-0.296-0.17-0.762-0.325-1.438-0.325
		c-1.564,0-2.41,1.156-2.41,2.581c0,1.579,1.015,2.552,2.368,2.552c0.705,0,1.17-0.184,1.522-0.339L144.597,134.623z"/>
	<path fill="#27AAE1" d="M146.741,131.69c0.028,1.678,1.101,2.369,2.341,2.369c0.889,0,1.424-0.155,1.89-0.353l0.211,0.888
		c-0.437,0.197-1.185,0.423-2.27,0.423c-2.101,0-3.355-1.381-3.355-3.439s1.212-3.681,3.2-3.681c2.228,0,2.819,1.96,2.819,3.215
		c0,0.254-0.027,0.451-0.042,0.578H146.741z M150.379,130.803c0.015-0.79-0.324-2.017-1.72-2.017c-1.255,0-1.805,1.156-1.903,2.017
		H150.379z"/>
	<path fill="#27AAE1" d="M152.948,133.608c0.366,0.239,1.015,0.493,1.635,0.493c0.902,0,1.326-0.451,1.326-1.016
		c0-0.592-0.353-0.916-1.27-1.254c-1.227-0.438-1.805-1.114-1.805-1.932c0-1.101,0.889-2.003,2.354-2.003
		c0.691,0,1.297,0.198,1.678,0.424l-0.31,0.902c-0.269-0.17-0.762-0.396-1.396-0.396c-0.732,0-1.142,0.423-1.142,0.931
		c0,0.564,0.409,0.818,1.297,1.156c1.185,0.451,1.791,1.043,1.791,2.059c0,1.198-0.931,2.044-2.552,2.044
		c-0.748,0-1.438-0.183-1.918-0.465L152.948,133.608z"/>
</g>
<g>
	<defs>
		<rect id="SVGID_1_" x="-26.5" y="-12.721" width="259.003" height="183.721"/>
	</defs>
	<clipPath id="SVGID_2_">
		<use xlink:href="#SVGID_1_"  overflow="visible"/>
	</clipPath>
	<path clip-path="url(#SVGID_2_)" fill="#27AAE1" d="M91.712,2.194c1.324-0.177,2.065,0.181,2.122,1.715
		c0.062,1.643-0.675,2.103-2.187,2.258C79.03,7.46,68.926,13.328,61.23,23.311c-4.978,6.458-7.818,13.835-8.549,21.974
		c-0.132,1.472-0.639,2.046-2.185,1.937c-1.667-0.117-1.82-0.987-1.713-2.342C50.424,24.113,67.559,5.863,88.458,2.658
		C89.541,2.492,90.627,2.349,91.712,2.194"/>
	<path clip-path="url(#SVGID_2_)" fill="#27AAE1" d="M101.019,96.959c-1.286,0.058-2.285,0.177-2.397-1.391
		c-0.118-1.657,0.502-2.314,2.156-2.522c16.475-2.067,28.323-10.685,35.247-25.708c1.8-3.907,2.373-8.375,3.568-12.568
		c0.256-0.9,0.541-2.17,1.201-2.504c1.74-0.883,2.879,0.086,2.677,2.183c-0.854,8.871-4.015,16.878-9.441,23.926
		c-8.15,10.584-18.945,16.671-32.158,18.506C101.511,96.932,101.145,96.947,101.019,96.959"/>
	<path clip-path="url(#SVGID_2_)" fill="#F26822" d="M90.897,96.929c-13.651-1.686-25.261-8.224-33.71-20.126
		c-4.713-6.638-7.381-14.072-8.318-22.137c-0.128-1.102-0.559-2.409,1.37-2.551c1.687-0.124,2.266,0.527,2.449,2.195
		c2.257,20.563,18.16,36.471,38.635,38.817c0.843,0.097,2.056,0.682,2.324,1.351C94.344,96.214,93.552,97.037,90.897,96.929"/>
	<path clip-path="url(#SVGID_2_)" fill="#F26822" d="M143.354,46.953c-3.31,0.289-3.394,0.221-3.775-2.84
		c-2.503-20.033-18.346-35.644-38.49-38.017c-0.835-0.099-2.059-0.717-2.293-1.379c-0.69-1.949,0.144-2.71,2.453-2.405
		c15.702,2.071,27.767,9.778,35.976,23.372c3.334,5.521,5.26,11.553,6.108,17.928C143.475,44.667,143.354,45.755,143.354,46.953"/>
	<path clip-path="url(#SVGID_2_)" fill="#1C75BC" d="M108.038,86.093c-0.76,0-1.434-0.403-1.801-1.079L79.019,34.987v34.167
		c0,3.067-2.496,5.562-5.563,5.562H20.877v-5.647h48.931c1.964,0,3.563-1.599,3.563-3.564V20.122c0-1.047,0.824-1.868,1.876-1.868
		c0.688,0,1.297,0.365,1.629,0.977l27.47,50.487c0.033,0.01,0.059,0.014,0.075,0.014c0.046,0,0.046-0.028,0.046-0.045V35.454
		c0-2.973,2.419-5.392,5.393-5.392h65.024v5.648h-64.768v48.315C110.116,85.185,109.203,86.093,108.038,86.093"/>
	<path clip-path="url(#SVGID_2_)" fill="#FFFFFF" d="M75.247,19.255c0.289,0,0.581,0.141,0.751,0.454l27.469,50.487
		c0.209,0.384,0.567,0.557,0.923,0.557c0.541,0,1.077-0.4,1.077-1.066V35.454c0-2.425,1.966-4.391,4.393-4.391h64.024v3.648h-64.769
		v49.314c0,0.666-0.536,1.066-1.077,1.066c-0.356,0-0.714-0.173-0.923-0.558L79.646,34.047c-0.17-0.313-0.461-0.453-0.751-0.453
		c-0.44,0-0.876,0.325-0.876,0.867v34.693c0,2.52-2.043,4.563-4.563,4.563H21.877v-3.648h47.931c2.52,0,4.562-2.043,4.562-4.563
		V20.123C74.37,19.581,74.807,19.255,75.247,19.255 M75.247,17.255c-1.613,0-2.877,1.26-2.877,2.868v45.383
		c0,1.413-1.149,2.563-2.562,2.563H21.877h-2v2v3.648v2h2h51.579c3.618,0,6.563-2.944,6.563-6.563V38.917l25.339,46.573
		c0.546,1.003,1.548,1.602,2.68,1.602c1.726,0,3.077-1.347,3.077-3.066V36.711h62.769h2v-2v-3.648v-2h-2h-64.024
		c-3.525,0-6.393,2.867-6.393,6.391v30.557L77.755,18.753C77.252,17.829,76.291,17.255,75.247,17.255"/>
	<path clip-path="url(#SVGID_2_)" fill="#1C75BC" d="M15.831,75.172c-1.893,0-3.432-1.54-3.432-3.433
		c0-1.892,1.539-3.431,3.432-3.431s3.432,1.539,3.432,3.431C19.262,73.632,17.724,75.172,15.831,75.172"/>
	<path clip-path="url(#SVGID_2_)" fill="#FFFFFF" d="M15.83,69.308c1.343,0,2.432,1.089,2.432,2.432
		c0,1.343-1.089,2.432-2.432,2.432c-1.343,0-2.432-1.089-2.432-2.432C13.398,70.397,14.487,69.308,15.83,69.308 M15.83,67.308
		c-2.444,0-4.432,1.988-4.432,4.432c0,2.444,1.988,4.432,4.432,4.432c2.444,0,4.432-1.988,4.432-4.432
		C20.262,69.296,18.274,67.308,15.83,67.308"/>
	<path clip-path="url(#SVGID_2_)" fill="#1C75BC" d="M7.318,75.172c-1.893,0-3.432-1.54-3.432-3.433
		c0-1.892,1.539-3.431,3.432-3.431c1.892,0,3.432,1.539,3.432,3.431C10.75,73.632,9.21,75.172,7.318,75.172"/>
	<path clip-path="url(#SVGID_2_)" fill="#FFFFFF" d="M7.318,69.308c1.343,0,2.432,1.089,2.432,2.432
		c0,1.343-1.089,2.432-2.432,2.432c-1.343,0-2.432-1.089-2.432-2.432C4.886,70.397,5.975,69.308,7.318,69.308 M7.318,67.308
		c-2.444,0-4.432,1.988-4.432,4.432c0,2.444,1.988,4.432,4.432,4.432s4.432-1.988,4.432-4.432
		C11.75,69.296,9.762,67.308,7.318,67.308"/>
	<polygon clip-path="url(#SVGID_2_)" fill="#1C75BC" points="177.851,26.598 188.74,32.886 177.851,39.173 	"/>
	<path clip-path="url(#SVGID_2_)" fill="#FFFFFF" d="M178.851,28.331l7.89,4.555l-7.89,4.555V28.331z M176.851,24.867v3.464v9.11
		v3.464l3-1.732l7.89-4.555l3-1.732l-3-1.732l-7.89-4.555L176.851,24.867z"/>
</g>
</svg>
