<?xml version="1.0" encoding="utf-8"?>
<!-- Generator: Adobe Illustrator 19.0.0, SVG Export Plug-In . SVG Version: 6.00 Build 0)  -->
<svg version="1.1" id="Layer_1" xmlns="http://www.w3.org/2000/svg" xmlns:xlink="http://www.w3.org/1999/xlink" x="0px" y="0px"
	 viewBox="0 0 690 228" style="enable-background:new 0 0 690 228;" xml:space="preserve">
<style type="text/css">
	.st0{fill-rule:evenodd;clip-rule:evenodd;fill:#91181B;}
	.st1{clip-path:url(#SVGID_2_);fill-rule:evenodd;clip-rule:evenodd;fill:#FFFFFF;}
	.st2{clip-path:url(#SVGID_4_);fill:url(#SVGID_5_);}
	.st3{clip-path:url(#SVGID_7_);fill-rule:evenodd;clip-rule:evenodd;fill:#FFFFFF;}
	.st4{fill:none;stroke:#000000;stroke-width:0.7087;stroke-miterlimit:2.6131;}
</style>
<path class="st0" d="M193.2,6.7v107.6c0,59.3-92.6,107.7-92.6,107.7S8.1,173.5,8.1,114.3V6.7c10.3,19,28.5,31.6,49.3,31.6
	c17.2,0,32.6-8.6,43.3-22.4c10.7,13.8,26.1,22.4,43.3,22.4C164.7,38.3,182.9,25.7,193.2,6.7"/>
<g>
	<defs>
		<path id="SVGID_1_" d="M193.2,6.7v107.6c0,59.3-92.6,107.7-92.6,107.7S8.1,173.5,8.1,114.3V6.7c10.3,19,28.5,31.6,49.3,31.6
			c17.2,0,32.6-8.6,43.3-22.4c10.7,13.8,26.1,22.4,43.3,22.4C164.7,38.3,182.9,25.7,193.2,6.7"/>
	</defs>
	<clipPath id="SVGID_2_">
		<use xlink:href="#SVGID_1_"  style="overflow:visible;"/>
	</clipPath>
	<path class="st1" d="M151.1,57.8l11.1-4.6l-4,11.5l-2.7-2.6l-39.8,40.7c15.6,16.9,24.8,39.8,23.8,64.6c-0.7,17.8-6.5,34.3-16,47.9
		c3.4-9.3,5.4-19.3,5.8-29.7c1-26.2-8.3-50.3-24.2-68.6l-87.1,79.4l-3.1-3.2l82.4-84.2C80.7,93.7,58.8,84,34.4,83
		C23.1,82.6,12,84.1,1.7,87.3C16.5,78.1,34.1,73,52.9,73.7c22.9,0.9,43.4,10.2,58.8,24.9l42-38.3L151.1,57.8z"/>
</g>
<g>
	<defs>
		<path id="SVGID_3_" d="M193.2,21.8v92.5c0,50.9-92.6,92.6-92.6,92.6S8.1,165.2,8.1,114.3V21.8C18.4,38.1,36.6,49,57.4,49
			c17.2,0,32.6-7.4,43.3-19.3C111.3,41.5,126.7,49,143.9,49C164.7,49,182.9,38.1,193.2,21.8"/>
	</defs>
	<clipPath id="SVGID_4_">
		<use xlink:href="#SVGID_3_"  style="overflow:visible;"/>
	</clipPath>
	<linearGradient id="SVGID_5_" gradientUnits="userSpaceOnUse" x1="36.0899" y1="48.0007" x2="165.1888" y2="180.6484">
		<stop  offset="0" style="stop-color:#C71F25"/>
		<stop  offset="0.49" style="stop-color:#CC1F25"/>
		<stop  offset="0.5" style="stop-color:#851618"/>
		<stop  offset="1" style="stop-color:#CD2027"/>
	</linearGradient>
	<rect x="8.1" y="21.8" class="st2" width="185.1" height="185.1"/>
</g>
<g>
	<defs>
		<path id="SVGID_6_" d="M193.2,21.8v92.5c0,50.9-92.6,92.6-92.6,92.6S8.1,165.2,8.1,114.3V21.8C18.4,38.1,36.6,49,57.4,49
			c17.2,0,32.6-7.4,43.3-19.3C111.3,41.5,126.7,49,143.9,49C164.7,49,182.9,38.1,193.2,21.8"/>
	</defs>
	<clipPath id="SVGID_7_">
		<use xlink:href="#SVGID_6_"  style="overflow:visible;"/>
	</clipPath>
	<path class="st3" d="M151.1,57.8l11.1-4.6l-4,11.5l-2.7-2.6l-39.8,40.7c15.6,16.9,24.8,39.8,23.8,64.6c-0.7,17.8-6.5,34.3-16,47.9
		c3.4-9.3,5.4-19.3,5.8-29.7c1-26.2-8.3-50.3-24.2-68.6l-87.1,79.4l-3.1-3.2l82.4-84.2C80.7,93.7,58.8,84,34.4,83
		C23.1,82.6,12,84.1,1.7,87.3C16.5,78.1,34.1,73,52.9,73.7c22.9,0.9,43.4,10.2,58.8,24.9l42-38.3L151.1,57.8z"/>
</g>
<path d="M665.9,144.5v-14c11.8,0,11.8,7,11.8,14H665.9z M561.5,131.5h-3.2v15.8c0,5.9-4.3,5.9-7.9,5.9v2.8c3.6,0,11,0,11-8.7V131.5z
	 M509.1,127.6H506v14.9c0,1.2-0.8,2-2,2h-4.3c0.2-0.6,0.4-1.3,0.4-2v-12.9h-3.2v12.9c0,1.2-0.8,2-2,2h-3.6c0-0.4,0-0.7,0-1.1v-11.8
	h-3.2v11.8c0,3.9-2.2,7-5.9,7c-4.5,0-5.9-3.4-5.9-7v-8.2h-3.2v8.2c0,5.8,2.8,9.8,9.1,9.8c4,0,7.1-2.3,8.4-5.9h4.2
	c1.9,0,3.5-0.7,4.3-2v2h4.7c1.9,0,3.5-0.8,4.3-2.1v2.1h7.1h0.8h6.3h0.8h6.3h0.8h24v-2.8c0-4.3,0-14.9-11.4-16.6l11.4-13.4l-2.1-1.9
	l-12.8,15v2.8c11.8,0,11.8,9.4,11.8,14h-20.9h-0.8h-6.3h-0.8h-6.3h-0.8h-6.7c0.2-0.6,0.4-1.2,0.4-2V127.6z M406,155.2
	c1.1,0,2-0.9,2-2c0-1.1-0.9-2-2-2c-1.1,0-2,0.9-2,2C404.1,154.3,404.9,155.2,406,155.2z M400.9,155.2c1.1,0,2-0.9,2-2
	c0-1.1-0.9-2-2-2c-1.1,0-2,0.9-2,2C398.9,154.3,399.8,155.2,400.9,155.2z M355.8,155.2c1.1,0,2-0.9,2-2c0-1.1-0.9-2-2-2
	c-1.1,0-2,0.9-2,2C353.8,154.3,354.7,155.2,355.8,155.2z M310.7,155.2c1.1,0,2-0.9,2-2c0-1.1-0.9-2-2-2c-1.1,0-2,0.9-2,2
	C308.7,154.3,309.6,155.2,310.7,155.2z M305.6,155.2c1.1,0,2-0.9,2-2c0-1.1-0.9-2-2-2c-1.1,0-2,0.9-2,2
	C303.6,154.3,304.5,155.2,305.6,155.2z M269.1,144.5v-24.7H266v27.6h2.4h0.8h6.3h0.8h6.3h0.8h6.3h0.8h6.3h0.8h11.4h0.8h6.3h0.8h6.3
	h0.8h6.3h0.8h6.3h0.8h6.3h0.8h11.4h0.8h6.3h0.8h6.3h0.8h6.3h0.8h6.3h0.8h6.3h0.8h11.4h0.8h6.3h0.8h6.3h0.8h6.3h0.8h6.3h0.8h6.3h0.8
	h6.3h0.8h12.2v-27.6h-3.2v24.7h-9.1h-0.8h-6.3h-0.8h-6.3h-0.8h-6.3h-0.8h-6.3h-0.8h-6.3h-0.8h-6.3v-12.9h-3.2v12.9h-9.1H392h-6.3
	H385h-6.3h-0.8h-6.3h-0.8h-6.3h-0.8h-6.3v-12.9h-3.2v12.9h-9.1h-0.8h-6.3h-0.8H331h-0.8h-6.3h-0.8h-6.3H316h-6.3v-12.9h-3.2v12.9
	h-9.1h-0.8h-6.3h-0.8h-6.3h-0.8h-6.3h-0.8H269.1z M662.8,127.6v16.9h-9.1h-0.8h-6.3h-0.8h-6.3h-0.8h-6.3h-0.8h-6.3h-0.8h-6.3h-0.8
	h-6.3h-0.8h-6.3h-0.8H597h-0.8h-6.3h-0.8h-6.3H582h-6.3h-0.8h-6.3v-24.7h-3.2v27.6h2.4h0.8h6.3h0.8h6.3h0.8h6.3h0.8h6.3h0.8h6.3h0.8
	h6.3h0.8h6.3h0.8h6.3h0.8h6.3h0.8h6.3h0.8h6.3h0.8h6.3h0.8h27.2v-2.8c0-7,0-16.9-15-16.9H662.8z"/>
<path class="st4" d="M665.9,144.5v-14c11.8,0,11.8,7,11.8,14H665.9z M561.5,131.5h-3.2v15.8c0,5.9-4.3,5.9-7.9,5.9v2.8
	c3.6,0,11,0,11-8.7V131.5z M509.1,127.6H506v14.9c0,1.2-0.8,2-2,2h-4.3c0.2-0.6,0.4-1.3,0.4-2v-12.9h-3.2v12.9c0,1.2-0.8,2-2,2h-3.6
	c0-0.4,0-0.7,0-1.1v-11.8h-3.2v11.8c0,3.9-2.2,7-5.9,7c-4.5,0-5.9-3.4-5.9-7v-8.2h-3.2v8.2c0,5.8,2.8,9.8,9.1,9.8
	c4,0,7.1-2.3,8.4-5.9h4.2c1.9,0,3.5-0.7,4.3-2v2h4.7c1.9,0,3.5-0.8,4.3-2.1v2.1h7.1h0.8h6.3h0.8h6.3h0.8h24v-2.8
	c0-4.3,0-14.9-11.4-16.6l11.4-13.4l-2.1-1.9l-12.8,15v2.8c11.8,0,11.8,9.4,11.8,14h-20.9h-0.8h-6.3h-0.8h-6.3h-0.8h-6.7
	c0.2-0.6,0.4-1.2,0.4-2V127.6z M406,155.2c1.1,0,2-0.9,2-2c0-1.1-0.9-2-2-2c-1.1,0-2,0.9-2,2C404.1,154.3,404.9,155.2,406,155.2z
	 M400.9,155.2c1.1,0,2-0.9,2-2c0-1.1-0.9-2-2-2c-1.1,0-2,0.9-2,2C398.9,154.3,399.8,155.2,400.9,155.2z M355.8,155.2
	c1.1,0,2-0.9,2-2c0-1.1-0.9-2-2-2c-1.1,0-2,0.9-2,2C353.8,154.3,354.7,155.2,355.8,155.2z M310.7,155.2c1.1,0,2-0.9,2-2
	c0-1.1-0.9-2-2-2c-1.1,0-2,0.9-2,2C308.7,154.3,309.6,155.2,310.7,155.2z M305.6,155.2c1.1,0,2-0.9,2-2c0-1.1-0.9-2-2-2
	c-1.1,0-2,0.9-2,2C303.6,154.3,304.5,155.2,305.6,155.2z M269.1,144.5v-24.7H266v27.6h2.4h0.8h6.3h0.8h6.3h0.8h6.3h0.8h6.3h0.8h11.4
	h0.8h6.3h0.8h6.3h0.8h6.3h0.8h6.3h0.8h6.3h0.8h11.4h0.8h6.3h0.8h6.3h0.8h6.3h0.8h6.3h0.8h6.3h0.8h11.4h0.8h6.3h0.8h6.3h0.8h6.3h0.8
	h6.3h0.8h6.3h0.8h6.3h0.8h12.2v-27.6h-3.2v24.7h-9.1h-0.8h-6.3h-0.8h-6.3h-0.8h-6.3h-0.8h-6.3h-0.8h-6.3h-0.8h-6.3v-12.9h-3.2v12.9
	h-9.1H392h-6.3H385h-6.3h-0.8h-6.3h-0.8h-6.3h-0.8h-6.3v-12.9h-3.2v12.9h-9.1h-0.8h-6.3h-0.8H331h-0.8h-6.3h-0.8h-6.3H316h-6.3
	v-12.9h-3.2v12.9h-9.1h-0.8h-6.3h-0.8h-6.3h-0.8h-6.3h-0.8H269.1z M662.8,127.6v16.9h-9.1h-0.8h-6.3h-0.8h-6.3h-0.8h-6.3h-0.8h-6.3
	h-0.8h-6.3h-0.8h-6.3h-0.8h-6.3h-0.8H597h-0.8h-6.3h-0.8h-6.3H582h-6.3h-0.8h-6.3v-24.7h-3.2v27.6h2.4h0.8h6.3h0.8h6.3h0.8h6.3h0.8
	h6.3h0.8h6.3h0.8h6.3h0.8h6.3h0.8h6.3h0.8h6.3h0.8h6.3h0.8h6.3h0.8h6.3h0.8h27.2v-2.8c0-7,0-16.9-15-16.9H662.8z"/>
<path d="M671.1,97.8l-5.7-10.2l-5.5,10.2H671.1z M683.4,107.6h-6.7l-3.1-5.4h-16.3l-3.1,5.4h-6l14.6-24.6h5.7L683.4,107.6z
	 M649.4,83.1L636,96.5v11.1h-6v-11l-13.4-13.5h8.1l8.8,9.2l8.9-9.2H649.4z M608.1,101v-1.9c0-0.9-0.3-1.5-0.8-1.9
	c-0.4-0.2-1.1-0.3-2.1-0.3h-13.4v6.3h13.4c1,0,1.7-0.1,2.1-0.3C607.9,102.6,608.1,101.9,608.1,101z M607.9,91.1v-2.3
	c0-1.2-0.9-1.7-2.7-1.7h-13.4v5.8h13.4C607,92.9,607.9,92.3,607.9,91.1z M613.9,102.8c0,3.2-2.5,4.8-7.6,4.8h-20.4V83.1h22.1
	c3.9,0,5.8,1.6,5.8,4.8v3c0,2.3-1.4,3.7-4.2,4.2c2.9,0.5,4.4,2,4.4,4.7V102.8z M575,107.6h-6V83.1h6V107.6z M561,107.6h-29.4v-30h7
	V102H561V107.6z M496.5,101.8c0,2.3-0.5,3.9-1.4,4.6c-0.9,0.8-2.6,1.2-5,1.2h-16c-2.6,0-4.4-0.4-5.2-1.3c-0.8-0.9-1.2-2.6-1.2-5.2
	l5.3-1v2.9h18.1v-5.6h-15.9c-2.4,0-4-0.4-4.9-1.1c-1-0.8-1.5-2.4-1.5-4.7v-2.7c0-2.3,0.5-3.9,1.5-4.7c0.9-0.7,2.5-1.1,4.9-1.1h14.6
	c2.5,0,4.2,0.4,5.1,1.2c0.9,0.8,1.4,2.4,1.4,4.8l-5.2,1.1v-2.6h-16.9v5.2h16c2.4,0,4.1,0.4,5,1.1c0.9,0.8,1.4,2.3,1.4,4.7V101.8z
	 M457.5,101.8c0,2.3-0.5,3.9-1.4,4.6c-0.9,0.8-2.6,1.2-5,1.2h-16.3c-2.4,0-4.1-0.4-5-1.2c-0.9-0.8-1.4-2.3-1.4-4.6V83.1h6v20h17.1
	v-20h6V101.8z M418.6,101.8c0,2.3-0.5,3.9-1.4,4.6c-0.9,0.8-2.6,1.2-5,1.2h-15.3c-2.4,0-4.1-0.4-5-1.2c-0.9-0.8-1.4-2.3-1.4-4.6
	V88.9c0-2.3,0.5-3.9,1.4-4.6c0.9-0.8,2.6-1.2,5-1.2h15.3c3.1,0,5,0.6,5.7,1.9c0.5,0.9,0.8,2.9,0.8,6.3l-6,0.9v-4.5h-16.1v15.3h16.1
	v-5.2l6,1.2V101.8z M375.5,92.1v-2.8c0-1.3-0.9-2-2.7-2h-13.6v6.8h13.6C374.6,94.1,375.5,93.4,375.5,92.1z M383.7,107.6h-8.6
	l-10.3-9.3h-5.6v9.3h-5.9V83.1h22.1c3.8,0,5.7,1.6,5.7,4.8v5.8c0,2.4-1,3.9-3.1,4.4c-0.7,0.2-2.7,0.3-6,0.3L383.7,107.6z
	 M334.9,97.8l-5.7-10.2l-5.5,10.2H334.9z M347.2,107.6h-6.7l-3.1-5.4h-16.3l-3.1,5.4h-6l14.6-24.6h5.7L347.2,107.6z M303.3,107.6
	h-6.4V89c0-0.7,0.1-1.7,0.2-3.1c-0.3,0.7-0.9,1.8-1.7,3.1L284,104h-1.4l-11.3-15c-0.8-1.1-1.4-2.1-1.8-3.1c0.1,1.2,0.2,2.2,0.2,3
	v18.8h-5.6v-30h5.6l14.1,18.1l13.8-18.1h5.6V107.6z"/>
</svg>
