<?xml version="1.0" encoding="utf-8"?>
<!-- Generator: Adobe Illustrator 18.1.1, SVG Export Plug-In . SVG Version: 6.00 Build 0)  -->
<svg version="1.1" id="Layer_1" xmlns="http://www.w3.org/2000/svg" xmlns:xlink="http://www.w3.org/1999/xlink" x="0px" y="0px"
	 viewBox="0 0 253.3 178.1" enable-background="new 0 0 253.3 178.1" xml:space="preserve">
<g>
	<path d="M89.5,135.2H75.9v-2.4h7.6c0-2.7-1.1-4.3-3.2-4.8c-0.6-0.1-1.4-0.2-2.1-0.2v-2.1c1.1,0,1.9,0,2.2,0c0.3,0,0.7,0.1,1.3,0.3
		c2.8,0.9,4.2,3.2,4.2,6.8h3.6V135.2z"/>
	<path d="M104.2,135.2h-4.4c-0.6,0-1.2-0.2-1.9-0.5c-0.5-0.3-1-0.6-1.3-1c-1.5,1-3,1.5-4.6,1.5h-3.5v-2.4h3.5c0.7,0,1.2,0,1.6-0.1
		c0.5-0.1,1-0.3,1.5-0.6c-0.3-0.5-0.9-1-1.8-1.5c-0.9-0.6-1.7-0.9-2.5-1.1v-2.2c1.8-1.1,3.7-1.7,5.7-1.7c2.3,0,4.3,0.7,6,2.2
		c-0.2,0.6-0.7,1.3-1.5,2.3c-0.9,1-1.7,1.8-2.4,2.3c0.3,0.3,0.6,0.5,0.8,0.5c0.1,0,0.4,0,0.9,0h3.9V135.2z M99.6,128.3
		c-0.9-0.6-2-0.8-3-0.8s-2.2,0.3-3.2,0.9c1.3,0.5,2.5,1.3,3.6,2.5c0.5-0.2,1-0.6,1.5-1.1C98.9,129.2,99.3,128.8,99.6,128.3z
		 M97.7,123.8h-2.3v-2.3h2.3V123.8z"/>
	<path d="M109.6,131.5c0,2.5-1.2,3.8-3.5,3.8h-2.5v-2.4h2c0.8,0,1.3-0.2,1.5-0.7c0.1-0.3,0.2-0.8,0.2-1.5v-8.9h2.3V131.5z"/>
	<path d="M114,135.2h-2.3v-13.5h2.3V135.2z"/>
	<path d="M147.8,135.2h-15.2c-1.3,2.3-3.3,3.5-5.6,3.5c-3.6,0-6.6-3.2-6.6-7.1v-5.8h2.4v5.5c0,2.9,1.8,5.2,4.3,5.2
		c2.5,0,4.2-2.2,4.2-5.2v-5.5h2.4v3.9c1.8-2.5,4.1-3.9,6.4-3.9c3.5,0,5.3,2.4,5.4,7.1h2.5V135.2z M142.9,132.9c0-2.8-1-5.1-3.2-5.1
		c-2.3,0-4.8,2.2-6.1,5.1H142.9z M140.8,123.8h-2.3v-2.3h2.3V123.8z"/>
	<path d="M157,135.2h-9.7v-2.4h2.2c0.7,0,1.1-0.2,1.4-0.7c0.2-0.3,0.3-0.9,0.3-1.6v-4.8h2.3v4.7c0,1.2-0.2,2-0.5,2.4h4V135.2z
		 M153.4,139.8h-2.3v-2.3h2.3V139.8z"/>
	<path d="M162.3,131.5c0,2.5-1.2,3.8-3.5,3.8h-2.5v-2.4h2c0.8,0,1.3-0.2,1.5-0.7c0.1-0.3,0.2-0.8,0.2-1.5v-4.9h2.3V131.5z
		 M162.2,123.8h-2.3v-2.3h2.3V123.8z"/>
</g>
<g>
	<path fill="#27AAE1" d="M61.4,156.7h-1.7c-1.2,0-2.3-0.8-2.6-2.1c-0.5,0.7-1.1,1.1-1.8,1.1c-1.8,0-3-1.4-3-3.4c0-2.1,1.1-3.5,3-3.5
		h3.5v4.5c0,1.1,0.5,1.7,1.6,1.7h1V156.7z M57.2,152.2v-2.1h-1.4c-1.1,0-1.8,0.9-1.8,2.2c0,1.1,0.6,2,1.6,2
		C56.5,154.4,57.2,153.4,57.2,152.2z M56,147.7h-1.6v-1.6H56V147.7z M58.7,147.7h-1.6v-1.6h1.6V147.7z"/>
	<path fill="#27AAE1" d="M62.5,159.9h-1.6v-1.6h1.6V159.9z M67.6,156.7H61v-1.6h1.5c0.5,0,0.8-0.2,1-0.5c0.1-0.2,0.2-0.6,0.2-1.1
		v-3.3h1.6v3.2c0,0.8-0.1,1.4-0.4,1.7h2.7V156.7z M65.2,159.9h-1.6v-1.6h1.6V159.9z"/>
	<path fill="#27AAE1" d="M73.8,156.7h-6.6v-1.6h1.5c0.5,0,0.8-0.2,1-0.5c0.1-0.2,0.2-0.6,0.2-1.1v-3.3h1.6v3.2
		c0,0.8-0.1,1.4-0.3,1.7h2.7V156.7z M71.4,159.9h-1.6v-1.6h1.6V159.9z"/>
	<path fill="#27AAE1" d="M87.1,156.7H73.4v-1.6h2.8v-7.6h1.6l-0.2,5.2c1.3-1.7,2.7-2.5,4.2-2.5c2.4,0,3.7,1.6,3.7,4.9h1.6V156.7z
		 M83.8,155.1c0-0.2,0-0.3,0-0.5c0-1.8-0.8-3-2.2-3c-1.6,0-3.3,1.5-4.2,3.5H83.8z"/>
	<path fill="#27AAE1" d="M89.9,156.7h-3.2v-1.6h3.2V156.7z"/>
	<path fill="#27AAE1" d="M92.7,156.7h-3.2v-1.6h3.2V156.7z"/>
	<path fill="#27AAE1" d="M95.5,156.7h-3.2v-1.6h3.2V156.7z"/>
	<path fill="#27AAE1" d="M98.3,156.7h-3.2v-1.6h3.2V156.7z"/>
	<path fill="#27AAE1" d="M101.2,156.7H98v-1.6h3.2V156.7z"/>
	<path fill="#27AAE1" d="M104.9,154.2c0,1.7-0.8,2.6-2.4,2.6h-1.7v-1.6h1.4c0.5,0,0.9-0.2,1-0.5c0.1-0.2,0.1-0.5,0.1-1v-6.1h1.6
		V154.2z"/>
	<path fill="#27AAE1" d="M107.9,156.7h-1.6v-9.2h1.6V156.7z"/>
	<path fill="#27AAE1" d="M124.2,150.3v4.2c0,1.4-0.8,2.3-2.2,2.3h-5.2c-3,0-4.5-1.3-4.5-4v-2.4h1.6v2.4c0,0.9,0.3,1.6,0.8,2
		c0.4,0.3,1.1,0.5,2,0.5h3.9c0.7,0,1.2-0.1,1.5-0.3c0.4-0.3,0.6-0.8,0.6-1.5v-3.1H124.2z M117.6,150.3h-1.6v-1.6h1.6V150.3z
		 M120.3,150.3h-1.6v-1.6h1.6V150.3z"/>
	<path fill="#27AAE1" d="M129.9,156.7H128c-0.8,0-1.4-0.2-1.8-0.7c-0.4-0.5-0.6-1.1-0.6-1.9v-6.6h1.6v6c0,0.7,0.2,1.2,0.5,1.4
		c0.2,0.2,0.6,0.2,1.2,0.2h0.9V156.7z"/>
	<path fill="#27AAE1" d="M137.7,154.7c0,1.9-1.3,3.3-3.2,3.3c-1.1,0-2-0.4-2.6-1.3h-2.6v-1.6h2l0-0.1c0-0.1,0-0.3,0-0.4
		c0-1.9,1.3-3.3,3.2-3.3S137.7,152.8,137.7,154.7z M136.1,154.7c0-1.1-0.7-1.9-1.6-1.9c-0.9,0-1.5,0.8-1.5,1.8s0.7,1.9,1.6,1.9
		C135.4,156.5,136.1,155.8,136.1,154.7z"/>
	<path fill="#27AAE1" d="M148.3,156.7h-9.3v-1.6h5.2c0-1.9-0.7-3-2.2-3.3c-0.4-0.1-0.9-0.1-1.4-0.1v-1.5c0.8,0,1.3,0,1.5,0
		c0.2,0,0.5,0.1,0.9,0.2c1.9,0.6,2.9,2.2,2.9,4.6h2.5V156.7z"/>
	<path fill="#27AAE1" d="M150.8,156.7h-3.2v-1.6h3.2V156.7z"/>
	<path fill="#27AAE1" d="M153.6,156.7h-3.2v-1.6h3.2V156.7z"/>
	<path fill="#27AAE1" d="M156.5,156.7h-3.2v-1.6h3.2V156.7z"/>
	<path fill="#27AAE1" d="M159.3,156.7h-3.2v-1.6h3.2V156.7z"/>
	<path fill="#27AAE1" d="M162.1,156.7H159v-1.6h3.2V156.7z"/>
	<path fill="#27AAE1" d="M165,156.7h-3.2v-1.6h3.2V156.7z"/>
	<path fill="#27AAE1" d="M176.1,156.7h-11.5v-1.6h8.3c0-0.9-0.2-1.6-0.7-2.3c-0.6-0.7-1.4-1.1-2.5-1.1c-0.4,0-0.8,0.1-1.2,0.3
		c-0.5,0.2-0.9,0.5-1.3,0.9c-0.2-0.3-0.4-0.7-0.8-1.3c0.4-0.4,0.9-0.8,1.5-1c0.6-0.3,1.3-0.4,1.9-0.4c1,0,1.9,0.2,2.6,0.7
		c1.3,0.8,2,2.2,2.1,4.2h1.5V156.7z M170.6,148.9H169v-1.6h1.6V148.9z"/>
	<path fill="#27AAE1" d="M182.2,156.7h-6.5v-1.6h1.5c0.5,0,0.8-0.2,1-0.5c0.1-0.2,0.2-0.6,0.2-1.1v-6h1.6v5.9c0,0.8-0.1,1.4-0.3,1.7
		h2.7V156.7z"/>
	<path fill="#27AAE1" d="M185.9,154.2c0,1.7-0.8,2.6-2.4,2.6h-1.7v-1.6h1.4c0.5,0,0.9-0.2,1-0.5c0.1-0.2,0.1-0.5,0.1-1v-6.1h1.6
		V154.2z"/>
</g>
<text transform="matrix(1 0 0 1 320.6473 131.9427)" font-family="'Archeologicaps'" font-size="11.8357"> tomorrow’s beat</text>
<text transform="matrix(1 0 0 1 307.2069 152.1402)" fill="#27AAE1" font-family="'MyriadPro-Regular'" font-size="18.1373">for medical services</text>
<g>
	<path fill="#27AAE1" d="M114.7,12.1c1.3-0.2,2.1,0.2,2.1,1.7c0.1,1.6-0.7,2.1-2.2,2.3c-12.6,1.3-22.7,7.2-30.4,17.1
		c-5,6.5-7.8,13.8-8.5,22c-0.1,1.5-0.6,2-2.2,1.9c-1.7-0.1-1.8-1-1.7-2.3c1.6-20.8,18.8-39,39.7-42.2
		C112.5,12.4,113.6,12.2,114.7,12.1z"/>
	<path fill="#27AAE1" d="M124,106.8c-1.3,0.1-2.3,0.2-2.4-1.4c-0.1-1.7,0.5-2.3,2.2-2.5c16.5-2.1,28.3-10.7,35.2-25.7
		c1.8-3.9,2.4-8.4,3.6-12.6c0.3-0.9,0.5-2.2,1.2-2.5c1.7-0.9,2.9,0.1,2.7,2.2c-0.9,8.9-4,16.9-9.4,23.9
		c-8.1,10.6-18.9,16.7-32.2,18.5C124.5,106.8,124.1,106.8,124,106.8z"/>
	<path fill="#F26822" d="M113.9,106.8c-13.7-1.7-25.3-8.2-33.7-20.1c-4.7-6.6-7.4-14.1-8.3-22.1c-0.1-1.1-0.6-2.4,1.4-2.6
		c1.7-0.1,2.3,0.5,2.4,2.2c2.3,20.6,18.2,36.5,38.6,38.8c0.8,0.1,2.1,0.7,2.3,1.4C117.3,106.1,116.5,106.9,113.9,106.8z"/>
	<path fill="#F26822" d="M166.3,56.8c-3.3,0.3-3.4,0.2-3.8-2.8c-2.5-20-18.3-35.6-38.5-38c-0.8-0.1-2.1-0.7-2.3-1.4
		c-0.7-1.9,0.1-2.7,2.5-2.4c15.7,2.1,27.8,9.8,36,23.4c3.3,5.5,5.3,11.6,6.1,17.9C166.5,54.6,166.3,55.6,166.3,56.8z"/>
</g>
<g>
	<g>
		<path fill="#1C75BC" d="M131.3,96c-0.8,0-1.4-0.4-1.8-1.1l-27.2-50V79c0,3.1-2.5,5.6-5.6,5.6H44.2V79h48.9c2,0,3.6-1.6,3.6-3.6V30
			c0-1,0.8-1.9,1.9-1.9c0.7,0,1.3,0.4,1.6,1l27.5,50.5c0,0,0.1,0,0.1,0c0,0,0,0,0,0V45.3c0-3,2.4-5.4,5.4-5.4h65v5.6h-64.8v48.3
			C133.4,95.1,132.5,96,131.3,96z"/>
		<path fill="#FFFFFF" d="M98.5,29.1c0.3,0,0.6,0.1,0.8,0.5l27.5,50.5c0.2,0.4,0.6,0.6,0.9,0.6c0.5,0,1.1-0.4,1.1-1.1V45.3
			c0-2.4,2-4.4,4.4-4.4h64v3.6h-64.8v49.3c0,0.7-0.5,1.1-1.1,1.1c-0.4,0-0.7-0.2-0.9-0.6l-27.5-50.5c-0.2-0.3-0.5-0.5-0.8-0.5
			c-0.4,0-0.9,0.3-0.9,0.9V79c0,2.5-2,4.6-4.6,4.6H45.2V80h47.9c2.5,0,4.6-2,4.6-4.6V30C97.7,29.5,98.1,29.1,98.5,29.1 M98.5,27.1
			c-1.6,0-2.9,1.3-2.9,2.9v45.4c0,1.4-1.1,2.6-2.6,2.6H45.2h-2v2v3.6v2h2h51.6c3.6,0,6.6-2.9,6.6-6.6V48.8l25.3,46.6
			c0.5,1,1.5,1.6,2.7,1.6c1.7,0,3.1-1.3,3.1-3.1V46.6h62.8h2v-2v-3.6v-2h-2h-64c-3.5,0-6.4,2.9-6.4,6.4v30.6L101,28.6
			C100.5,27.7,99.6,27.1,98.5,27.1L98.5,27.1z"/>
	</g>
	<g>
		<path fill="#1C75BC" d="M39.1,85.1c-1.9,0-3.4-1.5-3.4-3.4s1.5-3.4,3.4-3.4c1.9,0,3.4,1.5,3.4,3.4S41,85.1,39.1,85.1z"/>
		<path fill="#FFFFFF" d="M39.1,79.2c1.3,0,2.4,1.1,2.4,2.4c0,1.3-1.1,2.4-2.4,2.4c-1.3,0-2.4-1.1-2.4-2.4
			C36.7,80.3,37.8,79.2,39.1,79.2 M39.1,77.2c-2.4,0-4.4,2-4.4,4.4s2,4.4,4.4,4.4s4.4-2,4.4-4.4S41.6,77.2,39.1,77.2L39.1,77.2z"/>
	</g>
	<g>
		<path fill="#1C75BC" d="M30.6,85.1c-1.9,0-3.4-1.5-3.4-3.4s1.5-3.4,3.4-3.4c1.9,0,3.4,1.5,3.4,3.4S32.5,85.1,30.6,85.1z"/>
		<path fill="#FFFFFF" d="M30.6,79.2c1.3,0,2.4,1.1,2.4,2.4c0,1.3-1.1,2.4-2.4,2.4c-1.3,0-2.4-1.1-2.4-2.4
			C28.2,80.3,29.3,79.2,30.6,79.2 M30.6,77.2c-2.4,0-4.4,2-4.4,4.4s2,4.4,4.4,4.4s4.4-2,4.4-4.4S33,77.2,30.6,77.2L30.6,77.2z"/>
	</g>
	<g>
		<polygon fill="#1C75BC" points="201.1,36.5 212,42.8 201.1,49.1 		"/>
		<path fill="#FFFFFF" d="M202.1,38.2l7.9,4.6l-7.9,4.6V38.2 M200.1,34.8v3.5v9.1v3.5l3-1.7l7.9-4.6l3-1.7l-3-1.7l-7.9-4.6
			L200.1,34.8L200.1,34.8z"/>
	</g>
</g>
<g>
	<path fill="#27AAE1" d="M392.7,12.1c1.3-0.2,2.1,0.2,2.1,1.7c0.1,1.6-0.7,2.1-2.2,2.3c-12.6,1.3-22.7,7.2-30.4,17.1
		c-5,6.5-7.8,13.8-8.5,22c-0.1,1.5-0.6,2-2.2,1.9c-1.7-0.1-1.8-1-1.7-2.3c1.6-20.8,18.8-39,39.7-42.2
		C390.5,12.4,391.6,12.2,392.7,12.1z"/>
	<path fill="#27AAE1" d="M402,106.8c-1.3,0.1-2.3,0.2-2.4-1.4c-0.1-1.7,0.5-2.3,2.2-2.5c16.5-2.1,28.3-10.7,35.2-25.7
		c1.8-3.9,2.4-8.4,3.6-12.6c0.3-0.9,0.5-2.2,1.2-2.5c1.7-0.9,2.9,0.1,2.7,2.2c-0.9,8.9-4,16.9-9.4,23.9
		c-8.1,10.6-18.9,16.7-32.2,18.5C402.5,106.8,402.1,106.8,402,106.8z"/>
	<path fill="#F26822" d="M391.8,106.8c-13.7-1.7-25.3-8.2-33.7-20.1c-4.7-6.6-7.4-14.1-8.3-22.1c-0.1-1.1-0.6-2.4,1.4-2.6
		c1.7-0.1,2.3,0.5,2.4,2.2c2.3,20.6,18.2,36.5,38.6,38.8c0.8,0.1,2.1,0.7,2.3,1.4C395.3,106.1,394.5,106.9,391.8,106.8z"/>
	<path fill="#F26822" d="M444.3,56.8c-3.3,0.3-3.4,0.2-3.8-2.8C438,34,422.2,18.4,402,16c-0.8-0.1-2.1-0.7-2.3-1.4
		c-0.7-1.9,0.1-2.7,2.5-2.4c15.7,2.1,27.8,9.8,36,23.4c3.3,5.5,5.3,11.6,6.1,17.9C444.4,54.6,444.3,55.6,444.3,56.8z"/>
</g>
<g>
	<g>
		<path fill="#1C75BC" d="M409.3,96c-0.8,0-1.4-0.4-1.8-1.1l-27.2-50V79c0,3.1-2.5,5.6-5.6,5.6h-52.6V79h48.9c2,0,3.6-1.6,3.6-3.6
			V30c0-1,0.8-1.9,1.9-1.9c0.7,0,1.3,0.4,1.6,1l27.5,50.5c0,0,0.1,0,0.1,0c0,0,0,0,0,0V45.3c0-3,2.4-5.4,5.4-5.4h65v5.6h-64.8v48.3
			C411.4,95.1,410.4,96,409.3,96z"/>
		<path fill="#FFFFFF" d="M376.5,29.1c0.3,0,0.6,0.1,0.8,0.5l27.5,50.5c0.2,0.4,0.6,0.6,0.9,0.6c0.5,0,1.1-0.4,1.1-1.1V45.3
			c0-2.4,2-4.4,4.4-4.4h64v3.6h-64.8v49.3c0,0.7-0.5,1.1-1.1,1.1c-0.4,0-0.7-0.2-0.9-0.6l-27.5-50.5c-0.2-0.3-0.5-0.5-0.8-0.5
			c-0.4,0-0.9,0.3-0.9,0.9V79c0,2.5-2,4.6-4.6,4.6h-51.6V80h47.9c2.5,0,4.6-2,4.6-4.6V30C375.6,29.5,376.1,29.1,376.5,29.1
			 M376.5,27.1c-1.6,0-2.9,1.3-2.9,2.9v45.4c0,1.4-1.1,2.6-2.6,2.6h-47.9h-2v2v3.6v2h2h51.6c3.6,0,6.6-2.9,6.6-6.6V48.8l25.3,46.6
			c0.5,1,1.5,1.6,2.7,1.6c1.7,0,3.1-1.3,3.1-3.1V46.6h62.8h2v-2v-3.6v-2h-2h-64c-3.5,0-6.4,2.9-6.4,6.4v30.6L379,28.6
			C378.5,27.7,377.5,27.1,376.5,27.1L376.5,27.1z"/>
	</g>
	<g>
		<path fill="#1C75BC" d="M317.1,85.1c-1.9,0-3.4-1.5-3.4-3.4s1.5-3.4,3.4-3.4s3.4,1.5,3.4,3.4S319,85.1,317.1,85.1z"/>
		<path fill="#FFFFFF" d="M317.1,79.2c1.3,0,2.4,1.1,2.4,2.4c0,1.3-1.1,2.4-2.4,2.4c-1.3,0-2.4-1.1-2.4-2.4
			C314.6,80.3,315.7,79.2,317.1,79.2 M317.1,77.2c-2.4,0-4.4,2-4.4,4.4s2,4.4,4.4,4.4c2.4,0,4.4-2,4.4-4.4S319.5,77.2,317.1,77.2
			L317.1,77.2z"/>
	</g>
	<g>
		<path fill="#1C75BC" d="M308.6,85.1c-1.9,0-3.4-1.5-3.4-3.4s1.5-3.4,3.4-3.4s3.4,1.5,3.4,3.4S310.5,85.1,308.6,85.1z"/>
		<path fill="#FFFFFF" d="M308.6,79.2c1.3,0,2.4,1.1,2.4,2.4c0,1.3-1.1,2.4-2.4,2.4c-1.3,0-2.4-1.1-2.4-2.4
			C306.1,80.3,307.2,79.2,308.6,79.2 M308.6,77.2c-2.4,0-4.4,2-4.4,4.4s2,4.4,4.4,4.4c2.4,0,4.4-2,4.4-4.4S311,77.2,308.6,77.2
			L308.6,77.2z"/>
	</g>
	<g>
		<polygon fill="#1C75BC" points="479.1,36.5 490,42.8 479.1,49.1 		"/>
		<path fill="#FFFFFF" d="M480.1,38.2l7.9,4.6l-7.9,4.6V38.2 M478.1,34.8v3.5v9.1v3.5l3-1.7l7.9-4.6l3-1.7l-3-1.7l-7.9-4.6
			L478.1,34.8L478.1,34.8z"/>
	</g>
</g>
</svg>
