<?xml version="1.0" encoding="iso-8859-1"?>
<!-- Generator: Adobe Illustrator 19.0.0, SVG Export Plug-In . SVG Version: 6.00 Build 0)  -->
<svg xmlns="http://www.w3.org/2000/svg" xmlns:xlink="http://www.w3.org/1999/xlink" version="1.1" id="Capa_1" x="0px" y="0px" viewBox="0 0 60 60" style="enable-background:new 0 0 60 60;" xml:space="preserve" width="512px" height="512px">
<g>
	<g>
		<path d="M57,0H3C1.3,0,0,1.3,0,3v56c0,0.6,0.4,1,1,1h38h12h8c0.6,0,1-0.4,1-1V3C60,1.3,58.7,0,57,0z M3,2h54c0.6,0,1,0.4,1,1v5H2    V3C2,2.4,2.4,2,3,2z M43,25h2v-2h-3h-2v-8h10v8h-2c-0.6,0-1,0.4-1,1v17h-4V25z M42,43h6h5v3h-2H39h-2v-3H42z M40,58v-2h4v-2h-4v-2    h4v-2h-4v-2h10v10H40z M52,58V48h2c0.6,0,1-0.4,1-1v-5c0-0.6-0.4-1-1-1h-5V25h2c0.6,0,1-0.4,1-1V14c0-0.6-0.4-1-1-1H39    c-0.6,0-1,0.4-1,1v10c0,0.6,0.4,1,1,1h2v16h-5c-0.6,0-1,0.4-1,1v5c0,0.6,0.4,1,1,1h2v10H2V10h56v48H52z" fill="#FFFFFF"/>
		<rect x="5" y="4" width="4" height="2" fill="#FFFFFF"/>
		<rect x="12" y="4" width="4" height="2" fill="#FFFFFF"/>
		<rect x="15" y="15" width="2" height="38" fill="#FFFFFF"/>
		<rect x="6" y="15" width="5" height="2" fill="#FFFFFF"/>
		<rect x="6" y="21" width="5" height="2" fill="#FFFFFF"/>
		<rect x="6" y="27" width="5" height="2" fill="#FFFFFF"/>
		<rect x="6" y="33" width="5" height="2" fill="#FFFFFF"/>
		<rect x="6" y="39" width="5" height="2" fill="#FFFFFF"/>
		<rect x="6" y="45" width="5" height="2" fill="#FFFFFF"/>
		<rect x="6" y="51" width="5" height="2" fill="#FFFFFF"/>
		<rect x="21" y="15" width="13" height="2" fill="#FFFFFF"/>
		<rect x="21" y="21" width="13" height="2" fill="#FFFFFF"/>
		<rect x="21" y="27" width="15" height="2" fill="#FFFFFF"/>
		<rect x="21" y="33" width="15" height="2" fill="#FFFFFF"/>
		<rect x="21" y="39" width="11" height="2" fill="#FFFFFF"/>
		<rect x="21" y="45" width="11" height="2" fill="#FFFFFF"/>
		<rect x="21" y="51" width="11" height="2" fill="#FFFFFF"/>
	</g>
</g>
<g>
</g>
<g>
</g>
<g>
</g>
<g>
</g>
<g>
</g>
<g>
</g>
<g>
</g>
<g>
</g>
<g>
</g>
<g>
</g>
<g>
</g>
<g>
</g>
<g>
</g>
<g>
</g>
<g>
</g>
</svg>
