<?xml version="1.0" encoding="utf-8"?>
<!-- Generator: Adobe Illustrator 16.0.0, SVG Export Plug-In . SVG Version: 6.00 Build 0)  -->
<!DOCTYPE svg PUBLIC "-//W3C//DTD SVG 1.1//EN" "http://www.w3.org/Graphics/SVG/1.1/DTD/svg11.dtd">
<svg version="1.1" id="Capa_1" xmlns="http://www.w3.org/2000/svg" xmlns:xlink="http://www.w3.org/1999/xlink" x="0px" y="0px"
	 width="499px" height="95.75px" viewBox="154.5 120.5 499 95.75" enable-background="new 154.5 120.5 499 95.75"
	 xml:space="preserve">
<g>
	<path fill="#FFFFFF" stroke="#2E962D" stroke-miterlimit="10" d="M203.385,125.674v0.281L194.915,156h-5.148l-5.101-18.626
		c-0.687-2.496-1.264-5.101-1.731-7.815c-0.219,1.155-0.468,2.418-0.749,3.791c-0.281,1.374-0.593,2.714-0.936,4.025L176.335,156
		h-5.148l-8.658-30.045v-0.281h4.352l5.242,19.094c0.53,1.904,1.107,4.291,1.731,7.161c0.468-2.995,0.951-5.382,1.451-7.161
		l5.288-19.094h5.055l5.382,19.094c0.374,1.342,0.904,3.744,1.591,7.207c0.188-1.123,0.437-2.34,0.749-3.65
		c0.312-1.311,0.608-2.496,0.889-3.557l4.914-19.094H203.385z"/>
	<path fill="#FFFFFF" stroke="#2E962D" stroke-miterlimit="10" d="M222.993,146.453H208.72c0.031,2.34,0.6,4.041,1.708,5.101
		c1.107,1.061,2.535,1.591,4.282,1.591c1.248,0,2.332-0.156,3.252-0.468c0.92-0.312,1.942-0.795,3.065-1.451l1.544,2.854
		c-2.559,1.654-5.242,2.48-8.049,2.48c-2.995,0-5.39-0.834-7.184-2.504c-1.794-1.668-2.691-4.313-2.691-7.932
		c0-2.059,0.374-3.931,1.123-5.616c0.749-1.685,1.864-3.034,3.346-4.048c1.481-1.014,3.299-1.521,5.452-1.521
		c1.809,0,3.354,0.367,4.633,1.1c1.279,0.733,2.247,1.739,2.901,3.018c0.655,1.28,0.983,2.746,0.983,4.399L222.993,146.453z
		 M210.755,139.527c-0.92,0.967-1.521,2.293-1.802,3.978h10.202v-0.188c0-1.747-0.397-3.057-1.193-3.931
		c-0.795-0.873-1.927-1.31-3.393-1.31C212.947,138.076,211.675,138.56,210.755,139.527z"/>
	<path fill="#FFFFFF" stroke="#2E962D" stroke-miterlimit="10" d="M266.656,135.502v0.281L260.478,156h-4.024l-3.744-12.542
		c-0.5-1.747-0.827-2.979-0.983-3.697c-0.125,0.687-0.437,1.919-0.936,3.697L247.047,156h-3.791l-6.739-20.217v-0.281h4.399
		l3.697,12.87c0.156,0.531,0.39,1.482,0.702,2.855c0.187-1.092,0.405-2.043,0.655-2.855l3.744-12.87h4.399l3.744,12.87
		c0.25,0.874,0.515,1.982,0.795,3.323c0.218-1.31,0.437-2.417,0.655-3.323l3.417-12.87H266.656z"/>
	<path fill="#FFFFFF" stroke="#2E962D" stroke-miterlimit="10" d="M272.505,155.134c-1.467-0.951-2.559-2.246-3.276-3.884
		c-0.718-1.638-1.076-3.487-1.076-5.546c0-2.496,0.468-4.547,1.404-6.154c0.936-1.606,2.2-2.776,3.791-3.51
		c1.591-0.733,3.4-1.1,5.429-1.1c2.184,0,4.009,0.476,5.476,1.427c1.466,0.952,2.558,2.239,3.276,3.861
		c0.717,1.623,1.076,3.463,1.076,5.522c0,2.527-0.468,4.594-1.404,6.201c-0.936,1.607-2.2,2.778-3.791,3.51
		c-1.591,0.732-3.401,1.1-5.429,1.1C275.797,156.562,273.972,156.086,272.505,155.134z M284.392,145.704
		c0-2.277-0.491-4.095-1.474-5.452c-0.982-1.357-2.457-2.036-4.422-2.036c-2.184,0-3.752,0.664-4.703,1.989
		c-0.952,1.326-1.427,3.159-1.427,5.499c0,2.31,0.499,4.15,1.498,5.522c0.998,1.373,2.496,2.059,4.493,2.059
		C282.38,153.286,284.392,150.758,284.392,145.704z"/>
	<path fill="#FFFFFF" stroke="#2E962D" stroke-miterlimit="10" d="M304.983,135.034c0.437,0.063,0.904,0.156,1.404,0.281
		l-0.749,4.165c-1.061-0.375-2.029-0.562-2.902-0.562c-0.999,0-1.918,0.219-2.761,0.655c-0.843,0.437-1.654,1.264-2.434,2.48V156
		h-4.025v-20.545l4.025-0.421v2.948c0.779-0.998,1.685-1.755,2.714-2.27c1.029-0.515,2.121-0.772,3.276-0.772
		C304.063,134.94,304.546,134.972,304.983,135.034z"/>
	<path fill="#FFFFFF" stroke="#2E962D" stroke-miterlimit="10" d="M319.022,145.049l8.938,10.67V156h-4.914l-8.657-10.717V156
		h-4.025v-32.198l4.025-0.468v21.621l8.704-9.454h4.446v0.281L319.022,145.049z"/>
	<path fill="#FFFFFF" stroke="#2E962D" stroke-miterlimit="10" d="M349.465,128.038c-0.577,0.765-0.866,1.849-0.866,3.252v4.212
		h6.365l-0.421,3.183h-5.944V156h-4.024v-17.315h-3.744v-3.183h3.744v-4.118c0-1.56,0.296-2.932,0.89-4.118
		c0.592-1.186,1.442-2.106,2.55-2.761s2.41-0.983,3.908-0.983c1.716,0,3.291,0.266,4.727,0.796l-1.029,3.182
		c-1.155-0.405-2.325-0.608-3.51-0.608C350.923,126.891,350.042,127.273,349.465,128.038z"/>
	<path fill="#FFFFFF" stroke="#2E962D" stroke-miterlimit="10" d="M360.299,155.134c-1.467-0.951-2.559-2.246-3.276-3.884
		c-0.718-1.638-1.076-3.487-1.076-5.546c0-2.496,0.468-4.547,1.404-6.154c0.936-1.606,2.199-2.776,3.791-3.51
		c1.591-0.733,3.399-1.1,5.429-1.1c2.183,0,4.008,0.476,5.475,1.427c1.467,0.952,2.559,2.239,3.276,3.861
		c0.718,1.623,1.076,3.463,1.076,5.522c0,2.527-0.468,4.594-1.403,6.201c-0.937,1.607-2.2,2.778-3.791,3.51s-3.401,1.1-5.429,1.1
		C363.59,156.562,361.765,156.086,360.299,155.134z M372.186,145.704c0-2.277-0.491-4.095-1.474-5.452
		c-0.983-1.357-2.457-2.036-4.423-2.036c-2.185,0-3.752,0.664-4.703,1.989c-0.952,1.326-1.428,3.159-1.428,5.499
		c0,2.31,0.499,4.15,1.498,5.522c0.998,1.373,2.495,2.059,4.492,2.059C370.174,153.286,372.186,150.758,372.186,145.704z"/>
	<path fill="#FFFFFF" stroke="#2E962D" stroke-miterlimit="10" d="M392.775,135.034c0.437,0.063,0.905,0.156,1.404,0.281
		l-0.749,4.165c-1.061-0.375-2.028-0.562-2.901-0.562c-0.999,0-1.919,0.219-2.761,0.655c-0.843,0.437-1.654,1.264-2.434,2.48V156
		h-4.024v-20.545l4.024-0.421v2.948c0.779-0.998,1.685-1.755,2.714-2.27c1.03-0.515,2.122-0.772,3.276-0.772
		C391.855,134.94,392.339,134.972,392.775,135.034z"/>
	<path fill="#FFFFFF" stroke="#2E962D" stroke-miterlimit="10" d="M424.833,136.274c1.217,0.889,2.121,2.106,2.714,3.65
		c0.593,1.544,0.89,3.284,0.89,5.218c0,2.714-0.585,4.922-1.755,6.622c-1.17,1.701-2.645,2.925-4.423,3.674
		s-3.619,1.123-5.522,1.123c-2.09,0-4.539-0.452-7.347-1.357v-31.402l4.024-0.468v13.431c2.215-1.217,4.508-1.825,6.879-1.825
		C422.103,134.94,423.616,135.385,424.833,136.274z M422.024,151.344c1.404-1.264,2.106-3.362,2.106-6.295
		c0-2.121-0.406-3.759-1.217-4.914c-0.812-1.154-2.06-1.731-3.744-1.731c-1.841,0-3.76,0.453-5.756,1.357v13.104
		c1.186,0.25,2.246,0.375,3.183,0.375C418.812,153.239,420.621,152.607,422.024,151.344z"/>
	<path fill="#FFFFFF" stroke="#2E962D" stroke-miterlimit="10" d="M450.057,146.453h-14.274c0.031,2.34,0.601,4.041,1.709,5.101
		c1.106,1.061,2.534,1.591,4.282,1.591c1.247,0,2.331-0.156,3.252-0.468c0.92-0.312,1.942-0.795,3.065-1.451l1.544,2.854
		c-2.559,1.654-5.241,2.48-8.049,2.48c-2.995,0-5.39-0.834-7.184-2.504c-1.795-1.668-2.691-4.313-2.691-7.932
		c0-2.059,0.375-3.931,1.123-5.616c0.749-1.685,1.864-3.034,3.347-4.048c1.481-1.014,3.299-1.521,5.452-1.521
		c1.809,0,3.354,0.367,4.633,1.1c1.279,0.733,2.246,1.739,2.901,3.018c0.655,1.28,0.983,2.746,0.983,4.399L450.057,146.453z
		 M437.818,139.527c-0.921,0.967-1.521,2.293-1.802,3.978h10.202v-0.188c0-1.747-0.397-3.057-1.193-3.931
		c-0.796-0.873-1.927-1.31-3.393-1.31C440.01,138.076,438.738,138.56,437.818,139.527z"/>
	<path fill="#FFFFFF" stroke="#2E962D" stroke-miterlimit="10" d="M467.513,155.251c-1.623,0.873-3.339,1.311-5.147,1.311
		c-1.936,0-3.464-0.555-4.587-1.661c-1.123-1.107-1.685-2.769-1.685-4.984v-11.231h-4.118v-3.183h4.118v-4.633l4.024-0.655v5.288
		h6.927l-0.422,3.183h-6.505v10.576c0,2.621,0.967,3.931,2.901,3.931c0.562,0,1.107-0.062,1.639-0.187
		c0.53-0.125,1.106-0.328,1.731-0.608L467.513,155.251z"/>
	<path fill="#FFFFFF" stroke="#2E962D" stroke-miterlimit="10" d="M484.454,155.251c-1.623,0.873-3.339,1.311-5.147,1.311
		c-1.936,0-3.464-0.555-4.587-1.661c-1.123-1.107-1.685-2.769-1.685-4.984v-11.231h-4.118v-3.183h4.118v-4.633l4.024-0.655v5.288
		h6.927l-0.422,3.183h-6.505v10.576c0,2.621,0.967,3.931,2.901,3.931c0.562,0,1.107-0.062,1.639-0.187
		c0.53-0.125,1.106-0.328,1.731-0.608L484.454,155.251z"/>
	<path fill="#FFFFFF" stroke="#2E962D" stroke-miterlimit="10" d="M504.672,146.453h-14.274c0.031,2.34,0.601,4.041,1.709,5.101
		c1.106,1.061,2.534,1.591,4.282,1.591c1.247,0,2.331-0.156,3.252-0.468c0.92-0.312,1.942-0.795,3.065-1.451l1.544,2.854
		c-2.559,1.654-5.241,2.48-8.049,2.48c-2.995,0-5.39-0.834-7.184-2.504c-1.795-1.668-2.691-4.313-2.691-7.932
		c0-2.059,0.375-3.931,1.123-5.616c0.749-1.685,1.864-3.034,3.347-4.048c1.481-1.014,3.299-1.521,5.452-1.521
		c1.809,0,3.354,0.367,4.633,1.1c1.279,0.733,2.246,1.739,2.901,3.018c0.655,1.28,0.983,2.746,0.983,4.399L504.672,146.453z
		 M492.434,139.527c-0.921,0.967-1.521,2.293-1.802,3.978h10.202v-0.188c0-1.747-0.397-3.057-1.193-3.931
		c-0.796-0.873-1.927-1.31-3.393-1.31C494.625,138.076,493.354,138.56,492.434,139.527z"/>
	<path fill="#FFFFFF" stroke="#2E962D" stroke-miterlimit="10" d="M521.144,135.034c0.437,0.063,0.905,0.156,1.404,0.281
		l-0.749,4.165c-1.061-0.375-2.028-0.562-2.901-0.562c-0.999,0-1.919,0.219-2.761,0.655c-0.843,0.437-1.654,1.264-2.434,2.48V156
		h-4.024v-20.545l4.024-0.421v2.948c0.779-0.998,1.685-1.755,2.714-2.27c1.03-0.515,2.122-0.772,3.276-0.772
		C520.224,134.94,520.707,134.972,521.144,135.034z"/>
	<path fill="#FFFFFF" stroke="#2E962D" stroke-miterlimit="10" d="M537.757,156v-32.198l4.024-0.468V156H537.757z"/>
	<path fill="#FFFFFF" stroke="#2E962D" stroke-miterlimit="10" d="M548.895,130.939c-0.438-0.265-0.789-0.616-1.054-1.053
		c-0.265-0.437-0.397-0.904-0.397-1.404c0-0.53,0.133-1.014,0.397-1.451s0.616-0.788,1.054-1.053
		c0.437-0.265,0.904-0.398,1.403-0.398c0.53,0,1.014,0.133,1.451,0.398c0.437,0.266,0.787,0.616,1.053,1.053
		c0.265,0.437,0.397,0.92,0.397,1.451c0,0.5-0.133,0.967-0.397,1.404c-0.266,0.438-0.616,0.788-1.053,1.053
		c-0.438,0.265-0.921,0.397-1.451,0.397C549.799,131.337,549.331,131.205,548.895,130.939z M548.333,156v-20.498l4.024-0.468V156
		H548.333z"/>
	<path fill="#FFFFFF" stroke="#2E962D" stroke-miterlimit="10" d="M565.203,128.038c-0.577,0.765-0.866,1.849-0.866,3.252v4.212
		h6.365l-0.421,3.183h-5.944V156h-4.024v-17.315h-3.744v-3.183h3.744v-4.118c0-1.56,0.296-2.932,0.89-4.118
		c0.592-1.186,1.442-2.106,2.55-2.761s2.41-0.983,3.908-0.983c1.716,0,3.291,0.266,4.727,0.796l-1.029,3.182
		c-1.155-0.405-2.325-0.608-3.51-0.608C566.661,126.891,565.78,127.273,565.203,128.038z"/>
	<path fill="#FFFFFF" stroke="#2E962D" stroke-miterlimit="10" d="M590.03,146.453h-14.274c0.031,2.34,0.601,4.041,1.709,5.101
		c1.106,1.061,2.534,1.591,4.282,1.591c1.247,0,2.331-0.156,3.252-0.468c0.92-0.312,1.942-0.795,3.065-1.451l1.544,2.854
		c-2.559,1.654-5.241,2.48-8.049,2.48c-2.995,0-5.39-0.834-7.184-2.504c-1.795-1.668-2.691-4.313-2.691-7.932
		c0-2.059,0.375-3.931,1.123-5.616c0.749-1.685,1.864-3.034,3.347-4.048c1.481-1.014,3.299-1.521,5.452-1.521
		c1.809,0,3.354,0.367,4.633,1.1c1.279,0.733,2.246,1.739,2.901,3.018c0.655,1.28,0.983,2.746,0.983,4.399L590.03,146.453z
		 M577.792,139.527c-0.921,0.967-1.521,2.293-1.802,3.978h10.202v-0.188c0-1.747-0.397-3.057-1.193-3.931
		c-0.796-0.873-1.927-1.31-3.393-1.31C579.983,138.076,578.712,138.56,577.792,139.527z"/>
	<path fill="#FFFFFF" stroke="#2E962D" stroke-miterlimit="10" d="M203.385,181.833v0.28l-8.47,30.045h-5.148l-5.101-18.626
		c-0.687-2.496-1.264-5.101-1.731-7.815c-0.219,1.154-0.468,2.418-0.749,3.791s-0.593,2.714-0.936,4.024l-4.914,18.626h-5.148
		l-8.658-30.045v-0.28h4.352l5.242,19.094c0.53,1.903,1.107,4.29,1.731,7.16c0.468-2.995,0.951-5.382,1.451-7.16l5.288-19.094h5.055
		l5.382,19.094c0.374,1.342,0.904,3.743,1.591,7.207c0.188-1.123,0.437-2.34,0.749-3.65c0.312-1.311,0.608-2.496,0.889-3.557
		l4.914-19.094H203.385z"/>
	<path fill="#FFFFFF" stroke="#2E962D" stroke-miterlimit="10" d="M222.993,202.611H208.72c0.031,2.34,0.6,4.041,1.708,5.101
		c1.107,1.062,2.535,1.592,4.282,1.592c1.248,0,2.332-0.156,3.252-0.468c0.92-0.312,1.942-0.796,3.065-1.451l1.544,2.854
		c-2.559,1.654-5.242,2.48-8.049,2.48c-2.995,0-5.39-0.834-7.184-2.504c-1.794-1.668-2.691-4.313-2.691-7.933
		c0-2.059,0.374-3.931,1.123-5.615c0.749-1.685,1.864-3.034,3.346-4.048c1.481-1.014,3.299-1.521,5.452-1.521
		c1.809,0,3.354,0.367,4.633,1.1c1.279,0.733,2.247,1.74,2.901,3.019c0.655,1.28,0.983,2.746,0.983,4.399L222.993,202.611z
		 M210.755,195.685c-0.92,0.968-1.521,2.294-1.802,3.979h10.202v-0.188c0-1.747-0.397-3.058-1.193-3.931
		c-0.795-0.873-1.927-1.311-3.393-1.311C212.947,194.234,211.675,194.719,210.755,195.685z"/>
	<path fill="#FFFFFF" stroke="#2E962D" stroke-miterlimit="10" d="M266.656,191.66v0.281l-6.178,20.217h-4.024l-3.744-12.542
		c-0.5-1.747-0.827-2.979-0.983-3.697c-0.125,0.687-0.437,1.919-0.936,3.697l-3.744,12.542h-3.791l-6.739-20.217v-0.281h4.399
		l3.697,12.87c0.156,0.53,0.39,1.481,0.702,2.854c0.187-1.092,0.405-2.043,0.655-2.854l3.744-12.87h4.399l3.744,12.87
		c0.25,0.874,0.515,1.981,0.795,3.322c0.218-1.311,0.437-2.417,0.655-3.322l3.417-12.87H266.656z"/>
	<path fill="#FFFFFF" stroke="#2E962D" stroke-miterlimit="10" d="M272.505,211.292c-1.467-0.951-2.559-2.246-3.276-3.884
		c-0.718-1.638-1.076-3.486-1.076-5.546c0-2.495,0.468-4.547,1.404-6.154c0.936-1.606,2.2-2.776,3.791-3.51
		c1.591-0.732,3.4-1.1,5.429-1.1c2.184,0,4.009,0.477,5.476,1.428c1.466,0.952,2.558,2.238,3.276,3.86
		c0.717,1.623,1.076,3.464,1.076,5.522c0,2.527-0.468,4.595-1.404,6.201c-0.936,1.607-2.2,2.777-3.791,3.51
		c-1.591,0.732-3.401,1.1-5.429,1.1C275.797,212.72,273.972,212.244,272.505,211.292z M284.392,201.862
		c0-2.277-0.491-4.095-1.474-5.452c-0.982-1.357-2.457-2.035-4.422-2.035c-2.184,0-3.752,0.663-4.703,1.988
		c-0.952,1.327-1.427,3.159-1.427,5.499c0,2.31,0.499,4.149,1.498,5.522c0.998,1.373,2.496,2.06,4.493,2.06
		C282.38,209.444,284.392,206.917,284.392,201.862z"/>
	<path fill="#FFFFFF" stroke="#2E962D" stroke-miterlimit="10" d="M304.983,191.192c0.437,0.063,0.904,0.156,1.404,0.28
		l-0.749,4.166c-1.061-0.375-2.029-0.563-2.902-0.563c-0.999,0-1.918,0.219-2.761,0.655c-0.843,0.438-1.654,1.264-2.434,2.48v13.946
		h-4.025v-20.545l4.025-0.421v2.948c0.779-0.998,1.685-1.755,2.714-2.27c1.029-0.515,2.121-0.772,3.276-0.772
		C304.063,191.099,304.546,191.13,304.983,191.192z"/>
	<path fill="#FFFFFF" stroke="#2E962D" stroke-miterlimit="10" d="M319.022,201.207l8.938,10.67v0.281h-4.914l-8.657-10.717v10.717
		h-4.025v-32.197l4.025-0.469v21.621l8.704-9.453h4.446v0.281L319.022,201.207z"/>
	<path fill="#FFFFFF" stroke="#2E962D" stroke-miterlimit="10" d="M349.465,184.196c-0.577,0.765-0.866,1.849-0.866,3.252v4.212
		h6.365l-0.421,3.183h-5.944v17.315h-4.024v-17.315h-3.744v-3.183h3.744v-4.118c0-1.56,0.296-2.933,0.89-4.118
		c0.592-1.186,1.442-2.106,2.55-2.762c1.107-0.654,2.41-0.982,3.908-0.982c1.716,0,3.291,0.266,4.727,0.796l-1.029,3.182
		c-1.155-0.404-2.325-0.608-3.51-0.608C350.923,183.049,350.042,183.432,349.465,184.196z"/>
	<path fill="#FFFFFF" stroke="#2E962D" stroke-miterlimit="10" d="M360.299,211.292c-1.467-0.951-2.559-2.246-3.276-3.884
		s-1.076-3.486-1.076-5.546c0-2.495,0.468-4.547,1.404-6.154c0.936-1.606,2.199-2.776,3.791-3.51c1.591-0.732,3.399-1.1,5.429-1.1
		c2.183,0,4.008,0.477,5.475,1.428c1.467,0.952,2.559,2.238,3.276,3.86c0.718,1.623,1.076,3.464,1.076,5.522
		c0,2.527-0.468,4.595-1.403,6.201c-0.937,1.607-2.2,2.777-3.791,3.51s-3.401,1.1-5.429,1.1
		C363.59,212.72,361.765,212.244,360.299,211.292z M372.186,201.862c0-2.277-0.491-4.095-1.474-5.452
		c-0.983-1.357-2.457-2.035-4.423-2.035c-2.185,0-3.752,0.663-4.703,1.988c-0.952,1.327-1.428,3.159-1.428,5.499
		c0,2.31,0.499,4.149,1.498,5.522c0.998,1.373,2.495,2.06,4.492,2.06C370.174,209.444,372.186,206.917,372.186,201.862z"/>
	<path fill="#FFFFFF" stroke="#2E962D" stroke-miterlimit="10" d="M392.775,191.192c0.437,0.063,0.905,0.156,1.404,0.28
		l-0.749,4.166c-1.061-0.375-2.028-0.563-2.901-0.563c-0.999,0-1.919,0.219-2.761,0.655c-0.843,0.438-1.654,1.264-2.434,2.48v13.946
		h-4.024v-20.545l4.024-0.421v2.948c0.779-0.998,1.685-1.755,2.714-2.27c1.03-0.515,2.122-0.772,3.276-0.772
		C391.855,191.099,392.339,191.13,392.775,191.192z"/>
	<path fill="#FFFFFF" stroke="#2E962D" stroke-miterlimit="10" d="M424.833,192.433c1.217,0.889,2.121,2.105,2.714,3.65
		c0.593,1.544,0.89,3.284,0.89,5.218c0,2.715-0.585,4.922-1.755,6.622c-1.17,1.701-2.645,2.925-4.423,3.674
		s-3.619,1.123-5.522,1.123c-2.09,0-4.539-0.452-7.347-1.357v-31.401l4.024-0.469v13.432c2.215-1.217,4.508-1.825,6.879-1.825
		C422.103,191.099,423.616,191.543,424.833,192.433z M422.024,207.502c1.404-1.264,2.106-3.361,2.106-6.295
		c0-2.121-0.406-3.759-1.217-4.914c-0.812-1.153-2.06-1.731-3.744-1.731c-1.841,0-3.76,0.453-5.756,1.357v13.104
		c1.186,0.25,2.246,0.375,3.183,0.375C418.812,209.397,420.621,208.766,422.024,207.502z"/>
	<path fill="#FFFFFF" stroke="#2E962D" stroke-miterlimit="10" d="M450.057,202.611h-14.274c0.031,2.34,0.601,4.041,1.709,5.101
		c1.106,1.062,2.534,1.592,4.282,1.592c1.247,0,2.331-0.156,3.252-0.468c0.92-0.312,1.942-0.796,3.065-1.451l1.544,2.854
		c-2.559,1.654-5.241,2.48-8.049,2.48c-2.995,0-5.39-0.834-7.184-2.504c-1.795-1.668-2.691-4.313-2.691-7.933
		c0-2.059,0.375-3.931,1.123-5.615c0.749-1.685,1.864-3.034,3.347-4.048c1.481-1.014,3.299-1.521,5.452-1.521
		c1.809,0,3.354,0.367,4.633,1.1c1.279,0.733,2.246,1.74,2.901,3.019c0.655,1.28,0.983,2.746,0.983,4.399L450.057,202.611z
		 M437.818,195.685c-0.921,0.968-1.521,2.294-1.802,3.979h10.202v-0.188c0-1.747-0.397-3.058-1.193-3.931s-1.927-1.311-3.393-1.311
		C440.01,194.234,438.738,194.719,437.818,195.685z"/>
	<path fill="#FFFFFF" stroke="#2E962D" stroke-miterlimit="10" d="M467.513,211.409c-1.623,0.873-3.339,1.311-5.147,1.311
		c-1.936,0-3.464-0.555-4.587-1.661c-1.123-1.107-1.685-2.769-1.685-4.984v-11.231h-4.118v-3.183h4.118v-4.633l4.024-0.655v5.288
		h6.927l-0.422,3.183h-6.505v10.576c0,2.621,0.967,3.932,2.901,3.932c0.562,0,1.107-0.063,1.639-0.188
		c0.53-0.124,1.106-0.327,1.731-0.608L467.513,211.409z"/>
	<path fill="#FFFFFF" stroke="#2E962D" stroke-miterlimit="10" d="M484.454,211.409c-1.623,0.873-3.339,1.311-5.147,1.311
		c-1.936,0-3.464-0.555-4.587-1.661c-1.123-1.107-1.685-2.769-1.685-4.984v-11.231h-4.118v-3.183h4.118v-4.633l4.024-0.655v5.288
		h6.927l-0.422,3.183h-6.505v10.576c0,2.621,0.967,3.932,2.901,3.932c0.562,0,1.107-0.063,1.639-0.188
		c0.53-0.124,1.106-0.327,1.731-0.608L484.454,211.409z"/>
	<path fill="#FFFFFF" stroke="#2E962D" stroke-miterlimit="10" d="M504.672,202.611h-14.274c0.031,2.34,0.601,4.041,1.709,5.101
		c1.106,1.062,2.534,1.592,4.282,1.592c1.247,0,2.331-0.156,3.252-0.468c0.92-0.312,1.942-0.796,3.065-1.451l1.544,2.854
		c-2.559,1.654-5.241,2.48-8.049,2.48c-2.995,0-5.39-0.834-7.184-2.504c-1.795-1.668-2.691-4.313-2.691-7.933
		c0-2.059,0.375-3.931,1.123-5.615c0.749-1.685,1.864-3.034,3.347-4.048c1.481-1.014,3.299-1.521,5.452-1.521
		c1.809,0,3.354,0.367,4.633,1.1c1.279,0.733,2.246,1.74,2.901,3.019c0.655,1.28,0.983,2.746,0.983,4.399L504.672,202.611z
		 M492.434,195.685c-0.921,0.968-1.521,2.294-1.802,3.979h10.202v-0.188c0-1.747-0.397-3.058-1.193-3.931s-1.927-1.311-3.393-1.311
		C494.625,194.234,493.354,194.719,492.434,195.685z"/>
	<path fill="#FFFFFF" stroke="#2E962D" stroke-miterlimit="10" d="M521.144,191.192c0.437,0.063,0.905,0.156,1.404,0.28
		l-0.749,4.166c-1.061-0.375-2.028-0.563-2.901-0.563c-0.999,0-1.919,0.219-2.761,0.655c-0.843,0.438-1.654,1.264-2.434,2.48v13.946
		h-4.024v-20.545l4.024-0.421v2.948c0.779-0.998,1.685-1.755,2.714-2.27c1.03-0.515,2.122-0.772,3.276-0.772
		C520.224,191.099,520.707,191.13,521.144,191.192z"/>
	<path fill="#FFFFFF" stroke="#2E962D" stroke-miterlimit="10" d="M544.051,184.196c-0.577,0.765-0.866,1.849-0.866,3.252v4.212
		h6.365l-0.421,3.183h-5.944v17.315h-4.024v-17.315h-3.744v-3.183h3.744v-4.118c0-1.56,0.296-2.933,0.89-4.118
		c0.592-1.186,1.442-2.106,2.55-2.762c1.107-0.654,2.41-0.982,3.908-0.982c1.716,0,3.291,0.266,4.727,0.796l-1.029,3.182
		c-1.155-0.404-2.325-0.608-3.51-0.608C545.509,183.049,544.628,183.432,544.051,184.196z"/>
	<path fill="#FFFFFF" stroke="#2E962D" stroke-miterlimit="10" d="M569.768,191.192v20.966h-3.604l-0.234-1.544
		c-2.402,1.403-4.836,2.105-7.301,2.105c-1.903,0-3.456-0.538-4.656-1.614c-1.201-1.076-1.802-2.706-1.802-4.891V191.66l4.024-0.468
		v13.853c0,1.029,0.125,1.849,0.375,2.457c0.249,0.608,0.655,1.046,1.217,1.311s1.341,0.397,2.34,0.397
		c1.497,0,3.369-0.577,5.615-1.731V191.66L569.768,191.192z"/>
	<path fill="#FFFFFF" stroke="#2E962D" stroke-miterlimit="10" d="M589.281,211.409c-1.623,0.873-3.339,1.311-5.147,1.311
		c-1.936,0-3.464-0.555-4.587-1.661c-1.123-1.107-1.685-2.769-1.685-4.984v-11.231h-4.118v-3.183h4.118v-4.633l4.024-0.655v5.288
		h6.927l-0.422,3.183h-6.505v10.576c0,2.621,0.967,3.932,2.901,3.932c0.562,0,1.107-0.063,1.639-0.188
		c0.53-0.124,1.106-0.327,1.731-0.608L589.281,211.409z"/>
	<path fill="#FFFFFF" stroke="#2E962D" stroke-miterlimit="10" d="M610.622,191.192v20.966h-3.604l-0.234-1.544
		c-2.402,1.403-4.836,2.105-7.301,2.105c-1.903,0-3.456-0.538-4.656-1.614c-1.201-1.076-1.802-2.706-1.802-4.891V191.66l4.024-0.468
		v13.853c0,1.029,0.125,1.849,0.375,2.457c0.249,0.608,0.655,1.046,1.217,1.311s1.341,0.397,2.34,0.397
		c1.497,0,3.369-0.577,5.615-1.731V191.66L610.622,191.192z"/>
	<path fill="#FFFFFF" stroke="#2E962D" stroke-miterlimit="10" d="M628.638,191.192c0.437,0.063,0.905,0.156,1.404,0.28
		l-0.749,4.166c-1.061-0.375-2.028-0.563-2.901-0.563c-0.999,0-1.919,0.219-2.761,0.655c-0.843,0.438-1.654,1.264-2.434,2.48v13.946
		h-4.024v-20.545l4.024-0.421v2.948c0.779-0.998,1.685-1.755,2.714-2.27c1.03-0.515,2.122-0.772,3.276-0.772
		C627.718,191.099,628.201,191.13,628.638,191.192z"/>
	<path fill="#FFFFFF" stroke="#2E962D" stroke-miterlimit="10" d="M649.792,202.611h-14.274c0.031,2.34,0.601,4.041,1.709,5.101
		c1.106,1.062,2.534,1.592,4.282,1.592c1.247,0,2.331-0.156,3.252-0.468c0.92-0.312,1.942-0.796,3.065-1.451l1.544,2.854
		c-2.559,1.654-5.241,2.48-8.049,2.48c-2.995,0-5.39-0.834-7.184-2.504c-1.795-1.668-2.691-4.313-2.691-7.933
		c0-2.059,0.375-3.931,1.123-5.615c0.749-1.685,1.864-3.034,3.347-4.048c1.481-1.014,3.299-1.521,5.452-1.521
		c1.809,0,3.354,0.367,4.633,1.1c1.279,0.733,2.246,1.74,2.901,3.019c0.655,1.28,0.983,2.746,0.983,4.399L649.792,202.611z
		 M637.554,195.685c-0.921,0.968-1.521,2.294-1.802,3.979h10.202v-0.188c0-1.747-0.397-3.058-1.193-3.931s-1.927-1.311-3.393-1.311
		C639.745,194.234,638.474,194.719,637.554,195.685z"/>
</g>
</svg>
