<?xml version="1.0" encoding="utf-8"?>
<!-- Generator: Adobe Illustrator 16.0.0, SVG Export Plug-In . SVG Version: 6.00 Build 0)  -->
<!DOCTYPE svg PUBLIC "-//W3C//DTD SVG 1.1//EN" "http://www.w3.org/Graphics/SVG/1.1/DTD/svg11.dtd">
<svg version="1.1" id="Layer_1" xmlns="http://www.w3.org/2000/svg" xmlns:xlink="http://www.w3.org/1999/xlink" x="0px" y="0px"
	 width="767.361px" height="203.472px" viewBox="0 0 767.361 203.472" enable-background="new 0 0 767.361 203.472"
	 xml:space="preserve">
<path fill-rule="evenodd" clip-rule="evenodd" fill="#F07C21" d="M196.5,66.209c4.333,11.073,6.716,23.123,6.716,35.729
	c0,54.173-43.933,98.104-98.103,98.104c-54.173,0-98.104-43.931-98.104-98.104c0-12.607,2.381-24.657,6.714-35.729
	c-1.852,7.369-2.837,15.079-2.837,23.02c0,52.031,42.194,94.225,94.227,94.225c52.029,0,94.226-42.194,94.226-94.225
	C199.339,81.288,198.352,73.578,196.5,66.209"/>
<path fill-rule="evenodd" clip-rule="evenodd" fill="#FFC906" d="M105.114,4.159c48.728,0,88.245,39.518,88.245,88.249
	c0,17.067-4.853,33.002-13.246,46.505c5.508-11.148,8.608-23.698,8.608-36.972c0-46.168-37.442-83.609-83.609-83.609
	c-46.167,0-83.609,37.441-83.609,83.609c0,13.274,3.101,25.824,8.608,36.972c-8.394-13.503-13.246-29.438-13.246-46.505
	C16.866,43.677,56.383,4.159,105.114,4.159"/>
<path fill-rule="evenodd" clip-rule="evenodd" fill="#00A34C" d="M104.539,180.502c-6.253,0.159-11.63-0.98-14.45-2.381
	c9.461-15.219,14.467-47.614,0.825-61.105c-6.525-6.454-18.915-1.555-26.835-6.192c-6.577-3.851-16.218-15.521-14.95-17.667
	c2.226-3.763,9.65,7.425,15.775,10.25c3.374,1.557,10.929,4.146,13.278,1.116c2.112-2.726-9.596-5.133-6.156-8.784
	c3.261-3.463,25.844,14.568,32.513,24.167c6.67-9.599,29.253-27.63,32.515-24.167c3.44,3.65-8.27,6.058-6.157,8.784
	c2.349,3.029,9.904,0.44,13.279-1.116c6.125-2.825,13.547-14.013,15.773-10.25c1.27,2.146-8.373,13.816-14.948,17.667
	c-7.923,4.638-20.312-0.262-26.837,6.192c-13.641,13.491-8.635,45.887,0.827,61.105C116.17,179.522,110.794,180.662,104.539,180.502
	"/>
<path fill-rule="evenodd" clip-rule="evenodd" fill="#00A450" d="M62.825,117.689c-5.015-16.232-21.139-3.726-29.891-3.702
	c9.658,18.989,27.312,15.872,30.164,5.895c-3.754,0.845-7.688,0.594-11.807-0.754C55.217,118.97,59.084,118.58,62.825,117.689"/>
<path fill-rule="evenodd" clip-rule="evenodd" fill="#A4CC39" d="M49.193,87.052c0.44-12.225-13.486-7.545-19.441-9.606
	c2.062,15.2,14.804,17.267,19.108,11.161c-2.752-0.316-5.368-1.42-7.848-3.313C43.717,86.118,46.439,86.77,49.193,87.052"/>
<path fill-rule="evenodd" clip-rule="evenodd" fill="#A4CC39" d="M77.721,125.88c-9.918-5.338-11.722,8.07-15.848,12.152
	c13.396,4.482,20.288-5.202,16.996-11.243c-1.381,2.146-3.357,3.855-5.929,5.135C74.721,130.024,76.367,128.041,77.721,125.88"/>
<path fill-rule="evenodd" clip-rule="evenodd" fill="#00A450" d="M63.604,62.9c4.122-12.564-11.744-11.88-17.312-15.804
	C43.878,63.5,56.491,69.465,62.792,64.414c-2.764-1.151-5.148-3.083-7.158-5.792C58.199,60.288,60.829,61.781,63.604,62.9"/>
<path fill-rule="evenodd" clip-rule="evenodd" fill="#00A450" d="M85.15,53.306c8.848-9.825-5.941-15.612-9.446-21.454
	c-8.84,14.028,0.285,24.583,8.089,22.51c-2.063-2.17-3.462-4.901-4.205-8.19C81.26,48.731,83.063,51.161,85.15,53.306"/>
<path fill-rule="evenodd" clip-rule="evenodd" fill="#A4CC39" d="M117.674,46.613c13.221,0.157,7.801-14.771,9.871-21.26
	c-16.372,2.626-18.271,16.449-11.56,20.94c0.269-2.982,1.394-5.837,3.374-8.567C118.54,40.673,117.906,43.63,117.674,46.613"/>
<path fill-rule="evenodd" clip-rule="evenodd" fill="#BDD248" d="M86.304,90.679c7.917-15.033-12.331-17.571-18.542-23.737
	c-6.579,20.265,8.121,30.527,17.186,25.48c-3.254-2.052-5.86-5.011-7.825-8.873C80.016,86.209,83.028,88.665,86.304,90.679"/>
<path fill-rule="evenodd" clip-rule="evenodd" fill="#00A450" d="M105.218,68.835c13.136-9.096-2.647-20.012-5.148-27.854
	c-14.292,14.041-6.493,28.989,3.26,28.72c-1.822-3.127-2.709-6.726-2.669-10.801C101.915,62.375,103.36,65.733,105.218,68.835"/>
<path fill-rule="evenodd" clip-rule="evenodd" fill="#BDD248" d="M124.412,69.36c14.695,6.27,15.524-12.902,20.829-19.197
	c-19.497-4.614-27.992,9.949-22.568,18.059c1.676-3.208,4.249-5.876,7.719-8.013C128.119,63.122,126.048,66.135,124.412,69.36"/>
<path fill-rule="evenodd" clip-rule="evenodd" fill="#A4CC39" d="M111.941,93.367c11.601,7.617,15.254-8.645,20.754-13.211
	c-15.958-6.94-25.457,4.205-22.066,11.972c1.925-2.485,4.536-4.372,7.831-5.666C116.068,88.605,113.835,90.862,111.941,93.367"/>
<path fill-rule="evenodd" clip-rule="evenodd" fill="#00A450" d="M151.275,70.838c11.601,7.618,15.254-8.645,20.754-13.211
	c-15.957-6.939-25.456,4.206-22.066,11.972c1.924-2.485,4.535-4.372,7.83-5.664C155.402,66.077,153.169,68.333,151.275,70.838"/>
<path fill-rule="evenodd" clip-rule="evenodd" fill="#00A450" d="M163.736,94.667c10.246,9.36,16.431-6.119,22.585-9.755
	c-14.656-9.38-25.802,0.117-23.684,8.323c2.293-2.148,5.17-3.598,8.627-4.353C168.565,90.619,166.002,92.492,163.736,94.667"/>
<path fill-rule="evenodd" clip-rule="evenodd" fill="#A4CC39" d="M150.118,117.949c-0.585,13.865,15.247,8.654,21.99,11.033
	c-2.234-17.258-16.674-19.691-21.6-12.795c3.119,0.377,6.078,1.647,8.879,3.813C156.324,119.047,153.241,118.289,150.118,117.949"/>
<path fill-rule="evenodd" clip-rule="evenodd" fill="#00A450" d="M123.467,128.308c2.889,17.972,21.866,7.118,31.155,8.403
	c-7.4-21.591-26.598-20.927-31.115-10.77c4.107-0.335,8.244,0.522,12.411,2.566C131.729,128.088,127.568,127.923,123.467,128.308"/>
<path fill="#FCFCFC" d="M587.741,62.906L587.741,62.906h-3.207v3.46h3.207V62.906z M580.767,62.906L580.767,62.906h-3.205v3.46
	h3.205V62.906z M580.361,89.323L580.361,89.323c7.429,0,6.921-8.143,6.821-13.743c-3.312,0.104-11.812-1.12-12.271,7.331
	C574.811,84.744,575.932,89.323,580.361,89.323z M579.901,91.767c-4.019,0-7.942-3.717-7.838-8.807
	c0.151-7.736,6.313-10.536,15.119-9.926v-2.187l2.748-0.866l0.051,15.676c0.151,3.921,2.339,6.109,6.056,6.109h2.799v2.596h-3.511
	c-5.753,0-7.433-3.921-7.889-6.974C587.437,87.389,585.4,91.767,579.901,91.767z"/>
<rect x="577.562" y="62.906" fill="#FCFCFC" width="3.205" height="3.46"/>
<rect x="584.534" y="62.906" fill="#FCFCFC" width="3.207" height="3.46"/>
<path fill="#FCFCFC" d="M598.379,94.363v-2.596h4.582c3.766,0,6.055-2.24,6.055-6.263V73.291h2.751v11.197
	c0,4.123,2.036,7.891,6.566,7.891c3.765,0,6.056-2.342,6.056-6.312V73.291h2.747v11.197c0,4.123,2.036,7.891,6.566,7.891
	c3.768,0,6.06-2.342,6.06-6.312V71.662h2.748v13.54c0.458,3.512,2.188,6.566,6.565,6.566h2.599v2.596h-2.189
	c-3.512,0-6.517-2.596-7.381-4.328l-0.206-0.308c-0.864,2.598-2.798,5.195-7.48,5.195c-3.564,0-6.21-2.342-7.939-5.041
	c-0.968,3.005-3.82,5.041-7.433,5.041c-3.001,0-5.6-1.324-7.178-4.174c-0.307-0.408-0.56-0.866-0.816-1.322
	c-0.864,2.493-2.85,4.937-7.38,4.937H598.379z"/>
<path fill="#FCFCFC" d="M651.419,94.363v-2.596h4.379c3.767,0,6.055-2.24,6.055-6.263V73.291h2.751v11.197
	c0,4.123,2.036,7.891,6.566,7.891c3.764,0,6.056-2.342,6.056-6.312V73.291h2.748v11.197c0,4.123,2.035,7.891,6.565,7.891
	c3.768,0,6.06-2.342,6.06-6.312V71.662h2.748v13.946c0,2.647-0.612,9.315-8.092,9.315c-3.565,0-6.211-2.342-7.94-5.041
	c-0.969,3.005-3.82,5.041-7.433,5.041c-3.002,0-5.601-1.324-7.18-4.174c-0.304-0.408-0.558-0.866-0.813-1.322
	c-0.865,2.493-2.851,4.937-7.381,4.937H651.419z"/>
<path fill="#FCFCFC" d="M714.538,67.182L714.538,67.182c1.119,0,2.24-0.458,3.104-1.783l-1.527-1.321
	c-0.308,0.814-1.017,1.068-1.478,1.068h-4.121v-2.749c0-1.985,0.71-3.513,2.392-3.513c1.222,0,2.139,0.764,2.19,2.139h1.985
	c-0.154-2.494-1.985-4.021-4.126-4.021c-3.257,0-4.479,2.596-4.479,5.396v2.749h-1.833l-0.712,2.036H714.538z M719.069,91.767
	L719.069,91.767V74.206h-6.007c-5.245,0-8.246,4.835-8.246,8.705c0,4.377,3.001,8.856,8.246,8.856H719.069z M721.816,94.363v0.05
	c0,5.905-4.125,9.01-9.314,8.704c-2.089-0.153-4.479-1.018-5.042-1.374l-0.302-2.545c2.084,1.172,3.765,1.272,5.038,1.322
	c4.121,0.153,6.821-2.239,6.873-6.158h-6.007c-6.518,0-11.301-4.887-11.301-10.996c0-6.057,4.324-11.706,11.301-11.706h8.754v20.105
	h7.48v2.596H721.816z"/>
<path fill="#FCFCFC" d="M749.914,72.985L749.914,72.985c-5.55,0-7.841,5.395-7.841,9.669c0,4.226,2.291,9.671,7.841,9.671
	c5.548,0,7.735-5.038,7.735-9.671C757.649,78.38,755.462,72.985,749.914,72.985 M729.094,94.365v-2.598h4.074
	c3.768,0,6.055-2.341,6.055-6.312v-2.801c0-5.599,3.362-12.165,10.691-12.165c7.33,0,10.688,6.566,10.688,12.165
	c0,5.702-3.358,12.167-10.688,12.167c-4.224,0-7.127-2.089-8.806-4.94c-0.969,2.292-3.054,4.483-7.278,4.483H729.094z"/>
<path fill="#FCFCFC" d="M264.873,66.173L264.873,66.173h-3.207v3.462h3.207V66.173z M257.898,66.173L257.898,66.173h-3.204v3.462
	h3.204V66.173z M257.492,92.59L257.492,92.59c7.431,0,6.921-8.144,6.82-13.744c-3.309,0.103-11.809-1.12-12.267,7.331
	C251.943,88.01,253.062,92.59,257.492,92.59z M257.033,95.033c-4.019,0-7.94-3.715-7.837-8.805
	c0.149-7.736,6.312-10.536,15.117-9.926v-2.188l2.748-0.866l0.053,15.677c0.15,3.921,2.34,6.108,6.055,6.108h2.8v2.598h-3.51
	c-5.753,0-7.433-3.921-7.889-6.975C264.568,90.656,262.53,95.033,257.033,95.033z"/>
<rect x="254.694" y="66.173" fill="#FCFCFC" width="3.204" height="3.462"/>
<rect x="261.666" y="66.173" fill="#FCFCFC" width="3.207" height="3.462"/>
<path fill="#FCFCFC" d="M288.692,106.486L288.692,106.486h-3.205v-3.461h3.205V106.486z M281.72,106.486L281.72,106.486h-3.207
	v-3.461h3.207V106.486z M275.509,97.631v-2.598h4.175c3.767,0,6.058-2.239,6.058-6.261V76.557h2.748V87.5
	c0.104,4.225,2.24,7.533,6.923,7.533h2.085v2.598h-1.626c-3.92,0-7.025-2.546-8.045-5.041c-0.863,2.545-2.849,5.041-7.429,5.041
	H275.509z"/>
<rect x="278.513" y="103.025" fill="#FCFCFC" width="3.207" height="3.461"/>
<rect x="285.488" y="103.025" fill="#FCFCFC" width="3.205" height="3.461"/>
<path fill="#FCFCFC" d="M315.571,79.712L315.571,79.712c-5.5,0-7.737,5.447-7.737,9.672c0,4.275,2.238,9.671,7.737,9.671
	c5.547,0,7.787-5.396,7.787-9.671C323.358,85.16,321.118,79.712,315.571,79.712 M298.773,95.033c1.83,0,5.904-1.068,6.105-6.108
	c0.305-5.548,3.717-11.707,10.692-11.707c7.075,0,10.485,6.109,10.741,11.554c0.507,3.361,2.238,6.261,6.515,6.261h2.593v2.598
	h-2.187c-3.511,0-6.569-2.598-7.434-4.328c-1.272,4.582-4.784,8.246-10.228,8.246c-4.939,0-8.402-3.052-9.826-6.975
	c-0.917,1.479-3.053,3.057-6.516,3.057h-2.188v-2.598H298.773z"/>
<path fill="#FCFCFC" d="M348.096,69.634L348.096,69.634h-3.207v-3.462h3.207V69.634z M334.963,97.631v-2.598h4.175
	c3.765,0,6.056-2.239,6.056-6.261V76.557h2.751V87.5c0.101,4.225,2.239,7.533,6.92,7.533h2.088v2.598h-1.629
	c-3.92,0-7.026-2.546-8.042-5.041c-0.867,2.545-2.852,5.041-7.433,5.041H334.963z"/>
<rect x="344.889" y="66.171" fill="#FCFCFC" width="3.207" height="3.462"/>
<path fill="#FCFCFC" d="M369.627,69.634L369.627,69.634h-3.208v-3.462h3.208V69.634z M362.656,69.634L362.656,69.634h-3.208v-3.462
	h3.208V69.634z M356.493,97.631v-2.598h4.179c3.763,0,6.054-2.239,6.054-6.261V76.557h2.75V87.5c0.1,4.225,2.241,7.533,6.92,7.533
	h2.09v2.598h-1.629c-3.921,0-7.027-2.546-8.043-5.041c-0.865,2.545-2.85,5.041-7.433,5.041H356.493z"/>
<rect x="359.448" y="66.171" fill="#FCFCFC" width="3.208" height="3.462"/>
<rect x="366.419" y="66.171" fill="#FCFCFC" width="3.208" height="3.462"/>
<path fill="#FCFCFC" d="M377.568,97.631v-2.598h4.633c3.765,0,6.054-2.239,6.054-6.261V64.595h2.752V87.5
	c0,4.225,2.24,7.533,6.92,7.533h3.613v2.598h-3.151c-3.924,0-7.028-2.546-8.045-5.041c-0.866,2.545-2.852,5.041-7.433,5.041H377.568
	z"/>
<path fill="#FCFCFC" d="M401.085,97.631v-2.598h4.379c3.768,0,6.055-2.239,6.055-6.261V64.595h2.751v23.771
	c0,2.646-0.611,9.265-8.095,9.265H401.085z"/>
<path fill="#FCFCFC" d="M447.1,62.965L447.1,62.965h-3.207v3.409h3.207V62.965z M440.128,62.965L440.128,62.965h-3.207v3.409h3.207
	V62.965z M447.05,75.794L447.05,75.794h-7.786c-5.347,0-7.687,5.294-7.687,9.62c0,4.375,2.29,9.721,7.687,9.721
	c5.648,0,7.786-5.446,7.786-9.721V75.794z M450.054,85.414c0,6.108-3.41,12.217-10.79,12.217c-7.23,0-10.64-6.109-10.64-12.217
	c0-6.109,3.564-12.114,10.64-12.114h10.79V85.414z"/>
<rect x="436.921" y="62.965" fill="#FCFCFC" width="3.207" height="3.409"/>
<rect x="443.893" y="62.965" fill="#FCFCFC" width="3.207" height="3.409"/>
<path fill="#FCFCFC" d="M452.342,97.631l1.021-2.598h3.409v-5.598c0-4.836,1.986-9.365,8.041-9.365c3.514,0,6.415,2.544,6.718,6.463
	h-2.897c-0.156-2.545-1.58-4.072-3.92-4.072c-3.819,0-5.193,3.156-5.193,6.923v5.649h7.941c0.966,0,2.492-0.456,2.901-1.526
	l1.934,1.475c-1.222,1.936-3.104,2.648-5.09,2.648H452.342z"/>
<path fill="#FCFCFC" d="M487.718,97.631c-7.48,0-8.092-6.619-8.092-9.265V64.595h2.748v24.178c0,4.022,2.289,6.261,6.006,6.261
	h2.441v2.598H487.718z"/>
<path fill="#FCFCFC" d="M506.909,68.006L506.909,68.006h-3.208v-3.412h3.208V68.006z M505.433,93.762L505.433,93.762
	c3.255-1.477,7.126-4.479,7.178-9.722c0-3.462-2.647-7.891-7.178-7.891s-7.179,4.428-7.179,7.891
	C498.357,89.282,502.174,92.285,505.433,93.762z M515.358,83.988c-0.052,5.447-3.156,8.858-6.566,10.843
	c0.611,0.151,1.02,0.202,1.222,0.202H520.5v2.598h-9.62c-0.866,0-3.006-0.306-5.447-1.172c-2.395,0.866-4.634,1.172-5.447,1.172
	h-9.57v-2.598h10.435c0.203,0,0.665-0.051,1.275-0.202c-3.514-1.985-6.618-5.396-6.618-10.843c0-5.142,3.716-10.129,9.926-10.129
	C511.692,73.859,515.358,78.847,515.358,83.988z"/>
<rect x="503.701" y="64.595" fill="#FCFCFC" width="3.208" height="3.412"/>
<path fill="#FCFCFC" d="M559.489,86.839c0,6.057-4.785,10.792-11.352,10.792h-27.841v-2.598h27.841c5.244,0,8.4-4.276,8.4-8.653
	c0-3.919-3.156-8.907-8.4-8.907h-21.274c0-7.024,5.904-12.879,12.928-12.879h6.107v2.292h-5.547c-4.836,0-9.621,3.664-10.485,7.99
	h18.271C555.112,74.876,559.489,80.73,559.489,86.839"/>
<path fill="#FCFCFC" d="M283.15,128.668L283.15,128.668c-3.297,0.294-3.882,1.99-3.882,3.757c0,1.657,0.507,3.65,4.19,3.65
	c2.101,0,3.417-0.554,5.082-1.477v-6.412L283.15,128.668z M283.925,121.481c-2.596,0-4.303,0.444-5.818,0.923v-2.211
	c1.708-0.698,3.96-0.993,5.818-0.993c5.824,0,7.337,2.506,7.337,6.188v12.601h-1.514l-0.584-1.472
	c-1.746,1.215-3.839,1.842-5.775,1.842c-5.091,0-6.869-2.837-6.869-5.934c0-2.764,1.121-5.267,6.828-5.747l5.192-0.294v-1.031
	C288.541,122.662,287.535,121.481,283.925,121.481z M308.609,112.567c-0.775-0.187-1.511-0.296-2.715-0.296
	c-2.519,0-4.386,0.848-4.386,3.243v4.056h6.136v2.021h-6.136v16.397h-2.592v-16.397h-3.882v-1.139l3.882-1.071v-3.867
	c0-3.537,2.129-5.527,6.978-5.527c0.82,0,1.94,0.073,2.715,0.257V112.567z M316.993,128.668L316.993,128.668
	c-3.296,0.294-3.879,1.99-3.879,3.757c0,1.657,0.508,3.65,4.188,3.65c2.098,0,3.421-0.554,5.084-1.477v-6.412L316.993,128.668z
	 M317.767,121.481c-2.595,0-4.307,0.444-5.818,0.923v-2.211c1.709-0.698,3.96-0.993,5.818-0.993c5.822,0,7.34,2.506,7.34,6.188
	v12.601h-1.519l-0.58-1.472c-1.747,1.215-3.841,1.842-5.786,1.842c-5.077,0-6.867-2.837-6.867-5.934
	c0-2.764,1.128-5.267,6.829-5.747l5.2-0.294v-1.031C322.385,122.662,321.377,121.481,317.767,121.481z M336.591,128.668
	L336.591,128.668c-3.297,0.294-3.875,1.99-3.875,3.757c0,1.657,0.5,3.65,4.184,3.65c2.099,0,3.42-0.554,5.088-1.477v-6.412
	L336.591,128.668z M337.37,121.481c-2.599,0-4.307,0.444-5.818,0.923v-2.211c1.705-0.698,3.956-0.993,5.818-0.993
	c5.822,0,7.335,2.506,7.335,6.188v12.601h-1.514l-0.587-1.472c-1.739,1.215-3.839,1.842-5.778,1.842
	c-5.081,0-6.866-2.837-6.866-5.934c0-2.764,1.122-5.267,6.823-5.747l5.205-0.294v-1.031
	C341.989,122.662,340.976,121.481,337.37,121.481z M360.264,135.557L360.264,135.557h5.32c6.983,0,9.119-4.751,9.119-11.385
	c0-6.633-2.135-11.387-9.119-11.387h-5.32V135.557z M357.511,137.989v-27.635h7.918c9.507,0,12.257,5.969,12.257,13.818
	c0,7.849-2.75,13.816-12.257,13.816H357.511z M385.266,127.857L385.266,127.857h10.085c0-3.28-0.194-6.376-4.651-6.376
	C386.192,121.481,385.381,124.54,385.266,127.857z M390.699,119.198c6.587,0,7.367,4.274,7.367,9.581v1.18h-12.801
	c0.153,3.206,1.047,6.117,5.434,6.117c2.789,0,4.495-0.26,6.396-1.035v2.213c-2.17,0.92-4.498,1.105-6.396,1.105
	c-6.563,0-8.158-4.276-8.158-9.58C382.542,123.472,384.137,119.198,390.699,119.198z M403.58,119.568l5.549,15.105l5.55-15.105
	h2.989l-7.569,18.791h-1.94l-7.562-18.791H403.58z M422.907,127.857L422.907,127.857h10.091c0-3.28-0.193-6.376-4.657-6.376
	C423.835,121.481,423.022,124.54,422.907,127.857z M428.341,119.198c6.594,0,7.367,4.274,7.367,9.581v1.18h-12.801
	c0.154,3.206,1.052,6.117,5.434,6.117c2.795,0,4.501-0.26,6.396-1.035v2.213c-2.17,0.92-4.497,1.105-6.396,1.105
	c-6.558,0-8.15-4.276-8.15-9.58C420.19,123.472,421.783,119.198,428.341,119.198z M441.387,134.305v-23.951h2.633v24.245
	c0,1.289,0.425,1.659,1.631,1.659v2.101C442.853,138.359,441.387,137.253,441.387,134.305z M458.226,121.481L458.226,121.481
	c-5.119,0-5.434,3.133-5.434,7.298c0,4.164,0.314,7.297,5.434,7.297c5.044,0,5.431-3.133,5.431-7.297
	C463.656,124.614,463.27,121.481,458.226,121.481z M458.226,138.359c-6.636,0-8.153-3.943-8.153-9.58
	c0-5.638,1.518-9.581,8.153-9.581c6.668,0,8.144,3.943,8.144,9.581C466.369,134.416,464.894,138.359,458.226,138.359z
	 M476.229,135.705L476.229,135.705c0.898,0.259,1.95,0.371,3.339,0.371c4.66,0,5.238-3.65,5.238-7.297
	c0-3.65-0.578-7.298-5.238-7.298c-2.525,0-3.914,0.404-5.428,1.181v12.234C474.717,135.187,475.418,135.448,476.229,135.705z
	 M479.568,138.359c-1.783,0-3.764-0.479-5.428-1.512v10.354h-2.722v-27.633h1.515l0.579,1.509c2.02-1.215,3.962-1.879,6.056-1.879
	c6.249,0,7.96,4.274,7.96,9.581C487.528,134.083,485.817,138.359,479.568,138.359z M515.465,124.614
	c0-2.395-1.479-3.133-3.689-3.133c-2.401,0-3.721,0.444-5.274,1.218c0.156,0.59,0.231,1.215,0.231,1.915v13.375h-2.716v-13.375
	c0-2.395-1.477-3.133-3.684-3.133c-2.255,0-3.53,0.372-5.047,1.105v15.402h-2.717v-18.421h1.517l0.582,1.509
	c1.863-1.29,3.879-1.879,5.665-1.879c2.6,0,4.42,0.701,5.434,2.101c2.019-1.326,4.074-2.101,6.009-2.101
	c4.154,0,6.404,1.842,6.404,5.526v13.265h-2.715V124.614z M525.755,127.857L525.755,127.857h10.088c0-3.28-0.192-6.376-4.657-6.376
	C526.685,121.481,525.87,124.54,525.755,127.857z M531.186,119.198c6.593,0,7.373,4.274,7.373,9.581v1.18h-12.804
	c0.156,3.206,1.047,6.117,5.431,6.117c2.793,0,4.5-0.26,6.401-1.035v2.213c-2.168,0.92-4.497,1.105-6.401,1.105
	c-6.561,0-8.152-4.276-8.152-9.58C523.033,123.472,524.625,119.198,531.186,119.198z M555.441,124.614
	c0-2.395-1.474-3.133-3.883-3.133c-2.518,0-3.799,0.404-5.241,1.181v15.327h-2.712v-18.421h1.517l0.58,1.546
	c1.825-1.289,3.799-1.916,5.856-1.916c4.621,0,6.597,1.989,6.597,5.526v13.265h-2.714V124.614z M573.566,138.246
	c-0.503,0.074-1.012,0.113-1.515,0.113c-3.221,0.183-6.326-1.218-6.437-4.827v-11.94h-3.883v-1.139l3.883-1.071v-4.973l2.716-0.738
	v5.897h6.009v2.023h-6.009v11.866c0.153,2.247,1.43,2.872,3.721,2.872c0.503,0,1.012-0.037,1.515-0.071V138.246z M600.775,124.872
	h-11.752v13.117h-2.622v-27.635h15.662v2.432h-13.04v9.654h11.752V124.872z M613.311,121.481L613.311,121.481
	c-4.869,0-5.162,3.133-5.162,7.298c0,4.164,0.293,7.297,5.162,7.297c4.783,0,5.157-3.133,5.157-7.297
	C618.468,124.614,618.094,121.481,613.311,121.481z M613.311,138.359c-6.308,0-7.74-3.943-7.74-9.58c0-5.638,1.433-9.581,7.74-9.581
	c6.332,0,7.734,3.943,7.734,9.581C621.045,134.416,619.643,138.359,613.311,138.359z M628.235,133.053
	c0,2.395,1.4,3.133,3.687,3.133c2.396,0,3.612-0.407,4.974-1.183v-15.436h2.579v18.421h-1.437l-0.557-1.546
	c-1.727,1.289-3.605,1.916-5.56,1.916c-4.385,0-6.266-1.989-6.266-5.529v-13.262h2.579V133.053z M655.879,124.614
	c0-2.395-1.4-3.133-3.687-3.133c-2.396,0-3.613,0.404-4.975,1.181v15.327h-2.579v-18.421h1.437l0.552,1.546
	c1.731-1.289,3.609-1.916,5.565-1.916c4.385,0,6.264,1.989,6.264,5.526v13.265h-2.577V124.614z M673.785,121.853L673.785,121.853
	c-0.844-0.262-1.844-0.372-3.167-0.372c-4.421,0-4.977,3.647-4.977,7.298c0,3.646,0.556,7.297,4.977,7.297
	c2.285,0,3.57-0.334,5.157-1.18v-12.234C675.15,122.33,674.483,122.11,673.785,121.853z M670.618,119.198
	c1.729,0,3.426,0.518,5.157,1.512v-10.355h2.584v27.635h-1.438l-0.552-1.509c-1.922,1.215-3.758,1.879-5.751,1.879
	c-5.933,0-7.555-4.276-7.555-9.58C663.063,123.472,664.686,119.198,670.618,119.198z M689.267,128.668L689.267,128.668
	c-3.129,0.294-3.688,1.99-3.688,3.757c0,1.657,0.484,3.65,3.981,3.65c1.99,0,3.246-0.554,4.826-1.477v-6.412L689.267,128.668z
	 M690,121.481c-2.461,0-4.09,0.444-5.523,0.923v-2.211c1.624-0.698,3.761-0.993,5.523-0.993c5.531,0,6.971,2.506,6.971,6.188v12.601
	h-1.439l-0.552-1.472c-1.659,1.215-3.65,1.842-5.487,1.842c-4.832,0-6.529-2.837-6.529-5.934c0-2.764,1.073-5.267,6.487-5.747
	l4.937-0.294v-1.031C694.387,122.662,693.431,121.481,690,121.481z M711.784,138.246c-0.478,0.074-0.956,0.113-1.433,0.113
	c-3.057,0.183-6.008-1.218-6.119-4.827v-11.94h-3.686v-1.139l3.686-1.071v-4.973l2.579-0.738v5.897h5.713v2.023h-5.713v11.866
	c0.146,2.247,1.365,2.872,3.54,2.872c0.477,0,0.955-0.037,1.433-0.071V138.246z M716.988,134.305L716.988,134.305v-14.737h2.5
	v15.031c0,1.289,0.409,1.659,1.549,1.659v2.101C718.388,138.359,716.988,137.253,716.988,134.305z M718.238,110.722
	c1.145,0,2.027,0.885,2.027,2.029c0,1.14-0.883,2.023-2.027,2.023c-1.14,0-2.026-0.884-2.026-2.023
	C716.212,111.607,717.099,110.722,718.238,110.722z M732.979,121.481L732.979,121.481c-4.863,0-5.162,3.133-5.162,7.298
	c0,4.164,0.299,7.297,5.162,7.297c4.788,0,5.156-3.133,5.156-7.297C738.136,124.614,737.768,121.481,732.979,121.481z
	 M732.979,138.359c-6.302,0-7.741-3.943-7.741-9.58c0-5.638,1.439-9.581,7.741-9.581c6.337,0,7.741,3.943,7.741,9.581
	C740.721,134.416,739.316,138.359,732.979,138.359z M756.752,124.614c0-2.395-1.399-3.133-3.687-3.133
	c-2.395,0-3.607,0.404-4.973,1.181v15.327h-2.579v-18.421h1.435l0.556,1.546c1.729-1.289,3.608-1.916,5.562-1.916
	c4.391,0,6.265,1.989,6.265,5.526v13.265h-2.578V124.614z M256.691,127.378v10.61h-2.684v-27.635h2.684v13.781l11.98-13.781h3.568
	l-11.329,12.382l12.495,15.253h-3.605l-10.593-13.375L256.691,127.378z"/>
</svg>
