<?xml version="1.0" encoding="utf-8"?>
<!-- Generator: Adobe Illustrator 16.0.0, SVG Export Plug-In . SVG Version: 6.00 Build 0)  -->
<!DOCTYPE svg PUBLIC "-//W3C//DTD SVG 1.1//EN" "http://www.w3.org/Graphics/SVG/1.1/DTD/svg11.dtd">
<svg version="1.1" id="Layer_1" xmlns="http://www.w3.org/2000/svg" xmlns:xlink="http://www.w3.org/1999/xlink" x="0px" y="0px"
	 width="338.167px" height="168.605px" viewBox="0 0 338.167 168.605" enable-background="new 0 0 338.167 168.605"
	 xml:space="preserve">
<g>
	<path fill-rule="evenodd" clip-rule="evenodd" fill="#AD1928" d="M17.466,75.724v9.181l13.082-0.001
		c0.291-1.342,0.121-3.475,0.117-4.921c-0.008-2.798-0.398-2.668,1.286-3.995c1.395-1.098,2.171-0.748,4.235-0.746
		c1.215,0.001,4.215-0.152,5.223,0.035c0.736,0.136,2.523,1.691,2.75,2.232c0.326,0.778,0.125,13.889,0.129,15.375l-26.822,0.06
		v12.959l64.38,0.001v-12.96l-24.359-0.001l0.03-8.188l24.33-11.506l-0.1-15.275L55.867,70.861c-0.041-0.04-0.094-0.101-0.115-0.128
		c-1.363-1.602-1.58-2.281-3.5-3.93c-1.238-1.063-2.51-2.361-4.266-3.188c-4.087-1.922-8.869-1.326-13.721-1.334
		c-5.939-0.012-7.57,1.322-10.924,4.127C17.441,71.343,19.141,72.442,17.466,75.724"/>
	<path fill-rule="evenodd" clip-rule="evenodd" fill="#AD1928" d="M17.888,137.161l13.199-0.008c0-3.533-0.524-5.762,0.873-7.153
		c2.037-2.025,1.967-2.382,5.906-2.377l24.24,0.001c4.412-0.002,3.646-0.27,6.124,2.149c1.463,1.428,0.954,4.671,0.954,7.329
		c0,2.286,0.217,5.986-0.088,8.102H17.888l0.006,12.96l64.463-0.004c0.3-5.16,0.031-11.09,0.031-16.257
		c0-12.115,1.68-16.563-8.09-24.43c-4.113-3.312-7.261-2.871-13.392-2.871c-5.44,0-10.88,0-16.32,0
		c-4.321,0-11.751-0.55-15.284,0.976c-2.545,1.099-7.533,5.633-8.898,7.421C17.371,126.971,17.882,131.429,17.888,137.161"/>
	<path fill-rule="evenodd" clip-rule="evenodd" fill="#AD1928" d="M138.607,126.303v19.92c0,1.509,1.589,3.302,3.18,3.302h7.92
		c0.852,0,1.67-1.124,2.162-1.619c0.928-0.934,0.666-1.688,0.658-3.361v-16.321c0.012-3.288,0.152-2.666-1.51-4.434
		c-0.456-0.486-0.494-0.788-1.311-0.788l-7.92,0.001c-1.152,0.001-1.451,0.422-2.008,1.053
		C139.233,124.674,138.607,125.177,138.607,126.303 M139.132,158.463h12.779c0.955-0.495,2.109-0.731,3.155-1.354
		c1.721-1.023,5.241-4.914,5.917-7.044c0.838-2.641,0.422-13.458,0.422-17.043c0-2.634,0.211-6.295-0.055-8.809
		c-0.316-2.989-1.65-3.97-2.93-5.666c-3.871-5.133-7.512-4.544-12.795-4.544c-7.971,0-9.075,0.12-12.963,4.624
		c-4.029,4.666-2.938,6.743-2.938,14.395c0,3.434-0.396,14.678,0.445,17.133c0.646,1.886,2.537,3.916,3.604,5.038
		C136.419,157.977,137.56,157.6,139.132,158.463z"/>
	<path fill-rule="evenodd" clip-rule="evenodd" fill="#9D9EA2" d="M103.028,45.244c2.519-0.009,5.047-0.022,7.562,0.003
		c2.08,0.02,4.376-0.75,4.376-3.184l-0.001-19.201c0.004-1.645-1.627-3.479-3.178-3.479h-8.76L103.028,45.244z M94.146,53.343
		l0.066,0.903c4.059-0.002,17.963,0.485,20.809-0.305c2.799-0.776,4.784-2.933,6.129-4.442c2.348-2.635,2.646-3.452,2.639-7.916
		c-0.006-3.904,0.201-18.547-0.043-21.117c-0.287-3.038-2.416-5.059-3.838-6.684c-1.443-1.648-3.688-3.401-7.161-3.401H94.146
		V53.343z"/>
	<path fill-rule="evenodd" clip-rule="evenodd" fill="#AD1928" d="M55.33,21.903l0.054,0.903c3.079-0.006,6.345-0.111,9.381-0.017
		c2.036,0.063,4.899,2.957,4.9,4.634l0.001,9.84c0,1.655-2.908,3.989-3.197,4.119c-1,0.449-25.072,0.227-28.844,0.199
		c-3.194-0.024-3.082,0.749-5.286,2.149c-1.456,0.926-2.851,1.923-4.274,2.923c-1.359,0.955-3.307,1.901-4.357,3.09
		c2.584,3.072,6.314,4.799,10.561,4.799h32.399c5.288,0,8.378-3.093,10.831-5.488c2.475-2.414,5.369-5.408,5.369-10.831l0.001-11.04
		c0.001-2.459-0.731-4.77-1.804-6.475c-1.455-2.316-6.131-6.638-8.604-8.194c-1.681-1.058-3.721-2.133-6.273-2.132l-10.859,0.002
		L55.33,21.903z"/>
	<path fill-rule="evenodd" clip-rule="evenodd" fill="#AD1928" d="M103.208,80.583c11.104,0.018,11.818,1.259,11.819-4.68
		c0-5.668-0.015-4.383-11.91-4.506C102.902,72.86,102.812,79.382,103.208,80.583 M94.146,106.052
		c1.548,0.299,7.247,0.254,8.888,0.041l-0.007-16.511h4.711l8.238,15.715c0.484,0.849,0.158,0.585,0.851,0.905h9.942l-9.377-17.288
		c0.641-0.833,6.453-3.722,6.453-9.651c0-7.501,0.814-8.526-3.119-13.257c-1.342-1.613-3.271-3.281-6.534-3.554
		c-2.161-0.182-18.769-0.249-20.045,0.102L94.146,106.052z"/>
	<path fill-rule="evenodd" clip-rule="evenodd" fill="#AD1928" d="M203.466,157.263l0.047,0.901l8.729-0.008
		c0.402-6.726-0.363-17.778,0.115-24.115c0.873,1.16,2.279,4.468,3.029,6.021l7.492,15.299c1.703,3.629-0.146,2.806,10.199,2.789
		l0.029-43.728c-1.842-0.314-6.729-0.125-8.879-0.119v24.391l-11.115-22.988c-0.482-1.053-0.43-1.402-1.486-1.401l-8.162-0.001
		L203.466,157.263z"/>
	<path fill-rule="evenodd" clip-rule="evenodd" fill="#9D9EA2" d="M166.507,54.244l8.775-0.007l0.047-24.084
		c0.047,0.053,0.115,0.063,0.137,0.166c0.021,0.102,0.104,0.124,0.133,0.166l2.848,5.63c0.973,2.087,1.854,3.864,2.918,5.958
		c1.303,2.559,4.889,10.576,5.961,12.107l8.734,0.066l0.088-43.866l-8.883,0.018v24.12c-0.369-0.316-0.166-0.025-0.564-0.625
		l-5.426-11.385c-1.893-3.917-4.041-8.09-5.707-12.066l-9.065-0.065L166.507,54.244z"/>
	<path fill-rule="evenodd" clip-rule="evenodd" fill="#AD1928" d="M264.082,80.327l-17.162-0.046
		c-0.17,1.431-0.248,7.756,0.078,8.944l8.309-0.001c0.002,3.879,0.537,5.471-1.102,7.174c-1.658,1.726-3.393,1.154-7.299,1.165
		c-1.666,0.005-2.455,0.299-3.541-0.599c-0.855-0.705-1.592-1.135-1.633-2.806c-0.055-2.205-0.197-19.803,0.164-20.82
		c0.252-0.713,1.48-1.979,2.197-2.222c0.832-0.282,7.064-0.203,8.352-0.147c1.621,0.07,1.883,0.719,2.549,1.646
		c0.967,1.344,0.674,1.847,0.67,3.708c1.17,0.38,7.068,0.296,8.465,0.087c-0.004-3.443,0.34-5.17-1.389-7.7
		c-1.391-2.034-2.502-3.597-4.385-4.976c-2.15-1.574-4.262-1.756-7.369-1.752c-6.621,0.008-10.395-1.055-14.654,3.82
		c-4.619,5.287-3.465,6.945-3.465,15.139c0,3.681-0.439,15.18,0.646,17.96c0.654,1.676,3.207,4.291,4.232,5.126
		c1.941,1.581,3.211,2.477,6.523,2.536c2.988,0.053,6.391,0.104,9.357-0.021c3.379-0.141,4.406-1.513,5.969-3.071
		c1.258-1.254,3.352-3.17,4.072-5.286C264.404,96.02,264.318,83.286,264.082,80.327"/>
	<path fill-rule="evenodd" clip-rule="evenodd" fill="#9D9EA2" d="M240.097,10.143h-12.779c-0.828,0.487-1.85,0.635-2.75,1.183
		c-1.672,1.016-4.771,4.172-5.66,5.859c-1.564,2.971-1.277,10.362,0.369,13.142c2.104,3.553,5.006,3.822,9.924,5.205
		c3.188,0.896,8.957,2.234,11.646,3.427c0,3.817,0.574,3.954-1.482,5.89c-1.016,0.953-1.316,0.771-3.014,0.758
		c-5.293-0.045-7.637,0.871-9.453-1.533c-1.57-2.078-0.744-3.334-0.975-6.265l-8.283-0.007c-0.531,4.416-0.232,7.889,1.9,10.744
		c1.508,2.018,3.9,4.869,6.977,5.754c1.723,0.496,10.264,0.416,12.48,0.281c3.375-0.207,5.793-2.092,7.906-4.598
		c2.578-3.052,2.813-4.679,2.826-9.845c0.023-9.68-5.742-9.851-13.346-12.04c-2.039-0.588-8.174-2.115-9.547-2.886
		c-0.223-4.395-0.094-3.628,1.48-5.341c0.973-1.058,0.961-0.811,2.742-0.794c5.689,0.055,6.828-0.871,8.672,1.604
		c1.824,2.448,1.41,1.836,1.414,5.546l8.344-0.063c-0.014-6.257,0.531-8.541-5.332-13.756
		C243.046,11.421,241.533,10.917,240.097,10.143"/>
	<path fill-rule="evenodd" clip-rule="evenodd" fill="#9D9EA2" d="M140.623,36.271l7.686,0.097l-3.744-12.043L140.623,36.271z
		 M125.49,54.191l8.857,0.053c0.879,0,0.843-0.889,1.17-1.886l1.526-4.719c0.454-1.387,0.437-2.107,1.144-2.274l12.96,0.006
		l2.906,8.884l9.319-0.011L149.24,10.391l-9.479-0.01L125.49,54.191z"/>
	<path fill-rule="evenodd" clip-rule="evenodd" fill="#9D9EA2" d="M255.425,54.303h8.82V37.037
		c1.543-0.188,11.133-0.246,12.301,0.077v17.188h8.82l-0.002-43.858l-8.73-0.003l-0.096,17.519l-12.201,0.063l-0.1-17.579
		l-8.723-0.002L255.425,54.303z"/>
	<path fill-rule="evenodd" clip-rule="evenodd" fill="#AD1928" d="M271.025,106.055c2.141,0.388,22.682,0.152,26.582,0.147v-8.998
		H280l-0.023-8.285l16.609,0.004l0.002-9.001L280,79.924c-0.236-1.95-0.096-6.381-0.092-8.581h17.697
		c0-2.172,0.131-7.148-0.107-9.009l-25.631,0.008c-1.326,0.044-0.842,0.718-0.842,4.44V106.055z"/>
	<path fill-rule="evenodd" clip-rule="evenodd" fill="#AD1928" d="M131.647,63.903l-0.001,42.296
		c4.066,0.014,24.479,0.168,26.587-0.107l-0.005-8.741c-2.039-0.429-14.092-0.146-17.627-0.146l-0.018-8.285l16.563,0.004v-9
		l-16.545,0.002l-0.074-8.584l17.697,0.002l0.002-9l-26.576,0.004L131.647,63.903z"/>
	<polygon fill-rule="evenodd" clip-rule="evenodd" fill="#AD1928" points="330.667,106.202 330.667,97.204 312.97,97.159 
		313.009,88.929 329.648,88.848 329.646,79.933 312.972,79.88 312.964,71.347 330.667,71.343 330.667,62.342 304.089,62.37 
		304.085,106.198 	"/>
	<path fill-rule="evenodd" clip-rule="evenodd" fill="#AD1928" d="M205.205,62.345l-8.879,0.012c0.014,9.928,0.002,19.777,0,29.626
		c0,6.808,0.438,7.167,3.859,10.962c3.104,3.443,5.164,3.619,11.201,3.619c5.926,0,7.943-0.152,11.047-3.539
		c3.586-3.914,3.893-4.069,3.893-11.042c0-3.686,0.248-28.181-0.148-29.644l-8.611,0.012c-0.236,1.867-0.09,26.943-0.053,30.836
		c0.045,5.021-3.906,4.377-6.127,4.377c-2.164,0-6.232,0.673-6.189-4.129L205.205,62.345z"/>
	<path fill-rule="evenodd" clip-rule="evenodd" fill="#AD1928" d="M176.197,158.463h11.248c1.785-0.979,2.787-0.719,4.365-2.298
		c5.813-5.822,5.115-6.091,5.115-14.982c0-8.94-0.006-17.88,0.002-26.871l-8.881-0.008c0.025,6.958,0.002,13.921,0.002,20.879
		c0,1.933,0.447,11.303-0.434,12.47c-0.264,0.348-1.064,1.174-1.279,1.366c-0.885,0.796-7.902,0.897-9.057-0.128
		c-1.01-0.897-1.498-1.646-1.482-3.621l0.012-30.958l-8.883-0.008c0.035,8.877,0.003,17.761,0.003,26.639
		c0,4.714-0.656,8.407,1.829,11.673C172.689,157.782,173.906,157.12,176.197,158.463"/>
	<path fill-rule="evenodd" clip-rule="evenodd" fill="#AD1928" d="M248.917,158.463h11.008c0.754-0.405,1.738-0.557,2.516-1.028
		c1.801-1.094,4.094-3.661,5.4-5.395c1.104-1.463,1.855-3.036,1.871-5.33c0.014-2.101,0.133-4.881-0.064-6.907l-8.324,0.001
		c-0.521,4.195,0.828,6.237-0.951,8.119c-2.111,2.234-2.184,1.569-7.229,1.604c-2.102,0.015-2.344,0.142-3.496-1.009
		c-1.158-1.156-1.145-1.273-1.127-3.252V127.5c-0.029-3.089,1.307-4.532,4.381-4.503c4.859,0.047,5.393-0.649,7.373,1.463
		c1.254,1.336,0.986,1.238,0.973,3.521c-0.008,1.44-0.002,2.882,0.002,4.322l8.455,0.001c0.014-4.278,0.645-8.148-1.467-11.248
		c-1.268-1.861-4.244-5.35-6.412-6.304c-2.197-0.966-9.223-0.981-12.027-0.679c-3.789,0.408-5.965,3.071-7.688,5.031
		c-2.602,2.962-2.463,5.44-2.463,10.318c0,4.24,0,8.48,0,12.72c0,6.324-0.6,9.397,5.18,14.084
		C246.564,157.637,247.228,157.46,248.917,158.463"/>
	<path fill-rule="evenodd" clip-rule="evenodd" fill="#AD1928" d="M103.402,158.463h10.846c0.754-0.393,1.641-0.505,2.527-1.009
		c2.627-1.492,7.25-6.417,7.316-10.746c0.029-1.986,0.146-5.019-0.078-6.905l-8.326-0.001c-0.387,3.938,0.706,6.202-0.953,8.163
		c-0.74,0.876-1.307,1.562-2.93,1.575c-3.502,0.03-6.141,0.457-7.841-1.016c-1.033-0.895-1.14-1.373-1.124-3.258v-17.768
		c-0.016-2.2,0.104-2.196,1.24-3.381c1.079-1.127,1.072-1.143,3.141-1.121c4.322,0.043,5.55-0.641,7.414,1.42
		c1.555,1.72,0.983,3.945,0.994,7.886l8.456,0.001c0.01-4.496,0.677-8.126-1.595-11.423c-1.252-1.82-4.24-5.323-6.494-6.219
		c-2.148-0.854-9.469-0.916-12.094-0.563c-3.16,0.425-5.71,2.774-7.553,5.166c-2.846,3.692-2.322,4.875-2.322,10.398
		c0,4.24,0,8.479,0,12.72c0,4.599-0.365,7.637,2.076,10.646C99.694,157.457,100.324,156.854,103.402,158.463"/>
	<path fill-rule="evenodd" clip-rule="evenodd" fill="#AD1928" d="M165.008,106.199l8.878-0.009l0.006-17.27
		c2.902,0.008,14.92,0.352,16.734-0.148l0.002-8.701c-1.904-0.514-13.752-0.147-16.666-0.146l-0.082-8.582h17.646
		c-0.006-1.908,0.248-7.543-0.148-9.001h-26.225C164.691,64.06,165.008,101.109,165.008,106.199"/>
	<polygon fill-rule="evenodd" clip-rule="evenodd" fill="#AD1928" points="291.845,115.263 291.88,158.117 317.931,158.163 
		317.947,149.162 300.724,149.157 300.726,114.304 291.847,114.313 	"/>
	<path fill-rule="evenodd" clip-rule="evenodd" fill="#AD1928" d="M17.466,25.083v15.135c0.5,1.049,0.363,2.354,1.2,3.21
		l12.001-8.04c-0.004-2.256,0.012-4.516-0.008-6.771c-0.021-2.663,0.867-3.005,2.164-4.323c2.512-2.553,5.232-0.893,11.465-1.489
		l-0.047-12.318c-2.797-0.222-7.623-0.177-10.46-0.011c-4.934,0.288-9.645,4.711-12.6,7.949
		C17.513,22.444,18.923,22.308,17.466,25.083"/>
	<polygon fill-rule="evenodd" clip-rule="evenodd" fill="#9D9EA2" points="203.166,53.103 203.218,54.245 212.003,54.237 
		212.048,10.442 211.148,10.369 203.166,10.381 	"/>
	<polygon fill-rule="evenodd" clip-rule="evenodd" fill="#AD1928" points="275.947,157.263 275.994,158.162 284.72,158.155 
		284.767,114.363 283.867,114.291 275.947,114.303 	"/>
</g>
<g>
</g>
<g>
</g>
<g>
</g>
<g>
</g>
<g>
</g>
<g>
</g>
<g>
</g>
<g>
</g>
<g>
</g>
<g>
</g>
<g>
</g>
<g>
</g>
<g>
</g>
<g>
</g>
<g>
</g>
</svg>
