<?xml version="1.0" encoding="utf-8"?>
<!-- Generator: Adobe Illustrator 16.0.0, SVG Export Plug-In . SVG Version: 6.00 Build 0)  -->
<!DOCTYPE svg PUBLIC "-//W3C//DTD SVG 1.1//EN" "http://www.w3.org/Graphics/SVG/1.1/DTD/svg11.dtd">
<svg version="1.1" id="Layer_1" xmlns="http://www.w3.org/2000/svg" xmlns:xlink="http://www.w3.org/1999/xlink" x="0px" y="0px"
	 width="352px" height="186px" viewBox="0 0 352 186" enable-background="new 0 0 352 186" xml:space="preserve">
<g>
	<defs>
		<rect id="SVGID_1_" x="14.935" y="14.559" width="100.96" height="157.417"/>
	</defs>
	<clipPath id="SVGID_2_">
		<use xlink:href="#SVGID_1_"  overflow="visible"/>
	</clipPath>
	<g clip-path="url(#SVGID_2_)">
		<defs>
			<rect id="SVGID_3_" x="14.935" y="14.559" width="100.96" height="157.417"/>
		</defs>
		<clipPath id="SVGID_4_">
			<use xlink:href="#SVGID_3_"  overflow="visible"/>
		</clipPath>
		<g clip-path="url(#SVGID_4_)">
			<defs>
				<rect id="SVGID_5_" x="14.935" y="14.559" width="100.96" height="157.417"/>
			</defs>
			<clipPath id="SVGID_6_">
				<use xlink:href="#SVGID_5_"  overflow="visible"/>
			</clipPath>
			<g clip-path="url(#SVGID_6_)">
				
					<image overflow="visible" width="176" height="274" xlink:href="52751F06.png"  transform="matrix(0.5736 0 0 0.5745 14.9346 14.5591)">
				</image>
			</g>
		</g>
	</g>
</g>
<path fill="#231F20" d="M326.233,141.157c0,1.838,0.618,3.26,1.86,4.253h-0.016c1.157,0.94,2.922,1.421,5.273,1.421
	c2.457,0,4.311-0.465,5.563-1.379c1.347-1.004,2.029-2.44,2.029-4.295c0-1.294-0.417-2.33-1.236-3.086
	c-0.824-0.697-2.309-1.331-4.427-1.87c-0.291,0-0.618-0.063-1.094-0.232c-1.902-0.401-2.864-0.835-2.864-1.315
	c0-0.386,0.143-0.66,0.402-0.829h-0.016c0.359-0.201,0.914-0.313,1.643-0.313c0.724,0,1.326,0.153,1.759,0.449l0.449,0.449
	c0.481,0.756,1.131,1.142,1.981,1.142h2.568c0.185,0,0.306-0.138,0.291-0.322c-0.074-1.67-0.724-3.049-1.976-4.132
	c-1.3-0.946-3.017-1.411-5.135-1.411c-1.966,0-3.588,0.481-4.855,1.442c-1.221,1.067-1.839,2.399-1.839,3.989
	c0,1.236,0.491,2.319,1.3,3.106c0.787,0.724,2.256,1.358,4.358,1.902c0.386,0.138,0.941,0.259,1.654,0.37h-0.016
	c1.516,0.327,2.272,0.776,2.272,1.315c0,0.359-0.185,0.649-0.571,0.882v-0.016c-0.481,0.265-1.036,0.386-1.701,0.386
	c-0.93,0-1.669-0.185-2.224-0.555l0.016,0.016c-0.481-0.344-0.745-0.866-0.776-1.574c-0.016-0.138-0.138-0.28-0.307-0.28h-4.068
	c-0.169,0-0.296,0.127-0.296,0.296V141.157z M314.17,138.161c0-1.379,0.28-2.445,0.84-3.175c0.539-0.756,1.273-1.142,2.219-1.142
	c0.982,0,1.759,0.37,2.346,1.099v-0.016c0.56,0.771,0.84,1.854,0.84,3.233c0,1.532-0.264,2.695-0.792,3.482l0.016-0.017
	c-0.544,0.762-1.305,1.131-2.282,1.131c-1.025,0-1.808-0.369-2.346-1.131C314.45,140.856,314.17,139.693,314.17,138.161z
	 M320.416,131.505c-0.37-0.418-0.946-0.883-1.49-1.205c-0.792-0.418-1.711-0.634-2.769-0.634c-1.971,0-3.593,0.818-4.855,2.44
	c-1.188,1.564-1.791,3.641-1.791,6.225c0,2.615,0.602,4.691,1.791,6.224c0.661,0.818,1.479,1.379,2.542,1.765
	c1.041,0.354,2.082,0.512,3.154,0.512c1.976,0,3.804-0.512,5.484-1.532c1.728-1.072,2.594-3.064,2.594-6.007v-11.671
	c0-0.576-0.232-1.115-0.697-1.611c-0.444-0.481-0.999-0.724-1.633-0.724h-2.034c-0.169,0-0.295,0.137-0.295,0.307V131.505z
	 M308.426,136.914c0-2.905-0.792-4.839-2.367-5.816c-1.532-0.946-3.207-1.411-5.009-1.411c-1.801,0.063-3.376,0.587-4.855,1.532
	c-1.5,0.978-2.256,2.885-2.256,5.695v9.336c0,0.169,0.143,0.296,0.312,0.296h4.164c0.169,0,0.312-0.127,0.312-0.296v-10.17
	c0-0.851,0.232-1.469,0.713-1.854c0.513-0.386,1.099-0.587,1.738-0.587c0.634,0,1.226,0.201,1.765,0.587
	c0.512,0.386,0.761,1.004,0.761,1.854v8.131c0,1.374,0.961,2.335,2.325,2.335h2.103c0.169,0,0.296-0.127,0.296-0.296V136.914z
	 M289.479,145.854c0.851-0.429,1.58-1.11,2.182-2.051c0.603-0.93,0.915-2.224,0.915-3.894v-5.437c0-1.548-0.618-2.742-1.876-3.593
	c-1.157-0.793-2.895-1.194-5.183-1.194c-2.061,0-3.688,0.513-4.802,1.442c-1.004,0.867-1.606,1.935-1.78,3.233
	c-0.042,0.186,0.111,0.339,0.295,0.339h4.01c0.105,0,0.216-0.059,0.264-0.17c0.354-0.755,1.157-0.956,2.198-0.956
	c0.496,0,1.035,0.079,1.606,0.249c0.48,0.137,0.713,0.433,0.713,0.877c0,0.607-0.866,1.035-2.367,1.268
	c-0.354,0.048-0.65,0.079-0.914,0.127c-0.306,0.058-0.57,0.105-0.771,0.105c-1.548,0.265-2.832,0.74-3.873,1.501
	c-1.051,0.771-1.58,2.039-1.58,3.814c0,1.896,0.576,3.26,1.738,4.095c1.125,0.818,2.441,1.22,3.947,1.22
	c0.724,0,1.559-0.047,2.504-0.143C287.682,146.583,288.612,146.303,289.479,145.854z M288.083,139.726
	c0,1.035-0.296,1.854-0.866,2.425c-0.576,0.57-1.379,0.861-2.415,0.861c-0.603,0-1.067-0.138-1.363-0.401
	c-0.312-0.307-0.433-0.677-0.433-1.221c0-0.354,0.122-0.771,0.37-1.142c0.265-0.248,0.713-0.48,1.379-0.649h-0.016l0.343-0.074
	c0.232-0.048,0.555-0.111,1.036-0.217c0.787-0.169,1.453-0.369,1.965-0.602V139.726z M272.845,146.25
	c0,0.169,0.126,0.296,0.296,0.296h4.195c0.169,0,0.296-0.127,0.296-0.296v-18.618c0-0.666-0.232-1.21-0.682-1.627
	c-0.465-0.434-1.025-0.65-1.659-0.65h-2.15c-0.169,0-0.296,0.138-0.296,0.307V146.25z M266.615,146.546
	c0.169,0,0.296-0.127,0.296-0.296v-8.199c0-1.131,0.248-1.934,0.739-2.431c0.497-0.497,1.284-0.745,2.368-0.745h1.378
	c0.169,0,0.296-0.121,0.296-0.29v-4.259c0-0.169-0.126-0.296-0.296-0.296h-0.602c-2.214,0-4.443,0.561-5.976,1.796
	c-1.685,1.348-2.695,3.472-2.695,6.705v7.719c0,0.169,0.127,0.296,0.296,0.296H266.615z M250.309,136.376
	c0.079-0.793,0.343-1.427,0.803-1.892c0.497-0.497,1.147-0.745,1.934-0.745c0.866,0,1.532,0.248,1.997,0.745v-0.016
	c0.386,0.417,0.618,1.051,0.724,1.907H250.309z M257.172,141.036c-0.555,0-0.988,0.126-1.279,0.358
	c-0.296,0.243-0.481,0.444-0.56,0.603l-0.09,0.09l0.032-0.048c-0.143,0.169-0.28,0.28-0.417,0.328
	c-0.449,0.259-0.993,0.401-1.627,0.401c-0.94,0-1.638-0.28-2.103-0.851c-0.476-0.513-0.74-1.221-0.819-2.256h10.033
	c0.079,0,0.201-0.063,0.248-0.138c0.079-0.143,0.111-0.327,0.111-0.576v-0.665c0-2.7-0.666-4.824-1.981-6.351
	c-1.374-1.496-3.292-2.251-5.78-2.251c-2.351,0-4.206,0.803-5.553,2.298c-1.236,1.479-1.934,3.588-1.934,6.192
	c0,2.742,0.666,4.855,1.997,6.356c1.315,1.526,3.17,2.303,5.532,2.303c1.918,0,3.556-0.496,4.855-1.421
	c1.236-0.93,2.182-2.271,2.615-4.005c0.047-0.185-0.063-0.369-0.296-0.369H257.172z M238.906,134.98
	c0.634,0.978,0.771,1.876,0.771,3.007v8.263c0,0.169,0.121,0.296,0.295,0.296h4.01c0.174,0,0.312-0.127,0.312-0.296v-9.288
	c0-1.902-0.402-3.402-1.21-4.485c-0.788-1.057-1.749-1.859-2.943-2.356c-0.777-0.307-1.548-0.465-2.32-0.465
	c-0.544,0-1.083,0.063-1.627,0.2c-1.115,0.265-1.981,0.777-2.674,1.644v-3.81c0-0.634-0.232-1.173-0.697-1.638
	c-0.459-0.465-0.998-0.697-1.632-0.697h-2.034c-0.169,0-0.296,0.138-0.296,0.307v20.589c0,0.169,0.127,0.296,0.296,0.296h4.052
	c0.169,0,0.312-0.127,0.312-0.296v-8.205c0-1.347,0.275-2.383,0.835-3.111c0.523-0.725,1.3-1.083,2.32-1.083
	c0.945,0,1.685,0.391,2.229,1.146V134.98z M226.954,143.123c0-0.175-0.137-0.313-0.306-0.313h-1.252
	c-0.607,0-0.898-0.232-0.898-0.713v-8.549h0.122c0.634,0,1.178-0.217,1.643-0.649c0.465-0.434,0.692-0.988,0.692-1.681v-0.829
	c0-0.169-0.137-0.296-0.306-0.296h-2.15v-2.398c0-0.635-0.232-1.189-0.682-1.638c-0.465-0.465-0.993-0.697-1.596-0.697h-2.15
	c-0.169,0-0.296,0.137-0.296,0.306v17.563c0,2.028,0.851,3.096,2.573,3.238c0.924,0.074,1.791,0.105,2.658,0.105
	c0.591,0,1.146-0.016,1.659-0.047c0.169-0.017,0.291-0.153,0.291-0.291V143.123z M207.483,136.376
	c0.08-0.793,0.344-1.427,0.803-1.892c0.497-0.497,1.146-0.745,1.934-0.745c0.867,0,1.532,0.248,1.998,0.745v-0.016
	c0.385,0.417,0.618,1.051,0.724,1.907H207.483z M214.346,141.036c-0.555,0-0.988,0.126-1.279,0.358
	c-0.295,0.243-0.48,0.444-0.56,0.603l-0.09,0.09l0.032-0.048c-0.143,0.169-0.28,0.28-0.417,0.328
	c-0.449,0.259-0.993,0.401-1.627,0.401c-0.941,0-1.638-0.28-2.104-0.851c-0.475-0.513-0.739-1.221-0.819-2.256h10.033
	c0.08,0,0.201-0.063,0.249-0.138c0.079-0.143,0.111-0.327,0.111-0.576v-0.665c0-2.7-0.666-4.824-1.981-6.351
	c-1.374-1.496-3.292-2.251-5.78-2.251c-2.351,0-4.206,0.803-5.553,2.298c-1.236,1.479-1.934,3.588-1.934,6.192
	c0,2.742,0.666,4.855,1.997,6.356c1.315,1.526,3.17,2.303,5.532,2.303c1.918,0,3.556-0.496,4.855-1.421
	c1.237-0.93,2.182-2.271,2.615-4.005c0.048-0.185-0.063-0.369-0.295-0.369H214.346z M188.192,146.546
	c0.169,0,0.312-0.127,0.312-0.296v-13.187l7.899,13.324c0.047,0.079,0.169,0.158,0.249,0.158h4.396c0.169,0,0.296-0.127,0.296-0.296
	v-20.758c0-0.17-0.127-0.312-0.296-0.312h-4.211c-0.169,0-0.312,0.142-0.312,0.312v13.155l-7.835-13.309
	c-0.048-0.08-0.174-0.158-0.249-0.158h-2.309c-0.666,0.047-1.252,0.312-1.733,0.792c-0.481,0.48-0.713,1.052-0.713,1.732v18.545
	c0,0.169,0.127,0.296,0.296,0.296H188.192z M164.685,136.376c0.08-0.793,0.344-1.427,0.803-1.892
	c0.497-0.497,1.146-0.745,1.934-0.745c0.867,0,1.532,0.248,1.997,0.745v-0.016c0.386,0.417,0.619,1.051,0.724,1.907H164.685z
	 M171.548,141.036c-0.555,0-0.988,0.126-1.279,0.358c-0.296,0.243-0.48,0.444-0.56,0.603l-0.09,0.09l0.031-0.048
	c-0.143,0.169-0.28,0.28-0.417,0.328c-0.449,0.259-0.993,0.401-1.627,0.401c-0.94,0-1.638-0.28-2.103-0.851
	c-0.475-0.513-0.739-1.221-0.819-2.256h10.033c0.08,0,0.201-0.063,0.249-0.138c0.079-0.143,0.111-0.327,0.111-0.576v-0.665
	c0-2.7-0.666-4.824-1.981-6.351c-1.374-1.496-3.292-2.251-5.78-2.251c-2.352,0-4.206,0.803-5.553,2.298
	c-1.236,1.479-1.934,3.588-1.934,6.192c0,2.742,0.666,4.855,1.997,6.356c1.315,1.526,3.17,2.303,5.532,2.303
	c1.917,0,3.555-0.496,4.855-1.421c1.236-0.93,2.182-2.271,2.616-4.005c0.047-0.185-0.063-0.369-0.296-0.369H171.548z
	 M153.282,134.98c0.634,0.978,0.771,1.876,0.771,3.007v8.263c0,0.169,0.122,0.296,0.296,0.296h4.01c0.174,0,0.312-0.127,0.312-0.296
	v-9.288c0-1.902-0.401-3.402-1.21-4.485c-0.787-1.057-1.749-1.859-2.943-2.356c-0.776-0.307-1.548-0.465-2.319-0.465
	c-0.544,0-1.083,0.063-1.627,0.2c-1.115,0.265-1.981,0.777-2.673,1.644v-3.81c0-0.634-0.232-1.173-0.697-1.638
	c-0.46-0.465-0.999-0.697-1.633-0.697h-2.034c-0.169,0-0.296,0.138-0.296,0.307v20.589c0,0.169,0.126,0.296,0.296,0.296h4.052
	c0.169,0,0.312-0.127,0.312-0.296v-8.205c0-1.347,0.275-2.383,0.835-3.111c0.523-0.725,1.3-1.083,2.319-1.083
	c0.946,0,1.686,0.391,2.229,1.146V134.98z M135.286,146.546c0.169,0,0.307-0.127,0.307-0.296v-16.732h5.775
	c0.169,0,0.296-0.121,0.296-0.29v-3.688c0-0.169-0.127-0.29-0.296-0.29h-14.318c-0.682,0-1.269,0.248-1.749,0.724
	c-0.481,0.48-0.729,1.072-0.729,1.738v1.517c0,0.169,0.143,0.29,0.312,0.29h5.838v16.732c0,0.169,0.122,0.296,0.291,0.296H135.286z
	 M317.604,115.526c0.169,0,0.295-0.127,0.295-0.296v-11.75h0.291c0.607,0,1.13-0.217,1.595-0.65c0.449-0.417,0.682-0.987,0.682-1.68
	v-0.893c0-0.201-0.095-0.297-0.296-0.297h-2.272v-0.787c0-0.369,0.058-0.618,0.201-0.724l-0.032,0.016
	c0.169-0.126,0.513-0.185,1.02-0.185h1.083c0.201,0,0.296-0.095,0.296-0.296v-3.28c0-0.122-0.111-0.249-0.232-0.291
	c-0.248-0.048-0.57-0.063-1.02-0.063c-0.232-0.048-0.592-0.063-1.025-0.063c-1.728,0-2.959,0.37-3.714,1.094
	c-0.819,0.756-1.236,1.913-1.236,3.439v16.41c0,0.169,0.143,0.296,0.312,0.296H317.604z M303.511,102.841
	c0.232-0.079,0.481-0.11,0.745-0.11c0.291,0,0.586,0.047,0.866,0.137c0.534,0.19,0.999,0.607,1.416,1.258
	c0.433,0.682,0.65,1.701,0.65,3.064c-0.042,1.548-0.291,2.646-0.74,3.313c-0.433,0.666-0.93,1.051-1.474,1.221h0.016
	c-0.259,0.063-0.476,0.11-0.771,0.11s-0.576-0.048-0.882-0.158c-0.576-0.232-0.961-0.46-1.131-0.708
	c-0.544-0.634-0.866-1.859-0.945-3.64c0-0.122-0.016-0.265-0.016-0.434c0-1.532,0.359-2.679,1.073-3.45
	C302.571,103.211,302.973,103.01,303.511,102.841z M299.047,113.999c0.819,0.756,1.976,1.3,3.323,1.612
	c0.603,0.137,1.252,0.2,1.87,0.2c0.74,0,1.485-0.079,2.24-0.312l-0.016,0.016c1.532-0.327,2.816-1.178,3.835-2.567
	c0.914-1.315,1.548-3.191,1.548-5.807c0-1.78-0.344-3.376-1.041-4.75c-0.755-1.548-1.928-2.631-3.524-3.255
	c-0.93-0.354-1.918-0.507-3.033-0.507c-0.497,0-1.052,0.032-1.532,0.09c-1.675,0.265-3.128,1.009-4.195,2.229
	c-0.634,0.745-1.162,1.749-1.474,2.816c-0.307,1.131-0.46,2.245-0.46,3.313c0,1.348,0.185,2.631,0.555,3.889
	C297.53,112.219,298.165,113.238,299.047,113.999z M288.901,112.103c0-0.174-0.137-0.312-0.306-0.312h-1.252
	c-0.607,0-0.898-0.232-0.898-0.713v-8.549h0.121c0.634,0,1.178-0.217,1.644-0.65c0.464-0.433,0.692-0.987,0.692-1.68V99.37
	c0-0.17-0.137-0.296-0.306-0.296h-2.15v-2.399c0-0.634-0.232-1.188-0.682-1.638c-0.465-0.465-0.994-0.697-1.596-0.697h-2.15
	c-0.169,0-0.296,0.138-0.296,0.307v17.563c0,2.028,0.851,3.096,2.573,3.238c0.924,0.074,1.791,0.105,2.657,0.105
	c0.592,0,1.147-0.016,1.659-0.048c0.169-0.016,0.291-0.153,0.291-0.29V112.103z M279.844,105.895c0-2.905-0.792-4.84-2.367-5.816
	c-1.532-0.946-3.207-1.411-5.009-1.411c-1.802,0.063-3.376,0.587-4.855,1.532c-1.5,0.978-2.256,2.885-2.256,5.695v9.336
	c0,0.169,0.143,0.296,0.312,0.296h4.163c0.169,0,0.312-0.127,0.312-0.296V105.06c0-0.851,0.232-1.469,0.713-1.854
	c0.512-0.385,1.099-0.586,1.738-0.586c0.634,0,1.226,0.201,1.765,0.586c0.513,0.386,0.761,1.004,0.761,1.854v8.132
	c0,1.374,0.961,2.335,2.325,2.335h2.103c0.169,0,0.295-0.127,0.295-0.296V105.895z M253.511,105.355
	c0.079-0.792,0.343-1.426,0.803-1.891c0.497-0.497,1.147-0.745,1.934-0.745c0.867,0,1.532,0.248,1.997,0.745v-0.017
	c0.386,0.418,0.618,1.052,0.724,1.907H253.511z M260.374,110.016c-0.555,0-0.988,0.127-1.279,0.359
	c-0.296,0.243-0.481,0.444-0.56,0.603l-0.09,0.09l0.032-0.048c-0.143,0.169-0.28,0.28-0.417,0.327
	c-0.449,0.26-0.993,0.402-1.627,0.402c-0.94,0-1.638-0.28-2.103-0.851c-0.476-0.513-0.74-1.221-0.819-2.256h10.033
	c0.079,0,0.201-0.063,0.248-0.138c0.079-0.143,0.111-0.328,0.111-0.576v-0.665c0-2.7-0.666-4.824-1.981-6.352
	c-1.374-1.495-3.292-2.25-5.78-2.25c-2.351,0-4.205,0.803-5.553,2.298c-1.236,1.479-1.934,3.588-1.934,6.192
	c0,2.742,0.666,4.855,1.997,6.355c1.315,1.527,3.17,2.304,5.532,2.304c1.918,0,3.556-0.496,4.855-1.421
	c1.236-0.93,2.182-2.271,2.615-4.005c0.047-0.185-0.063-0.37-0.296-0.37H260.374z M237.078,105.06c0-0.866,0.248-1.484,0.745-1.854
	c0.544-0.385,1.136-0.586,1.775-0.586s1.231,0.201,1.775,0.586c0.497,0.37,0.745,0.988,0.745,1.854v8.132
	c0,1.374,0.956,2.335,2.33,2.335h2.082c0.169,0,0.312-0.127,0.312-0.296v-9.336c0-2.905-0.787-4.84-2.362-5.816
	c-1.542-0.946-3.218-1.411-5.024-1.411c-1.786,0.063-3.397,0.354-4.644,1.395c-1.485-1.114-3.26-1.395-5.109-1.395
	c-1.786,0.063-3.366,0.587-4.85,1.532c-1.501,0.978-2.262,2.869-2.262,5.695v9.336c0,0.169,0.127,0.296,0.296,0.296h4.195
	c0.169,0,0.296-0.127,0.296-0.296V105.06c0-0.851,0.248-1.469,0.729-1.854c0.512-0.385,1.083-0.586,1.738-0.586
	c0.634,0,1.226,0.201,1.765,0.586c0.497,0.37,0.745,0.988,0.745,1.854v10.171c0,0.169,0.126,0.296,0.295,0.296h4.116
	c0.169,0,0.312-0.127,0.312-0.296V105.06z M221.063,105.895c0-2.905-0.792-4.84-2.367-5.816c-1.532-0.946-3.207-1.411-5.008-1.411
	c-1.802,0.063-3.376,0.587-4.855,1.532c-1.5,0.978-2.256,2.885-2.256,5.695v9.336c0,0.169,0.143,0.296,0.312,0.296h4.163
	c0.169,0,0.312-0.127,0.312-0.296V105.06c0-0.851,0.232-1.469,0.713-1.854c0.513-0.385,1.099-0.586,1.738-0.586
	c0.634,0,1.226,0.201,1.765,0.586c0.513,0.386,0.761,1.004,0.761,1.854v8.132c0,1.374,0.962,2.335,2.325,2.335h2.103
	c0.169,0,0.295-0.127,0.295-0.296V105.895z M200.44,115.526c0.169,0,0.296-0.127,0.296-0.296v-8.199c0-1.131,0.249-1.935,0.74-2.431
	c0.497-0.497,1.284-0.745,2.367-0.745h1.378c0.169,0,0.296-0.122,0.296-0.291v-4.258c0-0.17-0.126-0.296-0.296-0.296h-0.602
	c-2.213,0-4.443,0.56-5.976,1.796c-1.685,1.348-2.694,3.472-2.694,6.705v7.719c0,0.169,0.127,0.296,0.296,0.296H200.44z
	 M184.135,105.355c0.079-0.792,0.343-1.426,0.803-1.891c0.497-0.497,1.147-0.745,1.934-0.745c0.866,0,1.532,0.248,1.997,0.745
	v-0.017c0.386,0.418,0.618,1.052,0.724,1.907H184.135z M190.998,110.016c-0.555,0-0.988,0.127-1.279,0.359
	c-0.296,0.243-0.481,0.444-0.56,0.603l-0.09,0.09l0.032-0.048c-0.143,0.169-0.28,0.28-0.417,0.327
	c-0.449,0.26-0.993,0.402-1.627,0.402c-0.94,0-1.638-0.28-2.103-0.851c-0.476-0.513-0.74-1.221-0.819-2.256h10.033
	c0.079,0,0.201-0.063,0.248-0.138c0.079-0.143,0.111-0.328,0.111-0.576v-0.665c0-2.7-0.666-4.824-1.981-6.352
	c-1.374-1.495-3.292-2.25-5.78-2.25c-2.351,0-4.205,0.803-5.553,2.298c-1.236,1.479-1.934,3.588-1.934,6.192
	c0,2.742,0.666,4.855,1.997,6.355c1.316,1.527,3.17,2.304,5.532,2.304c1.918,0,3.556-0.496,4.855-1.421
	c1.236-0.93,2.182-2.271,2.615-4.005c0.047-0.185-0.063-0.37-0.296-0.37H190.998z M178.095,99.412
	c0.058-0.232-0.063-0.401-0.296-0.401h-3.107c-1.099,0-1.844,0.555-2.198,1.653l-2.521,8.744l-2.89-10.182
	c-0.047-0.11-0.168-0.216-0.28-0.216h-4.422c-0.232,0-0.37,0.169-0.296,0.401l5.568,15.913c0.048,0.106,0.169,0.201,0.28,0.201
	h4.253c0.105,0,0.228-0.095,0.275-0.201L178.095,99.412z M152.247,102.841c0.232-0.079,0.48-0.11,0.745-0.11
	c0.291,0,0.586,0.047,0.867,0.137c0.534,0.19,0.999,0.607,1.416,1.258c0.433,0.682,0.649,1.701,0.649,3.064
	c-0.042,1.548-0.291,2.646-0.739,3.313c-0.434,0.666-0.93,1.051-1.474,1.221h0.016c-0.259,0.063-0.476,0.11-0.772,0.11
	s-0.576-0.048-0.882-0.158c-0.576-0.232-0.961-0.46-1.131-0.708c-0.544-0.634-0.867-1.859-0.946-3.64
	c0-0.122-0.016-0.265-0.016-0.434c0-1.532,0.359-2.679,1.072-3.45C151.307,103.211,151.708,103.01,152.247,102.841z
	 M147.782,113.999c0.819,0.756,1.976,1.3,3.323,1.612c0.603,0.137,1.252,0.2,1.871,0.2c0.739,0,1.484-0.079,2.24-0.312l-0.016,0.016
	c1.532-0.327,2.816-1.178,3.836-2.567c0.914-1.315,1.548-3.191,1.548-5.807c0-1.78-0.343-3.376-1.041-4.75
	c-0.756-1.548-1.929-2.631-3.524-3.255c-0.93-0.354-1.917-0.507-3.033-0.507c-0.497,0-1.051,0.032-1.532,0.09
	c-1.675,0.265-3.127,1.009-4.195,2.229c-0.634,0.745-1.163,1.749-1.474,2.816c-0.306,1.131-0.459,2.245-0.459,3.313
	c0,1.348,0.185,2.631,0.555,3.889C146.266,112.219,146.9,113.238,147.782,113.999z M140.12,113.624
	c0.312,1.269,1.115,1.902,2.404,1.902h1.125c0.174,0,0.312-0.127,0.312-0.296v-11.248c0-0.169-0.137-0.312-0.312-0.312h-8.591
	c-0.169,0-0.306,0.143-0.306,0.312v1.379c0,0.682,0.243,1.268,0.724,1.749c0.481,0.48,1.057,0.713,1.733,0.713h2.171
	c-0.249,1.157-0.777,2.119-1.516,2.784c-0.824,0.708-1.892,1.067-3.175,1.067c-1.738,0-3.085-0.592-4.031-1.749
	c-1.004-1.252-1.5-2.958-1.5-5.109c0-2.134,0.481-3.835,1.442-5.108v0.016c0.94-1.173,2.229-1.765,3.852-1.765
	c1.268,0,2.277,0.265,3.022,0.793h-0.016c0.507,0.369,0.867,0.787,1.125,1.22l-0.011-0.016c0.459,0.883,1.173,1.315,2.134,1.315
	h2.895c0.186,0,0.338-0.153,0.291-0.354c-0.322-2.198-1.347-3.979-3.064-5.357c-1.733-1.284-3.915-1.934-6.562-1.934
	c-3.048,0-5.51,1.02-7.381,3.112c-1.78,1.997-2.663,4.692-2.663,8.078c0,3.456,0.914,6.177,2.721,8.143
	c1.78,2.023,4.195,3.043,7.259,3.043c1.289,0,2.462-0.232,3.545-0.692c0.882-0.417,1.659-1.052,2.325-1.859L140.12,113.624z"/>
<rect x="-460" y="-48.465" fill="none" width="1984.252" height="283.465"/>
</svg>
