<?xml version="1.0" encoding="utf-8"?>
<!-- Generator: Adobe Illustrator 16.0.0, SVG Export Plug-In . SVG Version: 6.00 Build 0)  -->
<!DOCTYPE svg PUBLIC "-//W3C//DTD SVG 1.1//EN" "http://www.w3.org/Graphics/SVG/1.1/DTD/svg11.dtd">
<svg version="1.1" id="Layer_1" xmlns="http://www.w3.org/2000/svg" xmlns:xlink="http://www.w3.org/1999/xlink" x="0px" y="0px"
	 width="504.667px" height="142px" viewBox="0 0 504.667 142" enable-background="new 0 0 504.667 142" xml:space="preserve">
<g>
	<path fill-rule="evenodd" clip-rule="evenodd" fill="#951B30" d="M37.052,94.569c12.863-18.186-1.809-67.663-5.178-85.415
		c-6.25,10.141-13.168,31.445-13.268,44.949C18.495,68.835,27.831,89.66,37.052,94.569 M32.962,102.828
		c-0.277,8.652-8.926,28.972,1.508,34.723c2.855,0.665,4.109-1.437,5.475-3.979c2.301-4.283,6.266-17.917,7.209-22.109
		c15.965,1.924,24.375,3.259,38.818-3.274c16.277-7.364,39.73-27.604,46.189-45.068c2.85-7.702,11.268-29.722,6.422-38.244
		c-2.111,3.017-11.193,31.395-31.488,51.077c-6.918,6.708-3.504,7.553-21.658,19.641c-10.875,7.242-19.107,8.537-34.051,8.443
		c4.404-14.18,27.971-46.524,35.543-53.397c4.357-3.955,5.92-6.135,11.834-10.534c13.531-10.066,20.404-13.281,36.096-19.828
		l5.363-2.405c1.803-1.281,0.631-0.117,1.85-1.848c-19.252,0.205-58.773,17.023-71.9,30.762c-2.609,2.731-6.021,5.625-8.373,8.838
		c-1.48,2.023-6.02,8.219-7.73,9.666c-0.799-14.382-4.133-20.072-9.07-32.031C42.823,27.994,34.573,6.936,31.89,3.916
		C28.165,6.332,21.132,20.25,18.858,25.579c-4.348,10.187-5.359,16.785-6.049,28.497C11.835,70.623,24.415,96.157,32.962,102.828z"
		/>
	<path fill-rule="evenodd" clip-rule="evenodd" fill="#951B30" d="M141.364,111.684l9.271,0.333l3.805-31.724l9.814,31.638
		l8.746,0.022c3.016-5.051,7.363-24.316,9.43-28.824c0.529-1.158,0.707-1.4,1.123-1.983l4.309,30.499l9.586,0.433l-7.229-46.482
		l-10.137,0.016c-2.99,6.048-8.85,24.946-10.701,32.352l-10.381-32.305l-10.377,0.021L141.364,111.684z"/>
	<path fill-rule="evenodd" clip-rule="evenodd" fill="#951B30" d="M448.165,84.673c-9.125,2.526-7.666,23.852,5.051,20.02
		C462.183,101.993,460.007,81.396,448.165,84.673 M443.612,79.463c-2.389-1.021,2.729,1.762-0.916-0.791
		c-2.676-1.876-2.662-1.266-8.324-1.275l-0.236,45.772h8.6v-13.615c6.072,2.801,9.684,5.693,16.854,1.425
		c4.238-2.523,7.729-8.084,7.922-15.562C467.878,81.225,455.017,70.565,443.612,79.463z"/>
	<path fill-rule="evenodd" clip-rule="evenodd" fill="#951B30" d="M386.538,84.865c-11.279,3.899-6.41,23.622,5.521,19.744
		C401.63,101.498,399.003,80.556,386.538,84.865 M385.308,76.829c-22.197,4.193-17.193,41.242,8.588,35.582
		C414.212,107.951,410.433,72.083,385.308,76.829z"/>
	<path fill-rule="evenodd" clip-rule="evenodd" fill="#951B30" d="M368.56,98.845l-7.822-3.889
		c-3.631,6.013-6.111,11.773-15.822,9.176c-12.875-3.443-12.957-28.05-1.295-32.558c8.932-3.451,13.137,1.569,16.094,7.719
		l8.535-1.832c-4.943-23.992-42.213-20.021-42.83,9.336C324.747,118.733,362.55,121.059,368.56,98.845"/>
	<path fill-rule="evenodd" clip-rule="evenodd" fill="#951B30" d="M208.546,90.06l16.303,0.235
		C222.991,80.661,211.122,81.505,208.546,90.06 M234.136,103.94l-6.08-3.285c-0.242,0.083-16.461,12.064-19.719-3.725l25.271-0.197
		c3.33-24.488-28.709-26.671-33.488-7.768C193.685,114.409,225.829,120.045,234.136,103.94z"/>
	<path fill-rule="evenodd" clip-rule="evenodd" fill="#951B30" d="M475.011,101.983c-3.289,1.729-3.695,2.229-6.049,4.605
		c5.693,7.633,25.305,9.078,30.348,0.188c9.631-16.985-16.781-14.084-20.203-19.977c2.348-5.052,10.75-4.651,15.092,1.309
		l5.752-5.421c-10.326-12.527-36.658-4.392-28.656,9.52c3.959,6.883,15.559,4.876,18.945,7.92
		C495.353,104.719,484.356,109.142,475.011,101.983"/>
	<path fill-rule="evenodd" clip-rule="evenodd" fill="#951B30" d="M303.563,114.219c-3.291,2.015-2.627,1.337-7.41,1.597
		c0.063,3.983-1.076,6.604,1.881,7.605c1.908,0.646,6.975-0.019,8.832-0.82c4.52-1.953,5.33-7.713,7.115-13.559
		c2.705-8.855,7.871-23.136,9.26-31.435l-8.43-0.259l-6.359,24.336c-2.152-3.252-5.748-18.576-7.641-24.003l-8.795-0.259
		C293.419,85.819,304.206,107.859,303.563,114.219"/>
	<path fill-rule="evenodd" clip-rule="evenodd" fill="#951B30" d="M291.513,102.254l-6.637-3.593
		c-2.934,3.005-3.322,7.403-10.242,6.275c-15.008-2.446-2.898-33.399,9.361-15.52c1.74-0.376,2.195-0.443,3.906-1.274l3.113-2.204
		c-7.523-16.148-32.672-11.432-32.205,9.48C259.257,115.48,284.843,119.313,291.513,102.254"/>
	<path fill-rule="evenodd" clip-rule="evenodd" fill="#951B30" d="M419.579,81.216c-0.406-4.283,1.85-3.802-8.451-3.819
		l-0.258,34.767l8.664-0.009c-0.301-13.5-3.555-25.257,10.563-27.182l0.039-8.357C424.19,76.645,422.032,78.221,419.579,81.216"/>
	<path fill-rule="evenodd" clip-rule="evenodd" fill="#951B30" d="M247.501,81.273c-0.072-0.277-0.236-1.365-0.303-1.558
		l-0.738-1.718c-0.059-0.128-0.188-0.408-0.324-0.585l-7.279,0.138l-0.051,34.392l7.748,0.165
		c4.184-11.938-6.592-24.142,11.414-27.187l0.029-8.246C252.329,76.533,249.548,78.194,247.501,81.273"/>
	<path fill-rule="evenodd" clip-rule="evenodd" fill="#951B30" d="M63.604,37.65c10.248-0.002,15.182-14.889,6.605-17.818
		C66.731,18.644,54.437,25.701,63.604,37.65"/>
</g>
<g>
</g>
<g>
</g>
<g>
</g>
<g>
</g>
<g>
</g>
<g>
</g>
<g>
</g>
<g>
</g>
<g>
</g>
<g>
</g>
<g>
</g>
<g>
</g>
<g>
</g>
<g>
</g>
<g>
</g>
</svg>
