<?xml version="1.0" encoding="utf-8"?>
<!-- Generator: Adobe Illustrator 16.0.0, SVG Export Plug-In . SVG Version: 6.00 Build 0)  -->
<!DOCTYPE svg PUBLIC "-//W3C//DTD SVG 1.1//EN" "http://www.w3.org/Graphics/SVG/1.1/DTD/svg11.dtd">
<svg version="1.1" id="Capa_1" xmlns="http://www.w3.org/2000/svg" xmlns:xlink="http://www.w3.org/1999/xlink" x="0px" y="0px"
	 width="512px" height="512px" viewBox="0 0 512 512" enable-background="new 0 0 512 512" xml:space="preserve">
<path fill="#FFFFFF" d="M167.694,83.944c0.108-3.526,0.424-14.262,8.588-17.352c8.07-3.035,15.877,4.766,17.365,6.361
	c2.537,2.712,2.389,6.973-0.323,9.51c-2.699,2.524-6.959,2.396-9.49-0.296c-0.646-0.68-1.508-1.393-2.282-1.938
	c-0.175,0.915-0.35,2.241-0.404,4.105c-0.478,16.228,12.176,21.154,12.304,21.202c2.437,0.909,4.126,3.15,4.348,5.741
	c3.722,44.294,38.56,58.617,54.854,58.617c16.294,0,51.14-14.33,54.848-58.617c0.216-2.591,1.905-4.833,4.349-5.741
	c1.258-0.498,12.773-5.533,12.31-21.202c-0.054-1.871-0.222-3.197-0.403-4.112c-0.781,0.545-1.643,1.265-2.289,1.945
	c-2.564,2.692-6.818,2.807-9.504,0.27c-2.691-2.544-2.84-6.771-0.309-9.483c1.5-1.595,9.361-9.389,17.371-6.361
	c8.171,3.083,8.487,13.825,8.588,17.352c0.559,19.115-10.822,28.518-17.096,32.233c-5.693,46.307-42.672,67.192-67.872,67.192
	c-25.199,0-62.177-20.885-67.878-67.192C178.517,112.462,167.135,103.066,167.694,83.944z M252.662,209.128
	c0,0,14.309-3.164,14.309-15.925h-14.309h-14.31C238.346,205.964,252.662,209.128,252.662,209.128z M252.278,334.769l27.958-22.716
	c-2.934-14.592-16.287-101.505-17.257-102.925c-5.546,3.796-10.318,4.308-10.318,4.308s-4.772-0.519-10.318-4.308
	c-0.969,1.42-14.323,88.339-17.258,102.925L252.278,334.769z M299.628,82.982c1.353,0,2.651,0.545,3.601,1.508
	c0.949,0.969,1.475,2.275,1.447,3.628c-0.088,4.671-0.889,20.347-7.76,25.94c-4.389,3.567-11.248,5.781-17.884,5.781
	c-6.347,0-11.685-2.012-15.022-5.667c-3.602-3.951-5.99-12.189-7.357-18.341h-7.969c-1.366,6.145-3.755,14.39-7.356,18.341
	c-3.338,3.655-8.676,5.667-15.023,5.667c-6.636,0-13.495-2.214-17.876-5.781c-6.878-5.586-7.687-21.262-7.767-25.94
	c-0.02-1.353,0.498-2.666,1.447-3.628c0.956-0.962,2.248-1.508,3.601-1.508h39.341c1.474,0,2.874,0.646,3.83,1.764
	c0.249,0.29,0.357,0.653,0.532,0.989h6.529c0.175-0.336,0.283-0.7,0.532-0.989c0.962-1.117,2.363-1.764,3.83-1.764H299.628
	L299.628,82.982z M238.938,93.078H211.06c0.612,5.91,2.006,11.758,3.715,13.145c4.671,3.789,15.979,4.55,19.088,1.137
	C235.721,105.314,237.659,98.9,238.938,93.078z M294.257,93.078h-27.878c1.285,5.822,3.217,12.243,5.074,14.282
	c3.109,3.413,14.432,2.652,19.096-1.137C292.211,104.863,293.631,98.994,294.257,93.078z M306.668,59.364
	c-0.275,3.708,2.504,6.933,6.213,7.208c0.168,0.014,0.336,0.02,0.504,0.02c3.494,0,6.441-2.692,6.705-6.232
	c1.607-21.599-12.756-31.196-13.361-31.594c-3.089-2.012-7.154-1.13-9.214,1.925c-2.053,3.056-1.226,7.215,1.804,9.308
	C299.654,40.243,307.664,45.957,306.668,59.364z M196.461,69.406c3.722,0,6.73-3.015,6.73-6.73c0-31.775,25.597-33.31,28.39-33.377
	h57.608c3.721,0,6.73-3.015,6.73-6.73s-3.01-6.73-6.73-6.73h-57.696c-14.444,0.195-41.757,10.23-41.757,46.838
	C189.73,66.391,192.746,69.406,196.461,69.406z M69.359,320.016c5.701,46.307,42.679,67.191,67.878,67.191
	s62.178-20.885,67.872-67.191c6.273-3.709,17.655-13.111,17.096-32.233c-0.108-3.526-0.424-14.263-8.588-17.352
	c-8.01-3.022-15.877,4.765-17.372,6.36c-2.53,2.705-2.382,6.939,0.31,9.483c2.685,2.544,6.939,2.423,9.503-0.269
	c0.646-0.681,1.508-1.4,2.289-1.945c0.175,0.915,0.35,2.24,0.404,4.111c0.464,15.67-11.059,20.704-12.311,21.202
	c-2.437,0.908-4.126,3.149-4.348,5.741c-3.715,44.294-38.56,58.617-54.848,58.617s-51.14-14.33-54.855-58.617
	c-0.215-2.592-1.905-4.833-4.348-5.741c-0.135-0.047-12.782-4.974-12.304-21.202c0.054-1.871,0.222-3.196,0.404-4.105
	c0.774,0.545,1.629,1.252,2.261,1.918c2.551,2.727,6.818,2.854,9.511,0.324c2.712-2.538,2.86-6.799,0.323-9.511
	c-1.487-1.595-9.308-9.409-17.365-6.36c-8.171,3.082-8.487,13.818-8.588,17.352C51.711,306.904,63.093,316.307,69.359,320.016z
	 M122.727,397.047c0,12.762,14.067,15.925,14.067,15.925s14.067-3.163,14.067-15.925h-14.067H122.727z M115.787,394.187
	c-1.568-3.365-5.593-4.825-8.952-3.23l-14.632,6.872l-1.326-24.251c-0.195-3.715-3.392-6.535-7.087-6.354
	c-3.715,0.202-6.556,3.379-6.347,7.088l0.283,5.209C60.448,386.069,0,414.358,0,489.438c0,3.716,3.009,6.731,6.73,6.731
	c3.722,0,6.731-3.016,6.731-6.731c0-62.749,46.415-88.178,65.038-95.857l0.821,14.936c0.121,2.234,1.346,4.261,3.264,5.411
	c1.057,0.633,2.255,0.956,3.453,0.956c0.976,0,1.952-0.209,2.861-0.64l23.665-11.105
	C115.922,401.557,117.369,397.552,115.787,394.187z M151.439,199.934c1.811,0,3.614-0.727,4.94-2.16
	c11.778-12.741,26.323-22.279,42.066-27.576c3.52-1.185,5.418-5.001,4.227-8.528c-1.178-3.52-4.967-5.418-8.528-4.233
	c-17.863,6.017-34.347,16.8-47.653,31.19c-2.524,2.732-2.355,6.993,0.377,9.517C148.168,199.341,149.804,199.934,151.439,199.934z
	 M58.98,469.119c-3.722,0-6.73,3.016-6.73,6.73v13.589c0,3.716,3.009,6.731,6.73,6.731c3.722,0,6.731-3.016,6.731-6.731V475.85
	C65.711,472.135,62.696,469.119,58.98,469.119z M215.488,469.119c-3.722,0-6.73,3.016-6.73,6.73v13.589
	c0,3.716,3.008,6.731,6.73,6.731s6.73-3.016,6.73-6.731V475.85C222.219,472.135,219.204,469.119,215.488,469.119z M195.976,379.521
	l0.283-5.209c0.202-3.709-2.638-6.886-6.347-7.088c-3.695-0.168-6.885,2.646-7.087,6.354l-1.326,24.251l-14.632-6.872
	c-3.386-1.588-7.384-0.128-8.952,3.23c-1.575,3.365-0.135,7.37,3.23,8.952l23.665,11.105c0.909,0.424,1.884,0.64,2.86,0.64
	c1.198,0,2.39-0.316,3.453-0.956c1.918-1.145,3.15-3.177,3.264-5.411l0.821-14.936c18.624,7.68,65.038,33.102,65.038,95.857
	c0,3.716,3.009,6.731,6.73,6.731s6.731-3.016,6.731-6.731C273.701,414.358,213.254,386.069,195.976,379.521z M76.581,266.042
	c0.343,0.054,0.68,0.074,1.01,0.074c3.271,0,6.145-2.39,6.65-5.728c1.016-6.758,3.708-12.93,7.774-17.843
	c2.369-2.86,1.972-7.107-0.895-9.477c-2.861-2.369-7.108-1.965-9.477,0.895c-5.627,6.798-9.335,15.245-10.722,24.425
	C70.375,262.064,72.906,265.49,76.581,266.042z M101.922,236.468h55.063c2.767,0.067,27.051,1.541,27.051,31.701
	c0,3.716,3.008,6.73,6.73,6.73s6.73-3.015,6.73-6.73c0-35.295-26.357-44.974-40.384-45.163h-55.185c-3.722,0-6.73,3.015-6.73,6.73
	S98.2,236.468,101.922,236.468z M107.266,217.831h54.404c1.4-0.014,34.299,0.141,38.196,33.485c0.404,3.426,3.305,5.95,6.677,5.95
	c0.255,0,0.525-0.014,0.787-0.047c3.695-0.432,6.333-3.776,5.903-7.465c-4.267-36.473-35.76-45.6-51.644-45.378h-54.323
	c-3.722,0-6.73,3.015-6.73,6.73S103.544,217.831,107.266,217.831z M290.73,410.488c-3.723,0-6.73,3.016-6.73,6.73v71.938
	c0,3.715,3.008,6.73,6.73,6.73c3.722,0,6.73-3.016,6.73-6.73v-71.938C297.461,413.504,294.452,410.488,290.73,410.488z
	 M459.568,410.488c-3.722,0-6.73,3.016-6.73,6.73v71.938c0,3.715,3.009,6.73,6.73,6.73s6.73-3.016,6.73-6.73v-71.938
	C466.299,413.504,463.29,410.488,459.568,410.488z M375.523,131.92c0.013,0,0.026,0,0.026,0c35.443,0,66.378,27.037,72.939,62.582
	c1.124,0.041,2.269,0.209,3.427,0.64c8.171,3.083,8.487,13.818,8.588,17.352c0.559,19.115-10.823,28.518-17.089,32.233
	c-5.701,46.307-42.679,67.192-67.879,67.192c-25.199,0-62.178-20.885-67.878-67.192c-6.267-3.708-17.648-13.111-17.09-32.233
	c0.107-3.527,0.424-14.262,8.588-17.352c1.158-0.438,2.303-0.599,3.427-0.64C309.145,158.964,340.086,131.92,375.523,131.92z
	 M315.304,200.304c0.538,0.505,0.989,0.942,1.231,1.198c2.537,2.712,2.39,6.973-0.322,9.517c-2.699,2.531-6.96,2.403-9.511-0.316
	c-0.633-0.666-1.495-1.38-2.269-1.925c-0.175,0.916-0.35,2.241-0.404,4.112c-0.478,16.228,12.176,21.154,12.305,21.202
	c2.436,0.909,4.125,3.15,4.348,5.741c3.722,44.294,38.56,58.617,54.854,58.617s51.14-14.329,54.854-58.617
	c0.216-2.591,1.905-4.833,4.349-5.741c1.259-0.498,12.768-5.533,12.304-21.202c-0.055-1.871-0.223-3.197-0.404-4.105
	c-0.773,0.545-1.636,1.265-2.281,1.938c-2.564,2.692-6.818,2.807-9.504,0.269c-2.692-2.544-2.841-6.778-0.31-9.483
	c0.235-0.256,0.687-0.7,1.231-1.205c-4.012-30.914-30.133-54.915-60.226-54.915c-0.007,0-0.007,0-0.014,0h-0.007
	C345.438,145.382,319.309,169.383,315.304,200.304z M331.282,241.172c-8.622-9.517-7.242-24.681-7.175-25.327
	c0.249-2.585,2.423-4.55,5.021-4.55h33.612h6.812h11.98h8.427h31.997c2.599,0,4.772,1.965,5.021,4.557
	c0.067,0.64,1.447,15.811-7.182,25.328c-4.436,4.9-10.52,7.376-18.092,7.376c-7.713,0-13.885-2.524-18.328-7.498
	c-1.662-1.865-2.847-3.951-3.829-6.084h-8.022c-0.983,2.133-2.168,4.227-3.83,6.084c-4.442,4.974-10.607,7.498-18.328,7.498
	C341.803,248.549,335.718,246.072,331.282,241.172z M376.701,224.871c-0.155-1.245-0.25-2.416-0.297-3.486h-1.729
	c-0.048,1.063-0.142,2.234-0.303,3.486H376.701z M386.5,221.391c0.209,3.83,1.138,9.295,4.43,12.97
	c2.477,2.76,6.004,4.099,10.775,4.099c4.645,0,8.11-1.319,10.588-4.039c3.344-3.668,4.348-9.153,4.623-13.03H389.96H386.5z
	 M334.163,221.391c0.263,3.87,1.272,9.362,4.617,13.03c2.477,2.712,5.942,4.039,10.587,4.039c4.785,0,8.313-1.353,10.797-4.126
	c3.257-3.648,4.186-9.106,4.401-12.936h-1.831h-28.571V221.391z M512,414.144v75.222c0,3.715-3.009,6.73-6.73,6.73
	c-3.723,0-6.73-3.016-6.73-6.73v-75.222c0-40.33-18.456-65.314-36.171-80.068c-30.436,31.708-59.634,47.821-86.832,47.821
	c-27.407,0-56.854-16.362-87.546-48.562c-18.846,15.541-31.465,37.624-34.824,62.689c-0.492,3.682-3.877,6.239-7.565,5.774
	c-3.688-0.498-6.273-3.883-5.775-7.564c5.721-42.619,34.892-77.686,76.131-91.517c2.631-0.875,5.492-0.067,7.269,2.025
	c0.27,0.316,27.179,31.58,52.317,31.58c25.092,0,51.227-31.196,51.489-31.513c1.729-2.087,4.53-2.941,7.128-2.153
	C434.928,302.893,512,327.082,512,414.144z M451.37,325.999c-7.107-4.557-13.354-7.451-17.156-8.992
	c-8.548,9.241-32.853,32.791-58.678,32.791c-25.88,0-50.763-23.685-59.411-32.832c-6.011,2.302-11.685,5.149-17.016,8.44
	c27.521,28.478,53.232,43.043,76.434,43.043C398.562,368.442,424.077,354.065,451.37,325.999z M118.749,455.415l39.334,18.745
	c-1.178-6.812-2.551-14.74-3.938-22.676l-31.822-16.355C121.199,441.442,119.967,448.463,118.749,455.415z M126.657,412.965
	c-0.208,0.311-0.875,3.514-1.791,8.333l26.344,13.542c-2.154-12.034-3.904-21.322-4.274-21.868
	c-5.452,3.797-10.143,4.308-10.143,4.308S132.109,416.762,126.657,412.965z M112.859,489.438h46.018l-42.511-20.252
	C114.845,477.93,113.56,485.435,112.859,489.438z M138.005,290.259v31.762h-8.272c-3.722,0-6.73,3.016-6.73,6.731
	c0,3.715,3.009,6.73,6.73,6.73h15.003c3.722,0,6.73-3.016,6.73-6.73v-38.493c0-3.716-3.008-6.73-6.73-6.73
	S138.005,286.537,138.005,290.259z"/>
</svg>
